<svg width="1920" height="1080" viewBox="0 0 1920 1080" fill="none" xmlns="http://www.w3.org/2000/svg">
<g filter="url(#filter0_d_17_1391)">
<mask id="mask0_17_1391" style="mask-type:luminance" maskUnits="userSpaceOnUse" x="-66" y="0" width="2052" height="1084">
<path d="M1985.11 0H-66V1083.52H1985.11V0Z" fill="white"/>
</mask>
<g mask="url(#mask0_17_1391)">
<path d="M2152.9 -16.0524H-184.209V1091.04H2152.9V-16.0524Z" fill="url(#paint0_linear_17_1391)"/>
<path fill-rule="evenodd" clip-rule="evenodd" d="M1233.53 146.075C1233.53 147.63 1232.46 148.889 1231.13 148.889C1229.81 148.889 1228.74 147.63 1228.74 146.075C1228.74 144.52 1229.81 143.26 1231.13 143.26C1232.46 143.263 1233.53 144.523 1233.53 146.075Z" fill="#FCFCFC"/>
<path fill-rule="evenodd" clip-rule="evenodd" d="M1324.92 256.719C1324.92 258.274 1323.84 259.533 1322.52 259.533C1321.2 259.533 1320.12 258.274 1320.12 256.719C1320.12 255.164 1321.2 253.904 1322.52 253.904C1323.84 253.904 1324.92 255.164 1324.92 256.719Z" fill="#FCFCFC"/>
<path fill-rule="evenodd" clip-rule="evenodd" d="M1082.6 30.8562C1082.6 32.411 1081.53 33.6706 1080.21 33.6706C1078.88 33.6706 1077.81 32.411 1077.81 30.8562C1077.81 29.3013 1078.88 28.0417 1080.21 28.0417C1081.53 28.0417 1082.6 29.3013 1082.6 30.8562Z" fill="#FCFCFC"/>
<path fill-rule="evenodd" clip-rule="evenodd" d="M1149.56 33.2588C1149.56 34.8136 1148.49 36.0732 1147.17 36.0732C1145.84 36.0732 1144.77 34.8136 1144.77 33.2588C1144.77 31.7039 1145.84 30.4443 1147.17 30.4443C1148.49 30.447 1149.56 31.7066 1149.56 33.2588Z" fill="#FCFCFC"/>
<path fill-rule="evenodd" clip-rule="evenodd" d="M1119.23 28.0415C1119.23 29.5964 1118.15 30.856 1116.83 30.856C1115.5 30.856 1114.43 29.5964 1114.43 28.0415C1114.43 26.4867 1115.5 25.2271 1116.83 25.2271C1118.15 25.2271 1119.23 26.4867 1119.23 28.0415Z" fill="#FCFCFC"/>
<path fill-rule="evenodd" clip-rule="evenodd" d="M1487.89 284.024C1487.89 285.578 1486.82 286.838 1485.5 286.838C1484.17 286.838 1483.1 285.578 1483.1 284.024C1483.1 282.469 1484.17 281.209 1485.5 281.209C1486.82 281.209 1487.89 282.471 1487.89 284.024Z" fill="#FCFCFC"/>
<path fill-rule="evenodd" clip-rule="evenodd" d="M1256.87 166.004C1256.87 167.559 1255.79 168.818 1254.47 168.818C1253.14 168.818 1252.07 167.559 1252.07 166.004C1252.07 164.449 1253.14 163.189 1254.47 163.189C1255.79 163.189 1256.87 164.452 1256.87 166.004Z" fill="#FCFCFC"/>
<path fill-rule="evenodd" clip-rule="evenodd" d="M1525.38 137.819C1525.38 139.373 1524.31 140.633 1522.98 140.633C1521.66 140.633 1520.58 139.373 1520.58 137.819C1520.58 136.264 1521.66 135.004 1522.98 135.004C1524.31 135.004 1525.38 136.264 1525.38 137.819Z" fill="#FCFCFC"/>
<path fill-rule="evenodd" clip-rule="evenodd" d="M885.901 92.4758C885.901 94.0307 884.828 95.2903 883.503 95.2903C882.179 95.2903 881.106 94.0307 881.106 92.4758C881.106 90.921 882.179 89.6614 883.503 89.6614C884.828 89.6614 885.901 90.921 885.901 92.4758Z" fill="#FCFCFC"/>
<path fill-rule="evenodd" clip-rule="evenodd" d="M1598.99 140.793C1598.99 142.348 1597.92 143.607 1596.6 143.607C1595.27 143.607 1594.2 142.348 1594.2 140.793C1594.2 139.238 1595.27 137.978 1596.6 137.978C1597.92 137.978 1598.99 139.241 1598.99 140.793Z" fill="#FCFCFC"/>
<path fill-rule="evenodd" clip-rule="evenodd" d="M1012.5 239.716C1012.5 241.271 1011.42 242.53 1010.1 242.53C1008.77 242.53 1007.7 241.271 1007.7 239.716C1007.7 238.161 1008.77 236.901 1010.1 236.901C1011.42 236.901 1012.5 238.161 1012.5 239.716Z" fill="#FCFCFC"/>
<path fill-rule="evenodd" clip-rule="evenodd" d="M1770.56 318.929C1770.56 320.484 1769.48 321.744 1768.16 321.744C1766.84 321.744 1765.76 320.484 1765.76 318.929C1765.76 317.374 1766.84 316.115 1768.16 316.115C1769.48 316.115 1770.56 317.374 1770.56 318.929Z" fill="#FCFCFC"/>
<path fill-rule="evenodd" clip-rule="evenodd" d="M1764.81 104.519C1764.81 106.074 1763.74 107.334 1762.41 107.334C1761.09 107.334 1760.01 106.074 1760.01 104.519C1760.01 102.964 1761.09 101.705 1762.41 101.705C1763.74 101.705 1764.81 102.964 1764.81 104.519Z" fill="#FCFCFC"/>
<path fill-rule="evenodd" clip-rule="evenodd" d="M746.812 221.941C746.812 223.495 745.739 224.755 744.415 224.755C743.09 224.755 742.017 223.495 742.017 221.941C742.017 220.386 743.09 219.126 744.415 219.126C745.739 219.126 746.812 220.386 746.812 221.941Z" fill="#FCFCFC"/>
<path fill-rule="evenodd" clip-rule="evenodd" d="M1560.29 203.745C1560.29 205.3 1559.22 206.56 1557.89 206.56C1556.57 206.56 1555.5 205.3 1555.5 203.745C1555.5 202.191 1556.57 200.931 1557.89 200.931C1559.22 200.931 1560.29 202.193 1560.29 203.745Z" fill="#FCFCFC"/>
<path fill-rule="evenodd" clip-rule="evenodd" d="M939.156 139.057C939.156 140.611 938.083 141.871 936.758 141.871C935.434 141.871 934.361 140.611 934.361 139.057C934.361 137.502 935.434 136.242 936.758 136.242C938.083 136.242 939.156 137.502 939.156 139.057Z" fill="#FCFCFC"/>
<path fill-rule="evenodd" clip-rule="evenodd" d="M1732.41 86.1753C1732.41 87.7302 1731.33 88.9898 1730.01 88.9898C1728.69 88.9898 1727.61 87.7302 1727.61 86.1753C1727.61 84.6205 1728.69 83.3609 1730.01 83.3609C1731.33 83.3609 1732.41 84.6205 1732.41 86.1753Z" fill="#FCFCFC"/>
<path fill-rule="evenodd" clip-rule="evenodd" d="M734.451 31.4087C734.451 32.9635 733.378 34.2231 732.053 34.2231C730.729 34.2231 729.656 32.9635 729.656 31.4087C729.656 29.8538 730.729 28.5942 732.053 28.5942C733.378 28.5942 734.451 29.8565 734.451 31.4087Z" fill="#FCFCFC"/>
<path fill-rule="evenodd" clip-rule="evenodd" d="M945.598 232.919C945.598 234.474 944.525 235.734 943.201 235.734C941.879 235.734 940.803 234.474 940.803 232.919C940.803 231.365 941.876 230.105 943.201 230.105C944.525 230.108 945.598 231.367 945.598 232.919Z" fill="#FCFCFC"/>
<path fill-rule="evenodd" clip-rule="evenodd" d="M1910.09 24.0759C1910.09 25.6307 1909.01 26.8903 1907.69 26.8903C1906.37 26.8903 1905.29 25.6307 1905.29 24.0759C1905.29 22.521 1906.37 21.2614 1907.69 21.2614C1909.01 21.2614 1910.09 22.521 1910.09 24.0759Z" fill="#FCFCFC"/>
<path fill-rule="evenodd" clip-rule="evenodd" d="M1397.44 88.1011C1397.44 89.656 1396.36 90.9156 1395.04 90.9156C1393.71 90.9156 1392.64 89.656 1392.64 88.1011C1392.64 86.5463 1393.71 85.2867 1395.04 85.2867C1396.36 85.2867 1397.44 86.5463 1397.44 88.1011Z" fill="#FCFCFC"/>
<path fill-rule="evenodd" clip-rule="evenodd" d="M1442.71 49.4792C1442.71 51.034 1441.63 52.2936 1440.31 52.2936C1438.99 52.2936 1437.91 51.034 1437.91 49.4792C1437.91 47.9243 1438.99 46.6647 1440.31 46.6647C1441.63 46.6647 1442.71 47.9243 1442.71 49.4792Z" fill="#FCFCFC"/>
<path fill-rule="evenodd" clip-rule="evenodd" d="M1202.76 70.2148C1202.76 71.7697 1201.69 73.0293 1200.36 73.0293C1199.04 73.0293 1197.97 71.7697 1197.97 70.2148C1197.97 68.66 1199.04 67.4004 1200.36 67.4004C1201.69 67.4004 1202.76 68.66 1202.76 70.2148Z" fill="#FCFCFC"/>
<path fill-rule="evenodd" clip-rule="evenodd" d="M58.9539 202.941C58.9539 204.496 57.8809 205.755 56.5564 205.755C55.2319 205.755 54.1589 204.496 54.1589 202.941C54.1589 201.386 55.2319 200.127 56.5564 200.127C57.8809 200.127 58.9539 201.386 58.9539 202.941Z" fill="#FCFCFC"/>
<path fill-rule="evenodd" clip-rule="evenodd" d="M1392.4 13.2433C1392.4 14.7982 1391.33 16.0578 1390 16.0578C1388.68 16.0578 1387.6 14.7982 1387.6 13.2433C1387.6 11.6885 1388.68 10.4289 1390 10.4289C1391.33 10.4316 1392.4 11.6912 1392.4 13.2433Z" fill="#FCFCFC"/>
<path fill-rule="evenodd" clip-rule="evenodd" d="M1300.97 193.363C1300.97 194.917 1299.89 196.177 1298.57 196.177C1297.24 196.177 1296.17 194.917 1296.17 193.363C1296.17 191.808 1297.24 190.548 1298.57 190.548C1299.89 190.548 1300.97 191.81 1300.97 193.363Z" fill="#FCFCFC"/>
<path fill-rule="evenodd" clip-rule="evenodd" d="M1427.56 340.605C1427.56 342.16 1426.49 343.42 1425.16 343.42C1423.84 343.42 1422.76 342.16 1422.76 340.605C1422.76 339.05 1423.84 337.791 1425.16 337.791C1426.49 337.791 1427.56 339.05 1427.56 340.605Z" fill="#FCFCFC"/>
<path fill-rule="evenodd" clip-rule="evenodd" d="M1161.88 322.827C1161.88 324.382 1160.8 325.642 1159.48 325.642C1158.15 325.642 1157.08 324.382 1157.08 322.827C1157.08 321.272 1158.15 320.013 1159.48 320.013C1160.8 320.013 1161.88 321.272 1161.88 322.827Z" fill="#FCFCFC"/>
<path fill-rule="evenodd" clip-rule="evenodd" d="M1354.22 239.943C1354.22 241.498 1353.15 242.758 1351.82 242.758C1350.5 242.758 1349.42 241.498 1349.42 239.943C1349.42 238.388 1350.5 237.129 1351.82 237.129C1353.15 237.129 1354.22 238.388 1354.22 239.943Z" fill="#FCFCFC"/>
<path fill-rule="evenodd" clip-rule="evenodd" d="M1020.18 114.566C1020.18 116.121 1019.1 117.381 1017.78 117.381C1016.46 117.381 1015.38 116.121 1015.38 114.566C1015.38 113.011 1016.46 111.752 1017.78 111.752C1019.1 111.752 1020.18 113.011 1020.18 114.566Z" fill="#FCFCFC"/>
<path fill-rule="evenodd" clip-rule="evenodd" d="M1146.77 261.806C1146.77 263.361 1145.7 264.62 1144.37 264.62C1143.05 264.62 1141.98 263.361 1141.98 261.806C1141.98 260.251 1143.05 258.991 1144.37 258.991C1145.7 258.991 1146.77 260.251 1146.77 261.806Z" fill="#FCFCFC"/>
<path fill-rule="evenodd" clip-rule="evenodd" d="M881.088 244.031C881.088 245.586 880.015 246.845 878.69 246.845C877.366 246.845 876.293 245.586 876.293 244.031C876.293 242.476 877.366 241.216 878.69 241.216C880.015 241.216 881.088 242.476 881.088 244.031Z" fill="#FCFCFC"/>
<path fill-rule="evenodd" clip-rule="evenodd" d="M1073.43 161.147C1073.43 162.702 1072.36 163.961 1071.03 163.961C1069.71 163.961 1068.64 162.702 1068.64 161.147C1068.64 159.592 1069.71 158.332 1071.03 158.332C1072.36 158.332 1073.43 159.592 1073.43 161.147Z" fill="#FCFCFC"/>
<path fill-rule="evenodd" clip-rule="evenodd" d="M211.315 90.5771C211.315 92.132 210.242 93.3916 208.918 93.3916C207.593 93.3916 206.52 92.132 206.52 90.5771C206.52 89.0223 207.593 87.7627 208.918 87.7627C210.242 87.7654 211.315 89.025 211.315 90.5771Z" fill="#FCFCFC"/>
<path fill-rule="evenodd" clip-rule="evenodd" d="M1712.87 15.9442C1712.87 17.499 1711.79 18.7586 1710.47 18.7586C1709.14 18.7586 1708.07 17.499 1708.07 15.9442C1708.07 14.3893 1709.14 13.1297 1710.47 13.1297C1711.79 13.1297 1712.87 14.392 1712.87 15.9442Z" fill="#FCFCFC"/>
<path fill-rule="evenodd" clip-rule="evenodd" d="M1691.43 205.303C1691.43 206.858 1690.36 208.117 1689.03 208.117C1687.71 208.117 1686.63 206.858 1686.63 205.303C1686.63 203.748 1687.71 202.488 1689.03 202.488C1690.36 202.491 1691.43 203.751 1691.43 205.303Z" fill="#FCFCFC"/>
<path fill-rule="evenodd" clip-rule="evenodd" d="M1808.97 228.688C1808.97 230.243 1807.9 231.503 1806.58 231.503C1805.25 231.503 1804.18 230.243 1804.18 228.688C1804.18 227.133 1805.25 225.874 1806.58 225.874C1807.9 225.874 1808.97 227.133 1808.97 228.688Z" fill="#FCFCFC"/>
<path fill-rule="evenodd" clip-rule="evenodd" d="M682.636 112.773C682.636 114.328 681.563 115.587 680.238 115.587C678.914 115.587 677.841 114.328 677.841 112.773C677.841 111.218 678.914 109.959 680.238 109.959C681.563 109.959 682.636 111.221 682.636 112.773Z" fill="#FCFCFC"/>
<path fill-rule="evenodd" clip-rule="evenodd" d="M37.8281 304.448C37.8281 306.003 36.7551 307.263 35.4306 307.263C34.1061 307.263 33.0331 306.003 33.0331 304.448C33.0331 302.893 34.1061 301.634 35.4306 301.634C36.7551 301.634 37.8281 302.893 37.8281 304.448Z" fill="#FCFCFC"/>
<path fill-rule="evenodd" clip-rule="evenodd" d="M75.316 158.243C75.316 159.798 74.243 161.057 72.9185 161.057C71.594 161.057 70.521 159.798 70.521 158.243C70.521 156.688 71.594 155.429 72.9185 155.429C74.243 155.429 75.316 156.688 75.316 158.243Z" fill="#FCFCFC"/>
<path fill-rule="evenodd" clip-rule="evenodd" d="M148.93 161.217C148.93 162.772 147.857 164.032 146.532 164.032C145.208 164.032 144.135 162.772 144.135 161.217C144.135 159.662 145.208 158.403 146.532 158.403C147.857 158.403 148.93 159.662 148.93 161.217Z" fill="#FCFCFC"/>
<path fill-rule="evenodd" clip-rule="evenodd" d="M320.495 339.351C320.495 340.906 319.422 342.165 318.097 342.165C316.773 342.165 315.7 340.906 315.7 339.351C315.7 337.796 316.773 336.537 318.097 336.537C319.419 336.539 320.495 337.799 320.495 339.351Z" fill="#FCFCFC"/>
<path fill-rule="evenodd" clip-rule="evenodd" d="M314.744 124.941C314.744 126.496 313.671 127.755 312.346 127.755C311.022 127.755 309.949 126.496 309.949 124.941C309.949 123.386 311.022 122.126 312.346 122.126C313.671 122.126 314.744 123.389 314.744 124.941Z" fill="#FCFCFC"/>
<path fill-rule="evenodd" clip-rule="evenodd" d="M110.226 224.17C110.226 225.725 109.153 226.984 107.828 226.984C106.504 226.984 105.431 225.725 105.431 224.17C105.431 222.615 106.504 221.355 107.828 221.355C109.153 221.355 110.226 222.615 110.226 224.17Z" fill="#FCFCFC"/>
<path fill-rule="evenodd" clip-rule="evenodd" d="M772.582 28.5805C772.582 30.1354 771.509 31.395 770.185 31.395C768.86 31.395 767.787 30.1354 767.787 28.5805C767.787 27.0257 768.86 25.7661 770.185 25.7661C771.509 25.7661 772.582 27.0257 772.582 28.5805Z" fill="#FCFCFC"/>
<path fill-rule="evenodd" clip-rule="evenodd" d="M1017.77 124.166C1017.77 125.721 1016.69 126.981 1015.37 126.981C1014.04 126.981 1012.97 125.721 1012.97 124.166C1012.97 122.611 1014.04 121.352 1015.37 121.352C1016.69 121.352 1017.77 122.611 1017.77 124.166Z" fill="#FCFCFC"/>
<path fill-rule="evenodd" clip-rule="evenodd" d="M282.344 106.6C282.344 108.154 281.271 109.414 279.947 109.414C278.622 109.414 277.549 108.154 277.549 106.6C277.549 105.045 278.622 103.785 279.947 103.785C281.269 103.782 282.344 105.045 282.344 106.6Z" fill="#FCFCFC"/>
<path fill-rule="evenodd" clip-rule="evenodd" d="M460.022 44.5004C460.022 46.0552 458.949 47.3148 457.624 47.3148C456.3 47.3148 455.227 46.0552 455.227 44.5004C455.227 42.9455 456.3 41.6859 457.624 41.6859C458.949 41.6859 460.022 42.9455 460.022 44.5004Z" fill="#FCFCFC"/>
<path fill-rule="evenodd" clip-rule="evenodd" d="M950.638 152.709C950.638 154.264 949.565 155.523 948.241 155.523C946.916 155.523 945.843 154.264 945.843 152.709C945.843 151.154 946.916 149.894 948.241 149.894C949.565 149.894 950.638 151.154 950.638 152.709Z" fill="#FCFCFC"/>
<path fill-rule="evenodd" clip-rule="evenodd" d="M752.865 28.4668C752.865 30.0216 751.792 31.2812 750.467 31.2812C749.143 31.2812 748.07 30.0216 748.07 28.4668C748.07 26.9119 749.143 25.6523 750.467 25.6523C751.792 25.6523 752.865 26.9119 752.865 28.4668Z" fill="#FCFCFC"/>
<path fill-rule="evenodd" clip-rule="evenodd" d="M262.8 36.3683C262.8 37.9232 261.727 39.1828 260.403 39.1828C259.078 39.1828 258.005 37.9232 258.005 36.3683C258.005 34.8135 259.078 33.5539 260.403 33.5539C261.727 33.5539 262.8 34.8135 262.8 36.3683Z" fill="#FCFCFC"/>
<path fill-rule="evenodd" clip-rule="evenodd" d="M507.983 131.954C507.983 133.509 506.911 134.768 505.586 134.768C504.261 134.768 503.189 133.509 503.189 131.954C503.189 130.399 504.261 129.139 505.586 129.139C506.911 129.139 507.983 130.399 507.983 131.954Z" fill="#FCFCFC"/>
<path fill-rule="evenodd" clip-rule="evenodd" d="M937.181 117.159C937.181 118.713 936.108 119.973 934.783 119.973C933.459 119.973 932.386 118.713 932.386 117.159C932.386 115.604 933.459 114.344 934.783 114.344C936.108 114.344 937.181 115.606 937.181 117.159Z" fill="#FCFCFC"/>
<path fill-rule="evenodd" clip-rule="evenodd" d="M555.67 23.239C555.67 24.7938 554.597 26.0534 553.273 26.0534C551.948 26.0534 550.875 24.7938 550.875 23.239C550.875 21.6841 551.948 20.4245 553.273 20.4245C554.597 20.4245 555.67 21.6841 555.67 23.239Z" fill="#FCFCFC"/>
<path fill-rule="evenodd" clip-rule="evenodd" d="M241.366 225.727C241.366 227.282 240.293 228.542 238.968 228.542C237.644 228.542 236.571 227.282 236.571 225.727C236.571 224.173 237.644 222.913 238.968 222.913C240.293 222.913 241.366 224.173 241.366 225.727Z" fill="#FCFCFC"/>
<path fill-rule="evenodd" clip-rule="evenodd" d="M358.908 249.113C358.908 250.667 357.835 251.927 356.51 251.927C355.186 251.927 354.113 250.667 354.113 249.113C354.113 247.558 355.186 246.298 356.51 246.298C357.835 246.298 358.908 247.558 358.908 249.113Z" fill="#FCFCFC"/>
<path fill-rule="evenodd" clip-rule="evenodd" d="M1187.85 101.664C1187.85 103.219 1186.77 104.478 1185.45 104.478C1184.12 104.478 1183.05 103.219 1183.05 101.664C1183.05 100.109 1184.12 98.8496 1185.45 98.8496C1186.77 98.8496 1187.85 100.109 1187.85 101.664Z" fill="#FCFCFC"/>
<path fill-rule="evenodd" clip-rule="evenodd" d="M1235.81 189.118C1235.81 190.673 1234.74 191.932 1233.41 191.932C1232.09 191.932 1231.01 190.673 1231.01 189.118C1231.01 187.563 1232.09 186.303 1233.41 186.303C1234.74 186.303 1235.81 187.563 1235.81 189.118Z" fill="#FCFCFC"/>
<path fill-rule="evenodd" clip-rule="evenodd" d="M674.389 142.136C674.389 143.691 673.316 144.951 671.992 144.951C670.667 144.951 669.594 143.691 669.594 142.136C669.594 140.581 670.667 139.322 671.992 139.322C673.316 139.322 674.389 140.581 674.389 142.136Z" fill="#FCFCFC"/>
<path fill-rule="evenodd" clip-rule="evenodd" d="M765.776 252.777C765.776 254.332 764.703 255.592 763.378 255.592C762.054 255.592 760.981 254.332 760.981 252.777C760.981 251.223 762.054 249.963 763.378 249.963C764.703 249.963 765.776 251.223 765.776 252.777Z" fill="#FCFCFC"/>
<path fill-rule="evenodd" clip-rule="evenodd" d="M928.754 280.085C928.754 281.64 927.681 282.899 926.357 282.899C925.032 282.899 923.959 281.64 923.959 280.085C923.959 278.53 925.032 277.271 926.357 277.271C927.679 277.271 928.754 278.53 928.754 280.085Z" fill="#FCFCFC"/>
<path fill-rule="evenodd" clip-rule="evenodd" d="M697.725 162.065C697.725 163.62 696.652 164.88 695.327 164.88C694.003 164.88 692.93 163.62 692.93 162.065C692.93 160.51 694.003 159.251 695.327 159.251C696.652 159.251 697.725 160.51 697.725 162.065Z" fill="#FCFCFC"/>
<path fill-rule="evenodd" clip-rule="evenodd" d="M966.24 133.88C966.24 135.435 965.167 136.694 963.842 136.694C962.518 136.694 961.445 135.435 961.445 133.88C961.445 132.325 962.518 131.066 963.842 131.066C965.164 131.063 966.24 132.325 966.24 133.88Z" fill="#FCFCFC"/>
<path fill-rule="evenodd" clip-rule="evenodd" d="M1039.85 136.854C1039.85 138.409 1038.78 139.669 1037.46 139.669C1036.13 139.669 1035.06 138.409 1035.06 136.854C1035.06 135.299 1036.13 134.04 1037.46 134.04C1038.78 134.04 1039.85 135.299 1039.85 136.854Z" fill="#FCFCFC"/>
<path fill-rule="evenodd" clip-rule="evenodd" d="M1211.42 314.988C1211.42 316.543 1210.35 317.802 1209.02 317.802C1207.7 317.802 1206.62 316.543 1206.62 314.988C1206.62 313.433 1207.7 312.174 1209.02 312.174C1210.35 312.174 1211.42 313.433 1211.42 314.988Z" fill="#FCFCFC"/>
<path fill-rule="evenodd" clip-rule="evenodd" d="M1205.67 100.578C1205.67 102.133 1204.59 103.392 1203.27 103.392C1201.95 103.392 1200.87 102.133 1200.87 100.578C1200.87 99.0229 1201.95 97.7633 1203.27 97.7633C1204.59 97.7633 1205.67 99.0229 1205.67 100.578Z" fill="#FCFCFC"/>
<path fill-rule="evenodd" clip-rule="evenodd" d="M1001.15 199.807C1001.15 201.362 1000.08 202.621 998.752 202.621C997.428 202.621 996.355 201.362 996.355 199.807C996.355 198.252 997.428 196.992 998.752 196.992C1000.08 196.992 1001.15 198.252 1001.15 199.807Z" fill="#FCFCFC"/>
<path fill-rule="evenodd" clip-rule="evenodd" d="M1173.27 82.2338C1173.27 83.7887 1172.19 85.0483 1170.87 85.0483C1169.55 85.0483 1168.47 83.7887 1168.47 82.2338C1168.47 80.679 1169.55 79.4194 1170.87 79.4194C1172.19 79.4194 1173.27 80.679 1173.27 82.2338Z" fill="#FCFCFC"/>
<path fill-rule="evenodd" clip-rule="evenodd" d="M1350.95 20.1347C1350.95 21.6896 1349.87 22.9491 1348.55 22.9491C1347.22 22.9491 1346.15 21.6896 1346.15 20.1347C1346.15 18.5798 1347.22 17.3203 1348.55 17.3203C1349.87 17.3203 1350.95 18.5798 1350.95 20.1347Z" fill="#FCFCFC"/>
<path fill-rule="evenodd" clip-rule="evenodd" d="M838.297 84.16C838.297 85.7148 837.224 86.9744 835.9 86.9744C834.575 86.9744 833.502 85.7148 833.502 84.16C833.502 82.6051 834.575 81.3455 835.9 81.3455C837.224 81.3455 838.297 82.6051 838.297 84.16Z" fill="#FCFCFC"/>
<path fill-rule="evenodd" clip-rule="evenodd" d="M883.569 45.5377C883.569 47.0925 882.496 48.3521 881.171 48.3521C879.847 48.3521 878.774 47.0925 878.774 45.5377C878.774 43.9828 879.847 42.7232 881.171 42.7232C882.496 42.7259 883.569 43.9855 883.569 45.5377Z" fill="#FCFCFC"/>
<path fill-rule="evenodd" clip-rule="evenodd" d="M1153.73 12.0053C1153.73 13.5602 1152.65 14.8198 1151.33 14.8198C1150 14.8198 1148.93 13.5602 1148.93 12.0053C1148.93 10.4505 1150 9.19086 1151.33 9.19086C1152.65 9.19086 1153.73 10.4505 1153.73 12.0053Z" fill="#FCFCFC"/>
<path fill-rule="evenodd" clip-rule="evenodd" d="M1398.91 107.588C1398.91 109.143 1397.83 110.403 1396.51 110.403C1395.19 110.403 1394.11 109.143 1394.11 107.588C1394.11 106.033 1395.19 104.774 1396.51 104.774C1397.83 104.776 1398.91 106.036 1398.91 107.588Z" fill="#FCFCFC"/>
<path fill-rule="evenodd" clip-rule="evenodd" d="M1132.29 201.364C1132.29 202.919 1131.22 204.179 1129.89 204.179C1128.57 204.179 1127.49 202.919 1127.49 201.364C1127.49 199.809 1128.57 198.55 1129.89 198.55C1131.22 198.55 1132.29 199.809 1132.29 201.364Z" fill="#FCFCFC"/>
<path fill-rule="evenodd" clip-rule="evenodd" d="M1249.83 224.75C1249.83 226.304 1248.76 227.564 1247.43 227.564C1246.11 227.564 1245.04 226.304 1245.04 224.75C1245.04 223.195 1246.11 221.935 1247.43 221.935C1248.76 221.935 1249.83 223.195 1249.83 224.75Z" fill="#FCFCFC"/>
<path fill-rule="evenodd" clip-rule="evenodd" d="M-179.094 644.519C-179.094 644.519 439.187 681.513 676.105 698.752C843.348 710.92 1090.09 737.244 1090.09 737.244C1090.09 737.244 1177.52 719.236 1213.82 723.373C1423.83 747.308 1773.33 722.433 1773.33 722.433L1590.87 733.698C1590.87 733.698 871.22 737.374 439.939 745.181C439.939 745.181 821.872 765.299 996.007 762.198L1194.96 765.987L-179.094 772.253V644.519Z" fill="url(#paint1_radial_17_1391)" style="mix-blend-mode:overlay"/>
<g opacity="0.5">
<path fill-rule="evenodd" clip-rule="evenodd" d="M439.94 745.181L144.229 739.17C144.229 739.17 862.856 723.581 1080.43 737.328L439.94 745.181Z" fill="url(#paint2_linear_17_1391)" style="mix-blend-mode:overlay"/>
</g>
<g opacity="0.5">
<path fill-rule="evenodd" clip-rule="evenodd" d="M288.959 770.118C288.959 770.118 934.771 754.545 1194.96 765.987L288.959 770.118Z" fill="url(#paint3_linear_17_1391)" style="mix-blend-mode:overlay"/>
</g>
<path fill-rule="evenodd" clip-rule="evenodd" d="M2139 583.484L-179.094 614.422L691.914 618.1L545 623.588L348.581 630.461L2142.23 628.933L2139 583.484Z" fill="url(#paint4_radial_17_1391)" style="mix-blend-mode:overlay"/>
</g>
</g>
<defs>
<filter id="filter0_d_17_1391" x="-70" y="0" width="2059.11" height="1091.52" filterUnits="userSpaceOnUse" color-interpolation-filters="sRGB">
<feFlood flood-opacity="0" result="BackgroundImageFix"/>
<feColorMatrix in="SourceAlpha" type="matrix" values="0 0 0 0 0 0 0 0 0 0 0 0 0 0 0 0 0 0 127 0" result="hardAlpha"/>
<feOffset dy="4"/>
<feGaussianBlur stdDeviation="2"/>
<feComposite in2="hardAlpha" operator="out"/>
<feColorMatrix type="matrix" values="0 0 0 0 0 0 0 0 0 0 0 0 0 0 0 0 0 0 0.25 0"/>
<feBlend mode="normal" in2="BackgroundImageFix" result="effect1_dropShadow_17_1391"/>
<feBlend mode="normal" in="SourceGraphic" in2="effect1_dropShadow_17_1391" result="shape"/>
</filter>
<linearGradient id="paint0_linear_17_1391" x1="984.346" y1="608.593" x2="984.346" y2="11.8301" gradientUnits="userSpaceOnUse">
<stop stop-color="#FFE5E2"/>
<stop offset="0.343005" stop-color="#FFF5F2"/>
<stop offset="0.582589" stop-color="white"/>
<stop offset="1" stop-color="#F3F7FF"/>
</linearGradient>
<radialGradient id="paint1_radial_17_1391" cx="0" cy="0" r="1" gradientUnits="userSpaceOnUse" gradientTransform="translate(797.12 708.387) scale(691.358 811.595)">
<stop stop-color="#D83D31"/>
<stop offset="0.2537" stop-color="#D53A32"/>
<stop offset="0.47" stop-color="#CA3235"/>
<stop offset="0.6727" stop-color="#B9243B"/>
<stop offset="0.8658" stop-color="#A01142"/>
<stop offset="1" stop-color="#8A0049"/>
</radialGradient>
<linearGradient id="paint2_linear_17_1391" x1="144.228" y1="738.422" x2="1080.43" y2="738.422" gradientUnits="userSpaceOnUse">
<stop stop-color="#FD3D2A"/>
<stop offset="0.0765" stop-color="#E4392A"/>
<stop offset="0.2289" stop-color="#B83129"/>
<stop offset="0.3832" stop-color="#942B28"/>
<stop offset="0.5375" stop-color="#782628"/>
<stop offset="0.6916" stop-color="#642327"/>
<stop offset="0.8457" stop-color="#582127"/>
<stop offset="1" stop-color="#542027"/>
</linearGradient>
<linearGradient id="paint3_linear_17_1391" x1="288.959" y1="765.954" x2="1194.96" y2="765.954" gradientUnits="userSpaceOnUse">
<stop stop-color="#FD3D2A"/>
<stop offset="0.0765" stop-color="#E4392A"/>
<stop offset="0.2289" stop-color="#B83129"/>
<stop offset="0.3832" stop-color="#942B28"/>
<stop offset="0.5375" stop-color="#782628"/>
<stop offset="0.6916" stop-color="#642327"/>
<stop offset="0.8457" stop-color="#582127"/>
<stop offset="1" stop-color="#542027"/>
</linearGradient>
<radialGradient id="paint4_radial_17_1391" cx="0" cy="0" r="1" gradientUnits="userSpaceOnUse" gradientTransform="translate(981.568 606.973) scale(820.834 963.588)">
<stop stop-color="#D83D31"/>
<stop offset="0.2537" stop-color="#D53A32"/>
<stop offset="0.47" stop-color="#CA3235"/>
<stop offset="0.6727" stop-color="#B9243B"/>
<stop offset="0.8658" stop-color="#A01142"/>
<stop offset="1" stop-color="#8A0049"/>
</radialGradient>
</defs>
</svg>
