<svg width="1920" height="1080" viewBox="0 0 1920 1080" fill="none" xmlns="http://www.w3.org/2000/svg">
<mask id="mask0_44_2006" style="mask-type:luminance" maskUnits="userSpaceOnUse" x="-347" y="-589" width="2614" height="1846">
<path d="M2266.11 -588.13H-347V1256.09H2266.11V-588.13Z" fill="white"/>
</mask>
<g mask="url(#mask0_44_2006)">
<path opacity="0.15" fill-rule="evenodd" clip-rule="evenodd" d="M1244.84 975.052C1244.84 975.052 1175.74 984.296 1175.74 991.244C1175.74 998.192 1375.54 996.647 1375.54 991.244C1375.54 985.84 1328.97 981.207 1328.97 981.207C1328.97 981.207 1339.11 983.138 1335.35 988.155C1331.59 993.175 1228.31 997.463 1244.84 975.052Z" fill="#4685E4"/>
<path opacity="0.15" fill-rule="evenodd" clip-rule="evenodd" d="M1940.27 964.627C1940.27 964.627 1783.74 973.872 1783.74 980.82C1783.74 987.768 2236.32 986.223 2236.32 980.82C2236.32 975.416 2130.83 970.782 2130.83 970.782C2130.83 970.782 2153.8 972.714 2145.29 977.731C2136.79 982.752 1902.84 987.044 1940.27 964.627Z" fill="#4685E4"/>
<path opacity="0.15" fill-rule="evenodd" clip-rule="evenodd" d="M1759.36 992.913C1759.36 992.913 1704.67 997.533 1704.67 1001.01C1704.67 1004.49 1862.8 1003.71 1862.8 1001.01C1862.8 998.308 1825.95 995.988 1825.95 995.988C1825.95 995.988 1833.97 996.957 1831 999.465C1828.03 1001.98 1746.28 1004.12 1759.36 992.913Z" fill="#4685E4"/>
<path opacity="0.15" fill-rule="evenodd" clip-rule="evenodd" d="M-23.5596 1000.25C-23.5596 1000.25 97.1201 1022.13 131.674 1019.82C166.225 1017.5 135.431 1010.12 135.431 1010.12C135.431 1010.12 375.791 1007.8 381.8 1019.99C387.806 1032.17 90.8614 1040.92 -23.5596 1000.25Z" fill="#4685E4"/>
<path fill-rule="evenodd" clip-rule="evenodd" d="M449.118 1030.44C446.866 1048.77 614.365 1065.83 647.416 1051.36C680.465 1036.89 689.481 1043.62 689.481 1043.62C689.481 1043.62 635.398 1084.43 895.29 1081.19C1155.18 1077.95 1165.69 1051.37 1165.69 1051.37L1353.48 1044.46L1085.32 1041.21C1085.32 1041.21 1126.64 1043.59 1089.83 1055.91C1053.03 1068.22 769.851 1096.32 778.114 1063.9C786.378 1031.49 915.571 1036.89 915.571 1036.89L560.288 1030.45C560.288 1030.45 627.067 1029 627.138 1042.3C627.211 1055.6 473.345 1040.41 460.201 1036.09C447.052 1031.75 449.118 1030.44 449.118 1030.44Z" fill="url(#paint0_linear_44_2006)" fill-opacity="0.3" style="mix-blend-mode:multiply"/>
<path opacity="0.6" fill-rule="evenodd" clip-rule="evenodd" d="M926.712 1086.19C926.712 1089.79 909 1092.7 887.152 1092.7C865.303 1092.7 847.591 1089.79 847.591 1086.19C847.591 1082.59 865.303 1079.67 887.152 1079.67C909 1079.67 926.712 1082.59 926.712 1086.19Z" fill="#7AE7F8"/>
<path fill-rule="evenodd" clip-rule="evenodd" d="M-234.514 1081.91C-232.218 1036.53 -35.4987 853.406 60.9016 835.157C157.302 816.909 197.859 901.259 198.505 916.561C199.152 931.868 181.805 949.559 181.805 949.559C181.805 949.559 242.549 928.396 290.561 936.138C338.573 943.879 327.158 1081.91 327.158 1081.91H-234.514V1081.91Z" fill="url(#paint1_linear_44_2006)"/>
<path opacity="0.6" fill-rule="evenodd" clip-rule="evenodd" d="M174.176 872.092C174.176 872.092 190.894 890.913 189.43 916.561C187.963 942.209 153.092 962.579 62.9211 992.003C-27.2528 1021.43 -161.861 987.955 -161.861 987.955L-168.743 992.003C-168.743 992.003 -5.71616 1016.88 31.9685 1024.48C69.6532 1032.08 117.653 1081.91 117.653 1081.91H247.305C247.305 1081.91 140.084 1071.4 130.665 1041.91C121.246 1012.41 181.808 949.559 181.808 949.559C181.808 949.559 198.611 931.292 198.508 916.561C198.402 901.83 174.176 872.092 174.176 872.092Z" fill="#6B8EC1"/>
<path fill-rule="evenodd" clip-rule="evenodd" d="M2102.06 1091.89L1810.48 1085.87C1810.48 1085.87 1765.17 939.587 1765.37 883.767C1765.37 880.733 1765.52 877.981 1765.82 875.495C1769.42 845.633 1888.15 894.011 1984.06 961.823C2041.46 1002.39 2090.64 1049.94 2102.06 1091.89Z" fill="url(#paint2_linear_44_2006)"/>
<path fill-rule="evenodd" clip-rule="evenodd" d="M1765.37 1085.87H1510.77C1510.77 1085.87 1574.43 1011.99 1632.22 1001.28C1640.35 999.814 1648.38 999.537 1656.08 1000.92C1691.83 1007.3 1722.42 1034.14 1742.08 1056C1756.79 1072.32 1765.37 1085.87 1765.37 1085.87Z" fill="url(#paint3_linear_44_2006)"/>
<path opacity="0.6" fill-rule="evenodd" clip-rule="evenodd" d="M1561.37 1066.57C1562.9 1077 1572.44 1082.97 1586.33 1085.86H1510.77C1510.77 1085.86 1574.43 1011.99 1632.22 1001.28H1632.4C1632.4 1001.28 1554.48 1019.85 1561.37 1066.57Z" fill="#6B8EC1"/>
<path opacity="0.6" fill-rule="evenodd" clip-rule="evenodd" d="M1765.37 1085.86H1642.41C1688.51 1080.21 1737.54 1064.82 1740.14 1057.84C1740.54 1056.74 1741.22 1056.14 1742.07 1056C1756.79 1072.31 1765.37 1085.86 1765.37 1085.86Z" fill="#6B8EC1"/>
<path opacity="0.6" fill-rule="evenodd" clip-rule="evenodd" d="M2102.06 1091.89L1810.48 1085.87C1810.48 1085.87 1765.17 939.586 1765.37 883.767L1765.82 875.495C1765.82 875.495 1775.83 1044.75 1854.81 1066.57C1933.79 1088.39 2015.97 1046.95 2025.93 1024.85C2030.51 1014.66 2008.82 987.822 1984.06 961.819C2041.46 1002.39 2090.64 1049.94 2102.06 1091.89Z" fill="#6B8EC1"/>
<path opacity="0.6" fill-rule="evenodd" clip-rule="evenodd" d="M1791.49 1019.53C1791.49 1019.53 1903 950.209 1979.08 958.337L1993.86 968.882C1993.86 968.882 1892.67 936.848 1795.49 1034.22L1791.49 1019.53Z" fill="#6B8EC1"/>
<path opacity="0.6" fill-rule="evenodd" clip-rule="evenodd" d="M1603.01 1011.93C1603.01 1011.93 1692.95 1016.86 1752.49 1068.26L1745.92 1060.36C1745.92 1060.36 1672.85 1002.82 1608.48 1009.46L1603.01 1011.93Z" fill="#6B8EC1"/>
<path opacity="0.6" fill-rule="evenodd" clip-rule="evenodd" d="M1.22227 859.063C1.22227 859.063 137.024 866.805 164.164 969.749L158.419 977.006C158.419 977.006 131.95 883.467 -2.72876 859.063H1.22227Z" fill="#6B8EC1"/>
<path opacity="0.6" fill-rule="evenodd" clip-rule="evenodd" d="M132.329 1021.1C132.329 1021.1 241.02 988.393 327.155 1081.91V1070.04C327.155 1070.04 253.226 986.12 134.372 1015.79L132.329 1021.1Z" fill="#6B8EC1"/>
</g>
<defs>
<linearGradient id="paint0_linear_44_2006" x1="894.188" y1="881.451" x2="923.478" y2="1145.25" gradientUnits="userSpaceOnUse">
<stop stop-color="#00554B" stop-opacity="0"/>
<stop offset="0.9944" stop-color="#70BBB1"/>
</linearGradient>
<linearGradient id="paint1_linear_44_2006" x1="46.914" y1="1081.92" x2="46.914" y2="832.587" gradientUnits="userSpaceOnUse">
<stop stop-color="#BED3DF"/>
<stop offset="0.4001" stop-color="#BCBEC2"/>
<stop offset="0.7505" stop-color="#BBB1B0"/>
<stop offset="1" stop-color="#BBACA9"/>
</linearGradient>
<linearGradient id="paint2_linear_44_2006" x1="1933.72" y1="1091.88" x2="1933.72" y2="866.484" gradientUnits="userSpaceOnUse">
<stop stop-color="#D3D3DF"/>
<stop offset="0.4001" stop-color="#C6BEC2"/>
<stop offset="0.7505" stop-color="#BEB1B0"/>
<stop offset="1" stop-color="#BBACA9"/>
</linearGradient>
<linearGradient id="paint3_linear_44_2006" x1="1638.07" y1="1085.87" x2="1638.07" y2="1000.02" gradientUnits="userSpaceOnUse">
<stop stop-color="#4ECFC8"/>
<stop offset="0.0777" stop-color="#5BCBC4"/>
<stop offset="0.363" stop-color="#84BEB9"/>
<stop offset="0.6217" stop-color="#A2B4B0"/>
<stop offset="0.8427" stop-color="#B4AEAB"/>
<stop offset="1" stop-color="#BBACA9"/>
</linearGradient>
</defs>
</svg>
