<svg xmlns="http://www.w3.org/2000/svg" width="1920" height="963" fill="none"><mask id="a" width="2052" height="1084" x="-66" y="0" maskUnits="userSpaceOnUse" style="mask-type:luminance"><path fill="#fff" d="M1985.11.391H-66V1083.91h2051.11V.391Z"/></mask><g fill-rule="evenodd" clip-rule="evenodd" mask="url(#a)"><path fill="url(#b)" d="M1811.97 1081.26H107.144s212.001-123.42 445.31-201.233c34.717-11.583 69.918-22.158 104.952-31.149 61.661-15.849 122.854-26.839 180.112-29.938 16.947-.923 34.527-1.319 52.71-1.208 40.539.198 83.85 2.769 128.882 7.431 93.62 9.648 193.21 26.662 291.69 50.974 38.74 9.562 78.46 21.562 115.82 32.706l.11.022c165.04 49.284 310.71 112.235 385.24 172.395Z"/><path fill="url(#c)" d="M1811.97 1081.26H107.144s212.001-123.42 445.31-201.233L608 860.283s406.5 18.195 612 27l106-7.256c165.04 49.281 411.44 141.073 485.97 201.233Z"/><g opacity=".6"><path fill="url(#d)" d="m978.626 902.446 2.222-1.175 19.012-24.721.81.187c.07.943.22 2.378.5 4.158v.016l-9.737 79.098 6.387-35.638 3.59-42.14-.16-.9.17.897v.016c1.57 8.454 6.14 22.199 19.25 24.081 8.7 2.26 21.34-4.534 32.22-12.306-4.64 6.737 2.71 16.031 5.15 23.689-.9 3.226-1.85 6.626-2.83 10.199-5.98.75-3.02.436-.02.089-.73 2.665-1.48 5.42-2.25 8.256l-.18.699c-.33 1.2-.65 2.406-.97 3.633l-.03.108c-.38 1.422-.76 2.863-1.15 4.323l-.12.45c-1.54 5.856-3.11 11.978-4.7 18.314v-.005l-2.24 9.036.01.008c-2.11 8.677-4.23 17.662-6.27 26.818v.002l-.06.282-.11.5c-2.17 9.79-4.24 19.75-6.15 29.69l-.14.67v.01c-.71 3.73-1.4 7.46-2.08 11.17 0 .02 0 .04-.01.05l-4.15 21.23c.17.42.35.79.52 1.19 0 .01 0 .02-.01.03-.28 1.94-.54 3.84-.8 5.75v.01h-.01l-1.06 8.51-.17 1.34c-.01.09-.01.17-.03.26l-.16 1.34.01-.01-.15 1.33c-.32 2.89-.6 5.73-.85 8.54-.46 5.09-.81 10.05-1.02 14.83-.06 1.13-.1 2.25-.14 3.35-.09 2.8-.14 5.54-.13 8.2 0 1.37.02 2.71.05 4.04.05 2.46.16 4.85.31 7.16.07 1.07.15 2.11.24 3.14.14 1.6.3 3.16.5 4.68.18 1.4.38 2.76.61 4.09a68.624 68.624 0 0 0 1.65 7.49l.12.45c.06.19.12.37.18.56 1.73 5.79 4.12 10.48 7.28 13.81.43.44.86.87 1.32 1.26.87.77 1.8 1.44 2.78 2.02 9.19 6.97 23.08 3.24 39.81-7.75 18.65-11.6 40.42-31.92 63.01-56.46 4.7-5.12 9.45-10.42 14.21-15.87 2.69-3.08 5.39-6.2 8.08-9.39l.01.01.5-.6c1.4-1.65 2.8-3.34 4.2-5.01 2.05-2.43 4.1-4.85 6.15-7.32 3.48-4.21 6.95-8.46 10.4-12.75l.52-.64c2.38-2.94 4.74-5.9 7.1-8.88.03-.07.09-.13.15-.2 6.24-7.89 12.4-15.84 18.45-23.76.97-1.28 1.95-2.54 2.91-3.81 2.04-2.69 4.07-5.37 6.08-8.04l.01-.01.02-.01c31.27-41.628 58.34-81.077 73.83-104.131l.45-.678-.45.678-3.92 18.043 10.7 41.634-6.19-40.388 13.17-40.066-.29.45.04-.09.25-.36s-1.37-.154-3.9-.428h-.02c-3.2-.341-8.24-.872-14.77-1.49v-.035c-.04 0-.09.016-.15.016-.04 0-.07-.016-.13-.016h-.02c-.06 0-.13 0-.21-.016-.65-.052-1.32-.119-2.02-.171l-.07.187c-2.06 0-4.14 0-6.24-.016-6.96-.016-14.09-.052-21.34-.087-2.34-.016-4.7-.035-7.08-.051-14.34-.103-29.17-.241-44.4-.412-.2 0-.41-.016-.63-.016h-.02c-12.64-.136-25.54-.325-38.67-.515h-.02c-9.4-.138-18.93-.29-28.55-.463h-.02l-8.18-.155h-.02c-8.03-.138-16.14-.273-24.31-.444h-.05c-9.96-.187-20-.376-30.09-.599.07-.086.13-.154.19-.205-.08.051-.17.135-.25.205-.48 0-.99-.016-1.48-.035-.52 0-1.04-.016-1.57-.016-1.33-.035-2.68-.068-4.01-.087-.32-.016-.65-.016-.97-.016-15.21-.325-30.5-.666-45.84-1.01-5.26-.138-10.54-.258-15.82-.393h-.04c-4.03-.084-8.05-.19-12.077-.29l6.272 1.506.009.003-20.698 16.589v-.009l-1.179.943v.011l-36.288 29.084 36.775-19.457 1.682-.878ZM1304.51 881.7l.02-.014-.47.707.06-.095.39-.598Zm-2.4 3.613 1.8-2.703c.03-.022.03-.044.05-.062l-2.21 3.331.36-.566Z"/><path fill="url(#e)" d="m631.153 879.424 7.396-15.248c-.45-.016-.898-.035-1.329-.051l-6.067 15.299Z"/><path fill="url(#f)" d="m654.39 864.724.45 3.868-.077-3.868h-.373Z"/><path fill="url(#g)" d="m880.34 871.74-.242.17 7.79 12.715 17.283 15.199-23.95-28.068c-.3.003-.581-.016-.881-.016Z"/><path fill="url(#h)" d="m904.459 877.133-20.055-5.291-1.797-.051 11.14 5.342h10.712Z"/><path fill="url(#i)" d="M849.314 870.832c-.055.016-.113 0-.168 0-.355 0-.711-.016-1.048-.035-9.624-.258-19.136-.547-28.537-.821a234.104 234.104 0 0 0-3.65-.119c-6.311-.187-12.546-.377-18.725-.547a260.45 260.45 0 0 0-3.782-.12c-.132-.016-.263-.016-.374-.016-.955-.035-1.911-.051-2.845-.087-9.606-.289-19.023-.582-28.256-.872-.355-.016-.692-.016-1.047-.035-4.027-.119-8.033-.257-11.983-.376-2.566-.087-5.093-.155-7.603-.239-1.348-.051-2.677-.087-3.988-.138-17.338-.547-33.874-1.078-49.376-1.593h-.168c5.448 3.971 11.104 7.582 16.741 10.456.281.155.561.309.842.428 8.632 4.467 16.852 7.035 23.368 5.957 4.082-.274 7.883-1.471 11.272-3.852 1.106 4.656 2.359 9.892 3.764 15.576l.6 2.448h.018c3.427 13.864 7.601 30.106 12.191 46.638v.005l-.012-.008.215.772.004.003c.843 3.028 1.703 6.073 2.564 9.118l4.045 13.844c.6 1.986 1.198 3.971 1.816 5.938-.004-.003-.009-.003-.014-.005l.33 1.07c.09.287.178.574.263.869l.224.737.019.016c4.026 12.992 8.182 25.276 12.301 35.766 0 0 0 .01.002.01l-.007-.01.335.84c.42 1.07.837 2.11 1.26 3.14l.247.61c.35.85.701 1.69 1.052 2.51.452 1.07.904 2.1 1.357 3.12 3.726 8.38 7.363 14.92 10.764 18.73.953 1.07 1.888 1.93 2.801 2.56.485.33.96.6 1.424.8.93.39 1.821.53 2.677.42.134-.02.258-.08.39-.11.291-.07.584-.12.867-.24.679-.3 1.327-.79 1.957-1.4.129-.12.261-.21.388-.35.074-.08.143-.18.217-.27.297-.34.593-.69.879-1.1 2.125-3.03 3.948-7.92 5.51-14.16l.03-.11c.785-3.15 1.502-6.63 2.158-10.4h.007l.145-.9c.282-1.63.552-3.3.822-5.04l.036-.26a409.7 409.7 0 0 0 1.966-16.053l.014-.116.005-.038c.055-.566.113-1.114.168-1.677v-.016c.263-2.652.506-5.358.729-8.113.206-2.514.402-5.063.584-7.636.157-2.211.298-4.445.43-6.688.02-.363.048-.721.069-1.087.011-.067.021-.108.021-.108v-.019l.186-3.066c.169-3.151.337-6.298.487-9.465.019-.17.019-.257.019-.257v-.035c.918-19.699 1.255-39.348 1.347-54.973h.04l-.04-.791c.007-.845.01-1.652.014-2.473.051-9.917 0-17.984-.051-23.022.019.051.037.119.056.19.337 1.335 1.479 3.987 3.182 7.137.037.087.076.171.131.258 3.501 6.896 9.53 16.328 17.134 18.449.336.087.673.155 1.029.19.3.051.618.068.973.068a8.353 8.353 0 0 0 1.198-.125c5.169-.618 11.854-5.025 18.125-10.264.056-.051.114-.086.15-.138a136.191 136.191 0 0 0 6.722-5.509s-.037-.139-.131-.377c6.798-6.452 11.909-12.341 11.909-12.341l-6.78-.377a6932.87 6932.87 0 0 1-24.005-.696Z"/><path fill="url(#j)" d="m1170.74 873.57-.52.017c.17 0 .32 0 .49.016.01-.014.01-.014.03-.033Z"/><path fill="url(#k)" d="M1210.5 873.947c-.15.087-.3.222-.51.36h.09c.17-.138.3-.238.42-.36Z"/></g><path fill="#fff" fill-opacity=".4" d="M1335.87 874.457 1388 882s-539.34-7.563-801-19.923l64.609-8.251-16.668 5.466s519.169 25.193 710.109 17.73l-9.18-2.565Z"/><path fill="#91001D" d="M890.228 817.732c-37.43 1.011-99.391 14.926-99.391 14.926s-43.141 19.408-93.904 26.487c-50.762 7.099-46.567 0-46.567 0l7.04-10.267c61.661-15.849 122.854-26.839 180.112-29.938 16.946-.923 34.527-1.319 52.71-1.208ZM1302.86 875.395l-16.01 3.749 5.73 16.006s-15.47 3.075-33.74 2.238c-18.26-.813-43.72-10.966-43.72-10.966s-51.21 1.672-83.49 0c-32.28-1.671-84.55 3.21-144.164-4.507l24.844-5.781 44.66-8.156s-22.08-33.28-37.86-42.818c93.62 9.651 185.27 25.923 283.75 50.235Z" opacity=".5"/><path fill="url(#l)" d="M1067.91 871.722s-79.654-246.905-32.28-273.977c61.19-34.968 269.21 276.756 269.21 276.756s-162.03 18.395-236.93-2.779Z"/><path fill="#FDCD9B" d="M1035.63 597.745c-38.826 28.551 69.67 260.032 94.26 277.067 24.6 17.039 172.01 4.302 174.94-.311 0 0-215.41-316.315-269.2-276.756Z"/><path fill="#CCB689" d="M1040.65 689.457s81.5 157.154 130.1 192.455l-40.86-1.189s-70.81-124.865-89.24-191.266Z" opacity=".69"/><path fill="#B69A7E" d="M1030.83 729.469s8.57-16.841 15.14-23.171c6.57-6.331 114.78-21.79 114.78-21.79l21.77 25.509s-79.47-6.114-101.68.777c-22.22 6.889-43.55 48.881-43.55 48.881l-6.46-30.206Z" opacity=".15"/><path fill="#B69A7E" d="M1028.75 718.636s8.92-18.225 15.94-21.524c7.01-3.299 80.44-8.627 107.96-21.711l-3.43-2.232s-21.61 9.817-58.52 13.753c-36.91 3.935-55.28-15.256-66.11 11.073l4.16 20.641Z" opacity=".15"/><path fill="#B88776" d="M1043.55 785.685s17.18-15.034 28.17-14.701c11 .333 116.08-5.564 145.49-17.624l2.49 4.749s-82.46 23.859-143.36 23.209c0 0-24.09 1.073-30.55 13.13l-2.24-8.763Z" opacity=".46"/><path fill="#C17A5F" d="m1126.6 790.541 70.92-18.371 31.92 61.36-46.92 10.402-55.92-53.391ZM1134.07 755.744l-4.18-6.891 9-15.578 10.33 22.469h-15.15ZM1059.21 660.023l-4.18-6.891 9-15.581 10.33 22.472h-15.15Z" opacity=".69"/><path fill="#C17A5F" d="m1057.74 673.172-17.1-16.838-5.01-29.691 11.06-19.138 24.29 58.353-13.24 7.314ZM1075.8 670.932l-11.11-30.594 6.29-6.815 17.64 32.335-12.82 5.074Z" opacity=".69"/><path fill="#C17A5F" d="m1116.8 678.727-11.1-30.593 6.29-6.815 17.64 32.335-12.83 5.073ZM1098.76 733.275l-41.8-115.189 6.29-6.816 58.31 106.887-22.8 15.118Z"/><path fill="#C17A5F" d="m1086.16 736.406-41.8-115.186 6.29-6.818 58.31 106.886-22.8 15.118Z"/><path fill="#C17A5F" d="m1120.7 675.038-11.1-30.593 6.29-6.818 17.64 32.338-12.83 5.073ZM1189.12 854.356l-11.1-30.594 6.28-6.818 17.65 32.338-12.83 5.074ZM1056.88 647.468l-11.1-30.593 6.29-6.818 17.64 32.337-12.83 5.074Z" opacity=".69"/><path fill="#898E9F" d="m1093.85 840.706-36.11-91.853-6.88 10.819 21.49 84.444 21.5-3.41ZM1075.79 861.986l-22.48-65.501-2.45 4.361 20.12 71.707 9.82 2.262-5.01-12.829ZM1024.59 639.983l18.96 75.489 7.31 33.359-10.21.022-16.06-64.348v-44.522Z"/><path fill="#FDAC5F" d="m1121.56 766.122-15.86-32.847h-11.85l19.33 40.632 8.38-1.737v-6.048ZM1150.97 857.907l-4.99-11.166 3.43-3.102 7.29 12.404-5.73 1.864ZM1189.61 718.636l-18.86 7.23 53.85 96.631h40.99s-62.56-84.696-75.98-103.861Z" opacity=".69"/><path fill="#A5443B" d="M1060.35 847.012s4.87-41.895 26.62-43.04c11.35-.599 124.02 77.94 124.02 77.94s-113.55-87.326-127.61-85.427c-14.07 1.901-20.31 32.562-21.2 37.045-.89 4.483-1.83 10.586-1.83 10.586v2.896Z"/><path fill="#862B3B" d="M1022.86 680.125s11.77 2.387 22.92 3.776c11.14 1.39 76.83 23.077 97.93 14.219 9.08-3.814-10.18-42.201-10.18-42.201l4.91 4.104s12.25 33.218 6.98 39.286c-5.27 6.068-99.06-12.959-104.78-12.466-5.71.493-16.36 4.385-16.36 4.385l-1.42-11.103Z"/><path fill="#CD703A" d="m1084.6 797.525 1.56 4.773s17.73 5.805 39.21 20.199c0 0-24.52-21.405-40.77-24.972Z"/><path fill="#FDCD9B" d="m1255.95 845.853-5.35-14.614 2.67-8.127 7.09 22.741h-4.41Z"/><path fill="url(#m)" d="M819.543 820.349s-11.459 4.551-28.592 8.11c-15.486 3.232-35.596 5.651-56.043 3.188 0 0 37.657-164.857 61.212-180.531 10.524-7.013 16.404 17.256 19.662 49.458v.021c5.072 50.249 3.761 119.754 3.761 119.754Z"/><path fill="#FDCD9B" d="M815.779 700.574v.021c-.56 29.215-24.36 125.973-24.828 127.864-15.486 3.232-35.596 5.651-56.043 3.188 0 0 37.657-164.857 61.212-180.531 10.522-7.013 16.401 17.256 19.659 49.458Z"/><path fill="#CCB689" d="M787.866 829.08s25.332-99.636 26.622-114.06c0 0-10.797 70.681-23.537 113.439l-3.085.621Z" opacity=".69"/><path fill="#B69A7E" d="M763.376 724.717s45.112-3.925 49.757-1.21c4.645 2.714 5.164 12.422 5.164 12.422v2.219s-1.95-9.579-5.496-11.662c-3.547-2.083-27.081 1.111-34.77 1.111-7.688 0-18.709 10.551-18.709 10.551l4.054-13.431Z" opacity=".15"/><path fill="#B88776" d="M765.996 716.382s40.685-20.145 49.599-17.582l.914 9.665s-26.354-.068-51.337 10.504l.824-2.587Z" opacity=".46"/><path fill="#B69A7E" d="M778.306 681.672s28.687-6.723 35.316 1.555l-1.001-6s-23.8-5.743-32.476 0l-1.839 4.445Z" opacity=".15"/><path fill="#B88776" d="M819.695 789.266s-15.245-.32-21.891 0c-6.645.319-53.453 3.7-53.453 3.7l-.605 2.37s49.808-4.919 55.484-5.022c5.677-.103 20.311 1.915 20.311 1.915l.154-2.963Z" opacity=".46"/><path fill="#898E9F" d="m801.176 800.624 11.389-56.921 3.944 3.194-5.483 45.332h1.775l2.979-21.316 2.517 1.135-2.517 49.666-20.216 5.732 5.612-26.822Z"/><path fill="#FDAC5F" d="m748.943 798.099 13.598-56.82 22.032-6.734-6.267 30.815 3.415-.555 2.107-21.102h7.012l-13.538 58.586-28.359-4.19ZM778.306 808.119l9.56-36.071h2.974l-9.119 34.586-3.415 1.485Z" opacity=".69"/><path fill="#C17A5F" d="m785.837 686.507-5.146 32.462h14.872l3.572-39.871-13.298 7.409Z"/><path fill="#C17A5F" d="m789.914 708.771 4.555-36.851 12.461-1.658-5.01 33.736-12.006 4.773ZM784.247 794.618l4.557-36.853 12.461-1.655-5.01 33.735-12.008 4.773ZM780.691 702.156h5.264l1.91-20.926-3.586 1.997-3.588 18.929Z"/><path fill="#C17A5F" d="m786.784 674.672-.406 22.868 9.186-1.317 3.572-29.014-12.352 7.463Z"/><path fill="#FDAC5F" d="m801.265 715.02 3.849-20.671.946 7.807-2.398 12.864h-2.397ZM801.265 758.559l2.397-5.832 3.268-1.379-2.834 4.997-2.831 2.214Z" opacity=".69"/><path fill="#862B3B" d="M756.756 746.992s55.989-31.195 57.731-31.057c1.742.138 3.127 7.569 3.127 7.569l.182 2.998s-3.38-6.327-6.415-6.471c-7.284-.347-54.84 27.708-54.84 27.708l.215-.747Z"/><path fill="url(#n)" d="M582.29 870.372s3.332-11.127 9.479-15.31c6.149-4.182 13.127 7.655 13.127 7.655l-22.606 7.655Z"/><path fill="url(#o)" d="M1343.44 885.171s1.89-15.69 10.88-19.577c8.98-3.887 24.69 29.564 24.69 29.564l-35.57-9.987Z"/><path fill="url(#p)" d="M1074.86 879.954s-35.06-32.465-54.19-29.797c-19.13 2.665-20.08 29.797-20.08 29.797s65.28 11.74 74.27 0Z"/><path fill="url(#q)" d="M1245.17 890.29s6.15-34.551 21.87-34.136c15.72.414 25.31 37.471 25.54 39.004.24 1.533-46.81 2.059-47.41-4.868Z"/><path fill="url(#r)" d="M754.581 841.196c-10.727-76.697-86.413-4.443-102.97 13.864-16.558 18.308 104.076-5.954 102.97-13.864Z"/><path fill="url(#s)" d="M819.616 814.764s8.203-21.915 20.502-25.247c12.299-3.331 39.973 27.633 39.973 27.633l-60.549 3.207.074-5.593Z"/><path fill="#FDCD9B" d="M1020.67 850.157c-11.99 3.009-1.86 28.916.26 31.755 2.13 2.842 38.85 5.112 53.93-1.958 0 0-35.83-34.408-54.19-29.797ZM1267.04 856.154c-16.71 4.879-10.15 31.769-8.1 35.472 2.04 3.7 33.03 1.07 32.72 0-.31-1.07-12.97-38.874-24.62-35.472Z"/><path fill="#FDAC5F" d="M1354.32 865.594c-5.66 3.002-.22 21.779 2.43 23.315 2.65 1.536 22.26 6.249 22.26 6.249s-16.06-34.144-24.69-29.564Z" opacity=".69"/><path fill="#FDCD9B" d="M728.717 806.71c17.95 2.858 13.245 34.67 12.299 37.406-.946 2.736-52.272 13.011-66.698 14.536-14.429 1.528-23.061-.658-22.706-3.592.353-2.931 51.679-52.397 77.105-48.35Z"/><path fill="#FDAC5F" d="M819.616 814.764s17.487 4.288 31.322 3.353c13.836-.937 17.385-13.303 17.385-13.303s-19.337-16.683-27.178-15.486c-10.136 1.547-20.564 21.459-21.529 25.436ZM582.29 870.372s9.747-3.526 13.293-6.235c3.549-2.706-.798-9.971-.798-9.971s-6.632-1.612-12.495 16.206ZM1273.8 867.585l6.96 17.586h6.39l-6.67-16.245-6.68-1.341ZM1274.82 890.29l-1.02-3.87-2.09.831v3.039h3.11ZM1366.97 883.418l-1.54-6.265v-3.633l5.89 11.651-4.35-1.753ZM1030.83 867.585l-1.79-2.616 4.61-2.915 14.45 12.761-17.27 2.858v-10.088ZM1024.59 872.049l-5.48-6.872v3.438l4.25 4.905 1.23-1.471Z" opacity=".69"/><path fill="#FDAC5F" d="m857.266 810.895-9.579-15.556 1.064-1.428 15.137 14.904-6.622 2.08ZM823.562 812.84l3.784-5.97h2.01l-1.774 5.97h-4.02ZM659.178 850.157l32.247-22.711 10.894 1.634-18.661 21.077h-24.48ZM700.51 836.234l6.032-8.788h5.498l-2.838 9.202-8.692-.414Z" opacity=".69"/><path fill="#BDAA11" d="m1304.83 874.501-13.17-38.852 6.19-39.164-10.7 40.372 3.92 17.499 13.76 20.145Z"/><path fill="#867A0F" d="m1343.44 885.171-11.24-34.399 9.58 34.399h1.66ZM1379.01 895.158l5.65-19.021 23.47-43.029-23.47 48.804-5.65 13.246ZM1000.59 879.954l-19.742-24.891-40.682-20.872 58.895 45.771 1.529-.008ZM1001.17 874.815l-9.738-76.716 6.387 34.556 3.581 40.865-.23 1.295Z"/><path fill="#BDAA11" d="m1062.2 884.651 12.43-18.64 1.76-29.555 1.15 30.016-15.34 18.179ZM1066.53 883.957l10.14-11.49 9.58-6.455-18.81 17.753-.91.192Z"/><path fill="#867A0F" d="m1188.86 865.172 3.56-25.989-9.9-92.202 4.95 95.854-1.17 20.424 2.56 1.913ZM1135.67 831.239l-24.01-47.096 19.97 44.501 4.04 2.595ZM754.582 841.196l10.589-34.326-6.653 28.459-3.936 5.867ZM753.333 834.191l3.648-11.772-3.147 14.229-.501-2.457Z"/><path fill="#BDAA11" d="m651.609 855.062-6.623-11.333-13.835-33.874 21.907 43.869-1.449 1.338ZM653.944 852.476l-1.594-11.28 2.483-20.839-.711 31.875-.178.244Z"/><path fill="#867A0F" d="m880.09 817.15 7.804-12.339 17.267-14.727-24.302 27.619-.769-.553ZM881.627 817.708l12.121-5.632h10.703l-21.938 5.627-.886.005Z"/><path fill="#FDA774" d="m766.775 846.318 3.831.761 1.829-.761-4.19-.997-1.47.997ZM775.118 845.322l4.502.471 1.064-1.271-4.093-.149-1.473.949ZM903.202 845.852l22.214 1.75-7.038 3.877-15.176-2.815v-2.812Z"/><path fill="#FD985E" d="m742.225 870.709 22.217 1.747-7.038 3.876-15.179-2.812v-2.811Z"/><path fill="#FDA774" d="m927.25 851.143 1.548-1.395 4.717-1.084 2.333 1.241-8.598 1.238ZM954.335 867.804l3.715 1.122 1.505-1.848-5.22.726ZM870.123 836.401h3.494l1.105 1.52-6.399-.761 1.8-.759ZM875.58 834.291l.646-.393 3.515-.271 1.407.664h-5.568ZM883.28 834.291l.792-.393 1.098.198-1.89.195Z"/><path fill="#FD985E" d="m852.492 885.092-4.442-.81-4.218 2.495h2.446l8.268-.715-2.054-.97ZM852.492 887.189l3.403-.412 3.037.412-1.687.921h-6.008l1.255-.921Z"/><path fill="#FDA774" d="M818.991 854.122h8.755l2.227-3.269-10.509.853-.473 2.416ZM980.834 833.292l-7.367 2.714 1.013-1.845 3.512-1.582 2.842.713Z"/><path fill="#8F4D5E" d="M806.06 874.758s3.666-4.998 7.095 0h-7.095ZM815.779 874.758s4.283-8.191 14.193-9.161c9.911-.973 17.007 9.161 17.007 9.161s-18.525 2.498-31.2 0ZM893.041 890.291s4.079-2.433 8.101-2.181c4.02.252 6.15 5.439 6.15 5.439s-8.635 1.723-14.251-3.258ZM1318.6 890.965s9.52-4.892 15.02 2.571c0 0-8.57 2.183-15.02-2.571ZM921.246 889.017s-2.366-10.729 8.752 0c0 0-3.311.932-8.752 0ZM907.855 817.963s6.768-7.761 22.142-8.108c15.375-.346 22.459 9.89 22.459 9.89l-44.601-1.782ZM956.308 819.97s6.211-3.421 7.688-2.256c1.479 1.164 1.482 2.844 1.482 2.844l-9.17-.588Z"/><path fill="#FDCD9B" d="M833.644 868.095s.711 5.022 5.321 5.425c0 0 .798-6.051-5.321-5.425ZM900.475 889.432s-.835 2.202.621 3.285c0 0 .799-1.628-.621-3.285ZM923.181 885.794s.399 1.679 1.906 2.297c1.507.617 2.084 0 2.084 0s-1.417-3.077-3.99-2.297ZM1035.63 597.745s25.88-19.625 103.93 64.909c78.05 84.533 148.6 187.503 148.6 187.503s-86.14-133.915-148.6-193.823c-55.97-53.68-81.79-68.216-103.93-58.589ZM746.127 786.064s36.676-130.586 52.295-134.335c15.619-3.749 19.374 74.776 19.374 74.776s-4.174-81.946-18.659-78.176c-15.753 4.099-41.514 89.302-53.01 137.735ZM651.61 855.062s44.95-46.152 71.431-47.428c20.707-.997 25.901 13.582 25.901 13.582s-5.856-17.989-28.739-15.386c-25.771 2.931-68.593 49.232-68.593 49.232ZM1262.5 857.075s8.44.138 16.84 10.51 13.25 27.573 13.25 27.573-12.28-47.989-30.09-38.083ZM1354.32 865.594s12.02 4.708 24.69 29.564c0 0-15.47-34.838-24.69-29.564ZM1017.57 850.853s27.39 3.901 48.26 21.4c0 0-33.3-29.727-48.26-21.4ZM828.9 798.099s5.254-9.126 15.711-8.015c10.458 1.11 33.752 25.192 33.752 25.192s-24.039-27.408-35.288-27.427c-7.569-.011-14.175 10.25-14.175 10.25Z"/></g><defs><linearGradient id="b" x1="959.556" x2="959.556" y1="1081.26" y2="817.714" gradientUnits="userSpaceOnUse"><stop stop-color="#2F869A"/><stop offset=".136" stop-color="#32869A"/><stop offset=".235" stop-color="#3B8899"/><stop offset=".321" stop-color="#4B8A97"/><stop offset=".401" stop-color="#618E94"/><stop offset=".476" stop-color="#7E9290"/><stop offset=".547" stop-color="#A2978C"/><stop offset=".615" stop-color="#CB9D87"/><stop offset=".651" stop-color="#E4A184"/><stop offset="1" stop-color="#FDE386"/></linearGradient><linearGradient id="c" x1="959.556" x2="959.556" y1="1081.26" y2="879.961" gradientUnits="userSpaceOnUse"><stop offset=".207" stop-color="#FFDAD4"/><stop offset=".601" stop-color="#EBDCE1"/><stop offset=".975" stop-color="#DF8B72"/></linearGradient><linearGradient id="d" x1="1122.5" x2="1122.5" y1="1170.16" y2="874.667" gradientUnits="userSpaceOnUse"><stop stop-color="#F2FFFF"/><stop offset="1" stop-color="#A7AAF4"/></linearGradient><linearGradient id="e" x1="634.851" x2="634.851" y1="879.425" y2="864.124" gradientUnits="userSpaceOnUse"><stop stop-color="#F2FFFF"/><stop offset="1" stop-color="#A7AAF4"/></linearGradient><linearGradient id="f" x1="654.615" x2="654.615" y1="868.592" y2="864.724" gradientUnits="userSpaceOnUse"><stop stop-color="#F2FFFF"/><stop offset="1" stop-color="#A7AAF4"/></linearGradient><linearGradient id="g" x1="892.633" x2="892.633" y1="899.826" y2="871.74" gradientUnits="userSpaceOnUse"><stop stop-color="#F2FFFF"/><stop offset="1" stop-color="#A7AAF4"/></linearGradient><linearGradient id="h" x1="893.533" x2="893.533" y1="877.131" y2="871.791" gradientUnits="userSpaceOnUse"><stop stop-color="#F2FFFF"/><stop offset="1" stop-color="#A7AAF4"/></linearGradient><linearGradient id="i" x1="783.928" x2="783.928" y1="1044.38" y2="865.836" gradientUnits="userSpaceOnUse"><stop stop-color="#F2FFFF"/><stop offset="1" stop-color="#A7AAF4"/></linearGradient><linearGradient id="j" x1="1170.48" x2="1170.48" y1="873.606" y2="873.572" gradientUnits="userSpaceOnUse"><stop stop-color="#F2FFFF"/><stop offset="1" stop-color="#A7AAF4"/></linearGradient><linearGradient id="k" x1="1210.24" x2="1210.24" y1="874.308" y2="873.948" gradientUnits="userSpaceOnUse"><stop stop-color="#F2FFFF"/><stop offset="1" stop-color="#A7AAF4"/></linearGradient><linearGradient id="l" x1="1162.71" x2="1162.71" y1="881.913" y2="595.009" gradientUnits="userSpaceOnUse"><stop offset=".053" stop-color="#DF6D70"/><stop offset=".528" stop-color="#A33D6B"/><stop offset="1" stop-color="#7E3360"/></linearGradient><linearGradient id="m" x1="777.301" x2="777.301" y1="832.656" y2="649.901" gradientUnits="userSpaceOnUse"><stop offset=".053" stop-color="#DF6D70"/><stop offset=".528" stop-color="#A33D6B"/><stop offset="1" stop-color="#7E3360"/></linearGradient><linearGradient id="n" x1="593.593" x2="593.593" y1="870.372" y2="854.166" gradientUnits="userSpaceOnUse"><stop offset=".053" stop-color="#DF6D70"/><stop offset=".528" stop-color="#A33D6B"/><stop offset="1" stop-color="#7E3360"/></linearGradient><linearGradient id="o" x1="1361.23" x2="1361.23" y1="895.159" y2="865.28" gradientUnits="userSpaceOnUse"><stop offset=".053" stop-color="#DF6D70"/><stop offset=".528" stop-color="#A33D6B"/><stop offset="1" stop-color="#7E3360"/></linearGradient><linearGradient id="p" x1="1037.73" x2="1037.73" y1="885.172" y2="850" gradientUnits="userSpaceOnUse"><stop offset=".053" stop-color="#DF6D70"/><stop offset=".528" stop-color="#A33D6B"/><stop offset="1" stop-color="#7E3360"/></linearGradient><linearGradient id="q" x1="1268.88" x2="1268.88" y1="896.122" y2="856.15" gradientUnits="userSpaceOnUse"><stop offset=".053" stop-color="#DF6D70"/><stop offset=".528" stop-color="#A33D6B"/><stop offset="1" stop-color="#7E3360"/></linearGradient><linearGradient id="r" x1="702.318" x2="702.318" y1="861.744" y2="806.635" gradientUnits="userSpaceOnUse"><stop offset=".053" stop-color="#DF6D70"/><stop offset=".528" stop-color="#A33D6B"/><stop offset="1" stop-color="#7E3360"/></linearGradient><linearGradient id="s" x1="849.816" x2="849.816" y1="820.358" y2="789.266" gradientUnits="userSpaceOnUse"><stop offset=".053" stop-color="#DF6D70"/><stop offset=".528" stop-color="#A33D6B"/><stop offset="1" stop-color="#7E3360"/></linearGradient></defs></svg>