<svg xmlns="http://www.w3.org/2000/svg" width="1920" height="1080" fill="none" xmlns:v="https://vecta.io/nano"><mask id="A" maskUnits="userSpaceOnUse" x="-66" y="0" width="2052" height="1084"><path d="M1985.11 0H-66V1083.52H1985.11V0Z" fill="#fff"/></mask><g mask="url(#A)"><path d="M2036.39 824.042H-69.237v294.848H2036.39V824.042z" fill="url(#B)"/><path opacity=".15" fill-rule="evenodd" d="M1990.76 824.043v24.788c-18.73 2.706-72.62 9.876-113.54 9.343-50.32-.629-66.02 1.73-61.31 27.429s-272.69 13.904-272.69 13.904 25.84 5.347 24.27 16.074c-1.46 9.939-59.42 1.384-67.45.157 5.82 1.07 36.81 7.173 36.81 15.885 0 9.657-203.6 7.517-235.06-8.021-31.45-15.54 24.37-30.512 21.23-31.582s-307.38 8.557-315.23-6.322c-7.852-14.847 95.11-15.099 95.11-15.099s-26.71 12.834-14.94 15.099c11.8 2.264 192.8-7.864 191.04-27.524-1.78-19.628-501.533-.439-505.481 11.355-3.763 11.293 41.635 11.512 45.354 11.512-6.535.095-136.541 1.918-136.541 14.438 0 12.867 97.286 15.289 95.392 17.678-1.918 2.421-230.988-6.417-235.123 0-4.11 6.417 30.064 1.603 31.267 4.813 1.176 3.208-278.303 8.839-281.236 1.604-2.956-7.203-124.998-8.021-138.552-6.417-11.57 1.352-2.979 7.991-.208 9.941-4.594-2.988-28.103-18.433-28.103-22.776 0-4.843 231.127 17.648 238.194-4.843 7.089-22.459-77.243-16.859-78.42-21.673s178.063-.786 156.749-21.297c-16.28-15.665-351.02 11.67-507.63 25.417v-53.883H1990.76z" fill="#4685e4"/><path opacity=".15" fill-rule="evenodd" d="M1990.76 824.043v16.811h-578.82c19.38-1.71 33.37-3.817 36.86-6.38 14.94-10.913-676.063 5.792-676.063 5.792l-551.065-7.821c-2.472 2.777 1.986 5.792 8.313 8.406H-65.34V824.04h2056.1v.003z" fill="#4685e4"/></g><defs><linearGradient id="B" x1="983.576" y1="1118.89" x2="983.576" y2="824.043" gradientUnits="userSpaceOnUse"><stop stop-color="#fccec7"/><stop offset=".673" stop-color="#ffe6e1"/><stop offset="1" stop-color="#bdc8de"/></linearGradient></defs></svg>