<svg xmlns="http://www.w3.org/2000/svg" xmlns:xlink="http://www.w3.org/1999/xlink" width="1920" height="963" fill="none" xmlns:v="https://vecta.io/nano"><style><![CDATA[.B{opacity:.69}.C{fill:#c17a5f}.D{fill:#fdcd9b}.E{fill:#fdac5f}.F{fill:#b69a7e}.G{fill:#b88776}.H{fill:#bdaa11}.I{fill:#867a0f}.J{fill:#fda774}]]></style><mask id="A" width="2052" height="1084" x="-66" y="0" maskUnits="userSpaceOnUse"><path fill="#fff" d="M1985.11.391H-66V1083.91h2051.11V.391Z"/></mask><g fill-rule="evenodd" mask="url(#A)"><path fill="url(#B)" d="M1811.97 1081.26H107.144s212.001-123.42 445.31-201.233c34.717-11.583 69.918-22.158 104.952-31.149 61.661-15.849 122.854-26.839 180.112-29.938 16.947-.923 34.527-1.319 52.71-1.208 40.539.198 83.85 2.769 128.882 7.431 93.62 9.648 193.21 26.662 291.69 50.974 38.74 9.562 78.46 21.562 115.82 32.706l.11.022c165.04 49.284 310.71 112.235 385.24 172.395Z"/><path fill="url(#C)" d="M1811.97 1081.26H107.144s212.001-123.42 445.31-201.233L608 860.283l612 27 106-7.256c165.04 49.281 411.44 141.073 485.97 201.233z"/><g opacity=".6"><path fill="url(#D)" d="M978.626 902.446l2.222-1.175 19.012-24.721.81.187.5 4.158v.016l-9.737 79.098 6.387-35.638 3.59-42.14-.16-.9.17.897v.016c1.57 8.454 6.14 22.199 19.25 24.081 8.7 2.26 21.34-4.534 32.22-12.306-4.64 6.737 2.71 16.031 5.15 23.689l-2.83 10.199c-5.98.75-3.02.436-.02.089l-2.25 8.256-.18.699-.97 3.633-.03.108-1.15 4.323-.12.45-4.7 18.314v-.005l-2.24 9.036.01.008-6.27 26.818v.002l-.06.282-.11.5-6.15 29.69-.14.67v.01l-2.08 11.17c0 .02 0 .04-.01.05l-4.15 21.23c.17.42.35.79.52 1.19 0 .01 0 .02-.01.03l-.8 5.75v.01h-.01l-1.06 8.51-.17 1.34c-.01.09-.01.17-.03.26l-.16 1.34.01-.01-.15 1.33-.85 8.54c-.46 5.09-.81 10.05-1.02 14.83l-.14 3.35c-.09 2.8-.14 5.54-.13 8.2l.05 4.04a160.9 160.9 0 0 0 .31 7.16l.24 3.14c.14 1.6.3 3.16.5 4.68a95.35 95.35 0 0 0 .61 4.09 68.624 68.624 0 0 0 1.65 7.49l.12.45.18.56c1.73 5.79 4.12 10.48 7.28 13.81.43.44.86.87 1.32 1.26.87.77 1.8 1.44 2.78 2.02 9.19 6.97 23.08 3.24 39.81-7.75 18.65-11.6 40.42-31.92 63.01-56.46l14.21-15.87 8.08-9.39.01.01.5-.6 4.2-5.01 6.15-7.32 10.4-12.75.52-.64 7.1-8.88c.03-.07.09-.13.15-.2l18.45-23.76 2.91-3.81 6.08-8.04.01-.01.02-.01c31.27-41.628 58.34-81.077 73.83-104.131l.45-.678-.45.678-3.92 18.043 10.7 41.634-6.19-40.388 13.17-40.066-.29.45.04-.09.25-.36-3.9-.428h-.02l-14.77-1.49v-.035c-.04 0-.09.016-.15.016-.04 0-.07-.016-.13-.016h-.02c-.06 0-.13 0-.21-.016l-2.02-.171-.07.187c-2.06 0-4.14 0-6.24-.016l-21.34-.087-7.08-.051-44.4-.412c-.2 0-.41-.016-.63-.016h-.02l-38.67-.515h-.02l-28.55-.463h-.02l-8.18-.155h-.02l-24.31-.444h-.05l-30.09-.599c.07-.086.13-.154.19-.205-.08.051-.17.135-.25.205-.48 0-.99-.016-1.48-.035-.52 0-1.04-.016-1.57-.016l-4.01-.087c-.32-.016-.65-.016-.97-.016l-45.84-1.01-15.82-.393h-.04l-12.077-.29 6.272 1.506.009.003-20.698 16.589v-.009l-1.179.943v.011l-36.288 29.084 36.775-19.457 1.682-.878zM1304.51 881.7l.02-.014-.47.707.06-.095.39-.598zm-2.4 3.613l1.8-2.703c.03-.022.03-.044.05-.062l-2.21 3.331.36-.566z"/><path fill="url(#E)" d="M631.153 879.424l7.396-15.248-1.329-.051-6.067 15.299z"/><path fill="url(#F)" d="m654.39 864.724.45 3.868-.077-3.868h-.373Z"/><path fill="url(#G)" d="m880.34 871.74-.242.17 7.79 12.715 17.283 15.199-23.95-28.068c-.3.003-.581-.016-.881-.016Z"/><path fill="url(#H)" d="m904.459 877.133-20.055-5.291-1.797-.051 11.14 5.342h10.712Z"/><path fill="url(#I)" d="M849.314 870.832c-.055.016-.113 0-.168 0a18.71 18.71 0 0 1-1.048-.035l-28.537-.821a234.104 234.104 0 0 0-3.65-.119l-18.725-.547a260.45 260.45 0 0 0-3.782-.12c-.132-.016-.263-.016-.374-.016l-2.845-.087-28.256-.872-1.047-.035-11.983-.376-7.603-.239-3.988-.138-49.376-1.593h-.168c5.448 3.971 11.104 7.582 16.741 10.456.281.155.561.309.842.428 8.632 4.467 16.852 7.035 23.368 5.957 4.082-.274 7.883-1.471 11.272-3.852l3.764 15.576.6 2.448h.018l12.191 46.638v.005l-.012-.008.215.772.004.003 2.564 9.118 4.045 13.844 1.816 5.938.316 1.065.263.869.224.737.019.016c4.026 12.992 8.182 25.276 12.301 35.766h-.005l.335.84 1.26 3.14.247.61 1.052 2.51 1.357 3.12c3.726 8.38 7.363 14.92 10.764 18.73.953 1.07 1.888 1.93 2.801 2.56.485.33.96.6 1.424.8.93.39 1.821.53 2.677.42.134-.02.258-.08.39-.11.291-.07.584-.12.867-.24.679-.3 1.327-.79 1.957-1.4.129-.12.261-.21.388-.35.074-.08.143-.18.217-.27a12.64 12.64 0 0 0 .879-1.1c2.125-3.03 3.948-7.92 5.51-14.16l.03-.11c.785-3.15 1.502-6.63 2.158-10.4h.007l.145-.9.822-5.04.036-.26a409.7 409.7 0 0 0 1.966-16.053l.014-.116.005-.038.168-1.677v-.016l.729-8.113.584-7.636.43-6.688.069-1.087c.011-.067.021-.108.021-.108v-.019l.186-3.066.487-9.465c.019-.17.019-.257.019-.257v-.035c.918-19.699 1.255-39.348 1.347-54.973h.04l-.04-.791.014-2.473-.051-23.022c.019.051.037.119.056.19.337 1.335 1.479 3.987 3.182 7.137a1.74 1.74 0 0 0 .131.258c3.501 6.896 9.53 16.328 17.134 18.449.336.087.673.155 1.029.19.3.051.618.068.973.068a8.353 8.353 0 0 0 1.198-.125c5.169-.618 11.854-5.025 18.125-10.264.056-.051.114-.086.15-.138a136.191 136.191 0 0 0 6.722-5.509s-.037-.139-.131-.377c6.798-6.452 11.909-12.341 11.909-12.341l-6.78-.377a6932.87 6932.87 0 0 1-24.005-.696z"/><path fill="url(#J)" d="M1170.74 873.57l-.52.017.49.016c.01-.014.01-.014.03-.033z"/><path fill="url(#K)" d="M1210.5 873.947c-.15.087-.3.222-.51.36h.09l.42-.36z"/></g><path fill="#fff" fill-opacity=".4" d="M1335.87 874.457L1388 882l-801-19.923 64.609-8.251-16.668 5.466s519.169 25.193 710.109 17.73l-9.18-2.565z"/><path fill="#91001d" d="M890.228 817.732c-37.43 1.011-99.391 14.926-99.391 14.926s-43.141 19.408-93.904 26.487c-50.762 7.099-46.567 0-46.567 0l7.04-10.267c61.661-15.849 122.854-26.839 180.112-29.938 16.946-.923 34.527-1.319 52.71-1.208zm412.632 57.663l-16.01 3.749 5.73 16.006s-15.47 3.075-33.74 2.238c-18.26-.813-43.72-10.966-43.72-10.966s-51.21 1.672-83.49 0-84.55 3.21-144.164-4.507l24.844-5.781 44.66-8.156s-22.08-33.28-37.86-42.818c93.62 9.651 185.27 25.923 283.75 50.235z" opacity=".5"/><path fill="url(#L)" d="M1067.91 871.722s-79.654-246.905-32.28-273.977c61.19-34.968 269.21 276.756 269.21 276.756s-162.03 18.395-236.93-2.779Z"/><path d="M1035.63 597.745c-38.826 28.551 69.67 260.032 94.26 277.067 24.6 17.039 172.01 4.302 174.94-.311 0 0-215.41-316.315-269.2-276.756Z" class="D"/><path fill="#ccb689" d="M1040.65 689.457s81.5 157.154 130.1 192.455l-40.86-1.189s-70.81-124.865-89.24-191.266Z" class="B"/><path d="M1030.83 729.469s8.57-16.841 15.14-23.171 114.78-21.79 114.78-21.79l21.77 25.509s-79.47-6.114-101.68.777c-22.22 6.889-43.55 48.881-43.55 48.881l-6.46-30.206zm-2.08-10.833s8.92-18.225 15.94-21.524c7.01-3.299 80.44-8.627 107.96-21.711l-3.43-2.232s-21.61 9.817-58.52 13.753-55.28-15.256-66.11 11.073l4.16 20.641z" opacity=".15" class="F"/><path d="M1043.55 785.685s17.18-15.034 28.17-14.701c11 .333 116.08-5.564 145.49-17.624l2.49 4.749s-82.46 23.859-143.36 23.209c0 0-24.09 1.073-30.55 13.13l-2.24-8.763Z" opacity=".46" class="G"/><path d="M1126.6 790.541l70.92-18.371 31.92 61.36-46.92 10.402-55.92-53.391zm7.47-34.797l-4.18-6.891 9-15.578 10.33 22.469h-15.15zm-74.86-95.721l-4.18-6.891 9-15.581 10.33 22.472h-15.15z" class="B C"/><path d="M1057.74 673.172l-17.1-16.838-5.01-29.691 11.06-19.138 24.29 58.353-13.24 7.314zm18.06-2.24l-11.11-30.594 6.29-6.815 17.64 32.335-12.82 5.074z" class="B C"/><path d="M1116.8 678.727l-11.1-30.593 6.29-6.815 17.64 32.335-12.83 5.073zm-18.04 54.548l-41.8-115.189 6.29-6.816 58.31 106.887-22.8 15.118z" class="C"/><path d="m1086.16 736.406-41.8-115.186 6.29-6.818 58.31 106.886-22.8 15.118Z" class="C"/><path d="M1120.7 675.038l-11.1-30.593 6.29-6.818 17.64 32.338-12.83 5.073zm68.42 179.318l-11.1-30.594 6.28-6.818 17.65 32.338-12.83 5.074zm-132.24-206.888l-11.1-30.593 6.29-6.818 17.64 32.337-12.83 5.074z" class="B C"/><path fill="#898e9f" d="M1093.85 840.706l-36.11-91.853-6.88 10.819 21.49 84.444 21.5-3.41zm-18.06 21.28l-22.48-65.501-2.45 4.361 20.12 71.707 9.82 2.262-5.01-12.829zm-51.2-222.003l18.96 75.489 7.31 33.359-10.21.022-16.06-64.348v-44.522z"/><path d="M1121.56 766.122l-15.86-32.847h-11.85l19.33 40.632 8.38-1.737v-6.048zm29.41 91.785l-4.99-11.166 3.43-3.102 7.29 12.404-5.73 1.864zm38.64-139.271l-18.86 7.23 53.85 96.631h40.99l-75.98-103.861z" class="B E"/><path fill="#a5443b" d="M1060.35 847.012s4.87-41.895 26.62-43.04c11.35-.599 124.02 77.94 124.02 77.94s-113.55-87.326-127.61-85.427c-14.07 1.901-20.31 32.562-21.2 37.045s-1.83 10.586-1.83 10.586v2.896z"/><path fill="#862b3b" d="M1022.86 680.125s11.77 2.387 22.92 3.776c11.14 1.39 76.83 23.077 97.93 14.219 9.08-3.814-10.18-42.201-10.18-42.201l4.91 4.104s12.25 33.218 6.98 39.286-99.06-12.959-104.78-12.466c-5.71.493-16.36 4.385-16.36 4.385l-1.42-11.103z"/><path fill="#cd703a" d="m1084.6 797.525 1.56 4.773s17.73 5.805 39.21 20.199c0 0-24.52-21.405-40.77-24.972Z"/><path d="m1255.95 845.853-5.35-14.614 2.67-8.127 7.09 22.741h-4.41Z" class="D"/><path fill="url(#M)" d="M819.543 820.349s-11.459 4.551-28.592 8.11c-15.486 3.232-35.596 5.651-56.043 3.188 0 0 37.657-164.857 61.212-180.531 10.524-7.013 16.404 17.256 19.662 49.458v.021c5.072 50.249 3.761 119.754 3.761 119.754Z"/><path d="M815.779 700.574v.021c-.56 29.215-24.36 125.973-24.828 127.864-15.486 3.232-35.596 5.651-56.043 3.188 0 0 37.657-164.857 61.212-180.531 10.522-7.013 16.401 17.256 19.659 49.458Z" class="D"/><path fill="#ccb689" d="M787.866 829.08s25.332-99.636 26.622-114.06c0 0-10.797 70.681-23.537 113.439l-3.085.621Z" class="B"/><path d="M763.376 724.717s45.112-3.925 49.757-1.21 5.164 12.422 5.164 12.422v2.219s-1.95-9.579-5.496-11.662-27.081 1.111-34.77 1.111-18.709 10.551-18.709 10.551l4.054-13.431z" opacity=".15" class="F"/><path d="M765.996 716.382s40.685-20.145 49.599-17.582l.914 9.665s-26.354-.068-51.337 10.504l.824-2.587Z" opacity=".46" class="G"/><path d="M778.306 681.672s28.687-6.723 35.316 1.555l-1.001-6s-23.8-5.743-32.476 0l-1.839 4.445Z" opacity=".15" class="F"/><path d="M819.695 789.266s-15.245-.32-21.891 0-53.453 3.7-53.453 3.7l-.605 2.37 55.484-5.022c5.677-.103 20.311 1.915 20.311 1.915l.154-2.963z" opacity=".46" class="G"/><path fill="#898e9f" d="m801.176 800.624 11.389-56.921 3.944 3.194-5.483 45.332h1.775l2.979-21.316 2.517 1.135-2.517 49.666-20.216 5.732 5.612-26.822Z"/><path d="M748.943 798.099l13.598-56.82 22.032-6.734-6.267 30.815 3.415-.555 2.107-21.102h7.012l-13.538 58.586-28.359-4.19zm29.363 10.02l9.56-36.071h2.974l-9.119 34.586-3.415 1.485z" class="B E"/><path d="m785.837 686.507-5.146 32.462h14.872l3.572-39.871-13.298 7.409Z" class="C"/><path d="M789.914 708.771l4.555-36.851 12.461-1.658-5.01 33.736-12.006 4.773zm-5.667 85.847l4.557-36.853 12.461-1.655-5.01 33.735-12.008 4.773zm-3.556-92.462h5.264l1.91-20.926-3.586 1.997-3.588 18.929z" class="C"/><path d="m786.784 674.672-.406 22.868 9.186-1.317 3.572-29.014-12.352 7.463Z" class="C"/><path d="M801.265 715.02l3.849-20.671.946 7.807-2.398 12.864h-2.397zm0 43.539l2.397-5.832 3.268-1.379-2.834 4.997-2.831 2.214z" class="B E"/><path fill="#862b3b" d="M756.756 746.992l57.731-31.057c1.742.138 3.127 7.569 3.127 7.569l.182 2.998s-3.38-6.327-6.415-6.471c-7.284-.347-54.84 27.708-54.84 27.708l.215-.747z"/><path fill="url(#N)" d="M582.29 870.372s3.332-11.127 9.479-15.31 13.127 7.655 13.127 7.655l-22.606 7.655z"/><path fill="url(#O)" d="M1343.44 885.171s1.89-15.69 10.88-19.577c8.98-3.887 24.69 29.564 24.69 29.564l-35.57-9.987Z"/><path fill="url(#P)" d="M1074.86 879.954s-35.06-32.465-54.19-29.797-20.08 29.797-20.08 29.797 65.28 11.74 74.27 0z"/><path fill="url(#Q)" d="M1245.17 890.29s6.15-34.551 21.87-34.136 25.31 37.471 25.54 39.004c.24 1.533-46.81 2.059-47.41-4.868z"/><path fill="url(#R)" d="M754.581 841.196c-10.727-76.697-86.413-4.443-102.97 13.864s104.076-5.954 102.97-13.864z"/><path fill="url(#S)" d="M819.616 814.764s8.203-21.915 20.502-25.247 39.973 27.633 39.973 27.633l-60.549 3.207.074-5.593z"/><path d="M1020.67 850.157c-11.99 3.009-1.86 28.916.26 31.755 2.13 2.842 38.85 5.112 53.93-1.958 0 0-35.83-34.408-54.19-29.797zm246.37 5.997c-16.71 4.879-10.15 31.769-8.1 35.472 2.04 3.7 33.03 1.07 32.72 0s-12.97-38.874-24.62-35.472z" class="D"/><path d="M1354.32 865.594c-5.66 3.002-.22 21.779 2.43 23.315s22.26 6.249 22.26 6.249-16.06-34.144-24.69-29.564z" class="B E"/><path d="M728.717 806.71c17.95 2.858 13.245 34.67 12.299 37.406s-52.272 13.011-66.698 14.536-23.061-.658-22.706-3.592 51.679-52.397 77.105-48.35z" class="D"/><path d="M819.616 814.764s17.487 4.288 31.322 3.353 17.385-13.303 17.385-13.303-19.337-16.683-27.178-15.486c-10.136 1.547-20.564 21.459-21.529 25.436zM582.29 870.372s9.747-3.526 13.293-6.235-.798-9.971-.798-9.971-6.632-1.612-12.495 16.206zm691.51-2.787l6.96 17.586h6.39l-6.67-16.245-6.68-1.341zm1.02 22.705l-1.02-3.87-2.09.831v3.039h3.11zm92.15-6.872l-1.54-6.265v-3.633l5.89 11.651-4.35-1.753zm-336.14-15.833l-1.79-2.616 4.61-2.915 14.45 12.761-17.27 2.858v-10.088zm-6.24 4.464l-5.48-6.872v3.438l4.25 4.905 1.23-1.471z" class="B E"/><path d="M857.266 810.895l-9.579-15.556 1.064-1.428 15.137 14.904-6.622 2.08zm-33.704 1.945l3.784-5.97h2.01l-1.774 5.97h-4.02zm-164.384 37.317l32.247-22.711 10.894 1.634-18.661 21.077h-24.48zm41.332-13.923l6.032-8.788h5.498l-2.838 9.202-8.692-.414z" class="B E"/><path d="m1304.83 874.501-13.17-38.852 6.19-39.164-10.7 40.372 3.92 17.499 13.76 20.145Z" class="H"/><path d="M1343.44 885.171l-11.24-34.399 9.58 34.399h1.66zm35.57 9.987l5.65-19.021 23.47-43.029-23.47 48.804-5.65 13.246zm-378.42-15.204l-19.742-24.891-40.682-20.872 58.895 45.771 1.529-.008zm.58-5.139l-9.738-76.716 6.387 34.556 3.581 40.865-.23 1.295z" class="I"/><path d="M1062.2 884.651l12.43-18.64 1.76-29.555 1.15 30.016-15.34 18.179zm4.33-.694l10.14-11.49 9.58-6.455-18.81 17.753-.91.192z" class="H"/><path d="M1188.86 865.172l3.56-25.989-9.9-92.202 4.95 95.854-1.17 20.424 2.56 1.913zm-53.19-33.933l-24.01-47.096 19.97 44.501 4.04 2.595zm-381.088 9.957l10.589-34.326-6.653 28.459-3.936 5.867zm-1.249-7.005l3.648-11.772-3.147 14.229-.501-2.457z" class="I"/><path d="M651.609 855.062l-6.623-11.333-13.835-33.874 21.907 43.869-1.449 1.338zm2.335-2.586l-1.594-11.28 2.483-20.839-.711 31.875-.178.244z" class="H"/><path d="M880.09 817.15l7.804-12.339 17.267-14.727-24.302 27.619-.769-.553zm1.537.558l12.121-5.632h10.703l-21.938 5.627-.886.005z" class="I"/><path d="M766.775 846.318l3.831.761 1.829-.761-4.19-.997-1.47.997zm8.343-.996l4.502.471 1.064-1.271-4.093-.149-1.473.949zm128.084.53l22.214 1.75-7.038 3.877-15.176-2.815v-2.812z" class="J"/><path fill="#fd985e" d="m742.225 870.709 22.217 1.747-7.038 3.876-15.179-2.812v-2.811Z"/><path d="M927.25 851.143l1.548-1.395 4.717-1.084 2.333 1.241-8.598 1.238zm27.085 16.661l3.715 1.122 1.505-1.848-5.22.726zm-84.212-31.403h3.494l1.105 1.52-6.399-.761 1.8-.759zm5.457-2.11l.646-.393 3.515-.271 1.407.664h-5.568zm7.7 0l.792-.393 1.098.198-1.89.195z" class="J"/><path fill="#fd985e" d="M852.492 885.092l-4.442-.81-4.218 2.495h2.446l8.268-.715-2.054-.97zm0 2.097l3.403-.412 3.037.412-1.687.921h-6.008l1.255-.921z"/><path d="M818.991 854.122h8.755l2.227-3.269-10.509.853-.473 2.416zm161.843-20.83l-7.367 2.714 1.013-1.845 3.512-1.582 2.842.713z" class="J"/><path fill="#8f4d5e" d="M806.06 874.758s3.666-4.998 7.095 0h-7.095zm9.719 0s4.283-8.191 14.193-9.161 17.007 9.161 17.007 9.161-18.525 2.498-31.2 0zm77.262 15.533s4.079-2.433 8.101-2.181 6.15 5.439 6.15 5.439-8.635 1.723-14.251-3.258zm425.559.674s9.52-4.892 15.02 2.571c0 0-8.57 2.183-15.02-2.571zm-397.354-1.948s-2.366-10.729 8.752 0c0 0-3.311.932-8.752 0zm-13.391-71.054s6.768-7.761 22.142-8.108 22.459 9.89 22.459 9.89l-44.601-1.782zm48.453 2.007s6.211-3.421 7.688-2.256 1.482 2.844 1.482 2.844l-9.17-.588z"/><path d="M833.644 868.095s.711 5.022 5.321 5.425c0 0 .798-6.051-5.321-5.425zm66.831 21.337s-.835 2.202.621 3.285c0 0 .799-1.628-.621-3.285zm22.706-3.638s.399 1.679 1.906 2.297 2.084 0 2.084 0-1.417-3.077-3.99-2.297zm112.449-288.049s25.88-19.625 103.93 64.909 148.6 187.503 148.6 187.503-86.14-133.915-148.6-193.823c-55.97-53.68-81.79-68.216-103.93-58.589zM746.127 786.064s36.676-130.586 52.295-134.335 19.374 74.776 19.374 74.776-4.174-81.946-18.659-78.176c-15.753 4.099-41.514 89.302-53.01 137.735zm-94.517 68.998s44.95-46.152 71.431-47.428c20.707-.997 25.901 13.582 25.901 13.582s-5.856-17.989-28.739-15.386c-25.771 2.931-68.593 49.232-68.593 49.232zm610.89 2.013s8.44.138 16.84 10.51 13.25 27.573 13.25 27.573-12.28-47.989-30.09-38.083zm91.82 8.519s12.02 4.708 24.69 29.564c0 0-15.47-34.838-24.69-29.564zm-336.75-14.741s27.39 3.901 48.26 21.4c0 0-33.3-29.727-48.26-21.4zM828.9 798.099s5.254-9.126 15.711-8.015 33.752 25.192 33.752 25.192-24.039-27.408-35.288-27.427c-7.569-.011-14.175 10.25-14.175 10.25z" class="D"/></g><defs><linearGradient id="B" x1="959.556" x2="959.556" y1="1081.26" y2="817.714" xlink:href="#T"><stop stop-color="#2f869a"/><stop offset=".136" stop-color="#32869a"/><stop offset=".235" stop-color="#3b8899"/><stop offset=".321" stop-color="#4b8a97"/><stop offset=".401" stop-color="#618e94"/><stop offset=".476" stop-color="#7e9290"/><stop offset=".547" stop-color="#a2978c"/><stop offset=".615" stop-color="#cb9d87"/><stop offset=".651" stop-color="#e4a184"/><stop offset="1" stop-color="#fde386"/></linearGradient><linearGradient id="C" x1="959.556" x2="959.556" y1="1081.26" y2="879.961" xlink:href="#T"><stop offset=".207" stop-color="#ffdad4"/><stop offset=".601" stop-color="#ebdce1"/><stop offset=".975" stop-color="#df8b72"/></linearGradient><linearGradient id="D" x1="1122.5" x2="1122.5" y1="1170.16" y2="874.667" xlink:href="#T"><stop stop-color="#f2ffff"/><stop offset="1" stop-color="#a7aaf4"/></linearGradient><linearGradient id="E" x1="634.851" x2="634.851" y1="879.425" y2="864.124" xlink:href="#T"><stop stop-color="#f2ffff"/><stop offset="1" stop-color="#a7aaf4"/></linearGradient><linearGradient id="F" x1="654.615" x2="654.615" y1="868.592" y2="864.724" xlink:href="#T"><stop stop-color="#f2ffff"/><stop offset="1" stop-color="#a7aaf4"/></linearGradient><linearGradient id="G" x1="892.633" x2="892.633" y1="899.826" y2="871.74" xlink:href="#T"><stop stop-color="#f2ffff"/><stop offset="1" stop-color="#a7aaf4"/></linearGradient><linearGradient id="H" x1="893.533" x2="893.533" y1="877.131" y2="871.791" xlink:href="#T"><stop stop-color="#f2ffff"/><stop offset="1" stop-color="#a7aaf4"/></linearGradient><linearGradient id="I" x1="783.928" x2="783.928" y1="1044.38" y2="865.836" xlink:href="#T"><stop stop-color="#f2ffff"/><stop offset="1" stop-color="#a7aaf4"/></linearGradient><linearGradient id="J" x1="1170.48" x2="1170.48" y1="873.606" y2="873.572" xlink:href="#T"><stop stop-color="#f2ffff"/><stop offset="1" stop-color="#a7aaf4"/></linearGradient><linearGradient id="K" x1="1210.24" x2="1210.24" y1="874.308" y2="873.948" xlink:href="#T"><stop stop-color="#f2ffff"/><stop offset="1" stop-color="#a7aaf4"/></linearGradient><linearGradient id="L" x1="1162.71" x2="1162.71" y1="881.913" y2="595.009" xlink:href="#T"><stop offset=".053" stop-color="#df6d70"/><stop offset=".528" stop-color="#a33d6b"/><stop offset="1" stop-color="#7e3360"/></linearGradient><linearGradient id="M" x1="777.301" x2="777.301" y1="832.656" y2="649.901" xlink:href="#T"><stop offset=".053" stop-color="#df6d70"/><stop offset=".528" stop-color="#a33d6b"/><stop offset="1" stop-color="#7e3360"/></linearGradient><linearGradient id="N" x1="593.593" x2="593.593" y1="870.372" y2="854.166" xlink:href="#T"><stop offset=".053" stop-color="#df6d70"/><stop offset=".528" stop-color="#a33d6b"/><stop offset="1" stop-color="#7e3360"/></linearGradient><linearGradient id="O" x1="1361.23" x2="1361.23" y1="895.159" y2="865.28" xlink:href="#T"><stop offset=".053" stop-color="#df6d70"/><stop offset=".528" stop-color="#a33d6b"/><stop offset="1" stop-color="#7e3360"/></linearGradient><linearGradient id="P" x1="1037.73" x2="1037.73" y1="885.172" y2="850" xlink:href="#T"><stop offset=".053" stop-color="#df6d70"/><stop offset=".528" stop-color="#a33d6b"/><stop offset="1" stop-color="#7e3360"/></linearGradient><linearGradient id="Q" x1="1268.88" x2="1268.88" y1="896.122" y2="856.15" xlink:href="#T"><stop offset=".053" stop-color="#df6d70"/><stop offset=".528" stop-color="#a33d6b"/><stop offset="1" stop-color="#7e3360"/></linearGradient><linearGradient id="R" x1="702.318" x2="702.318" y1="861.744" y2="806.635" xlink:href="#T"><stop offset=".053" stop-color="#df6d70"/><stop offset=".528" stop-color="#a33d6b"/><stop offset="1" stop-color="#7e3360"/></linearGradient><linearGradient id="S" x1="849.816" x2="849.816" y1="820.358" y2="789.266" xlink:href="#T"><stop offset=".053" stop-color="#df6d70"/><stop offset=".528" stop-color="#a33d6b"/><stop offset="1" stop-color="#7e3360"/></linearGradient><linearGradient id="T" gradientUnits="userSpaceOnUse"/></defs></svg>