<svg xmlns="http://www.w3.org/2000/svg" width="1920" height="1034" fill="none" xmlns:v="https://vecta.io/nano"><mask id="A" maskUnits="userSpaceOnUse" x="-1014" y="0" width="3584" height="1222"><path d="M2570 .957h-3584V1221.83h3584V.957z" fill="#fff"/></mask><g mask="url(#A)"><path d="M2659.6 929.455H-1019.66V1261.68H2659.6V929.455Z" fill="url(#B)"/><path opacity=".15" fill-rule="evenodd" d="M2579.87 929.456v27.93c-32.72 3.049-126.89 11.128-198.39 10.527-87.93-.708-115.36 1.95-107.13 30.906 8.23 28.961-476.49 15.671-476.49 15.671s45.15 6.02 42.41 18.11c-2.55 11.2-103.82 1.56-117.86.17 10.17 1.21 64.32 8.09 64.32 17.9 0 10.88-355.77 8.47-410.72-9.03-54.96-17.52 42.57-34.38 37.08-35.59s-537.094 9.64-550.811-7.124c-13.717-16.729 166.201-17.013 166.201-17.013s-46.684 14.461-26.11 17.013c20.62 2.554 336.88-8.86 333.81-31.013-3.11-22.116-876.351-.495-883.25 12.795-6.576 12.724 72.75 12.971 79.249 12.971-11.419.107-238.585 2.161-238.585 16.271 0 14.5 169.993 17.22 166.683 19.92-3.351 2.72-403.616-7.23-410.841 0-7.181 7.23 52.533 1.8 54.634 5.42 2.056 3.61-486.292 9.96-491.417 1.81-5.165-8.12-218.413-9.04-242.097-7.23-20.216 1.52-5.205 9-.363 11.2-8.028-3.37-49.106-20.77-49.106-25.67 0-5.45 403.858 19.89 416.208-5.45 12.386-25.308-134.972-18.999-137.028-24.423s311.137-.885 273.894-23.996c-28.446-17.651-613.352 13.149-887.001 28.638v-60.713h3592.71z" fill="#4685e4"/><path opacity=".15" fill-rule="evenodd" d="M2579.87 929.456v18.941H1568.48c33.85-1.926 58.3-4.3 64.39-7.188 26.11-12.297-1181.307 6.526-1181.307 6.526l-962.902-8.812c-4.318 3.129 3.472 6.526 14.528 9.471h-516.039v-18.942h3592.72v.004z" fill="#4685e4"/></g><defs><linearGradient id="B" x1="819.972" y1="1261.68" x2="819.972" y2="929.456" gradientUnits="userSpaceOnUse"><stop stop-color="#fccec7"/><stop offset=".673" stop-color="#ffe6e1"/><stop offset="1" stop-color="#bdc8de"/></linearGradient></defs></svg>