<svg xmlns="http://www.w3.org/2000/svg" width="1920" height="132" fill="none"><path fill="#4685E4" fill-rule="evenodd" d="M1244.84 27.052s-69.1 9.244-69.1 16.192 199.8 5.403 199.8 0c0-5.404-46.57-10.037-46.57-10.037s10.14 1.931 6.38 6.948c-3.76 5.02-107.04 9.308-90.51-13.104ZM1940.27 16.627s-156.53 9.245-156.53 16.193c0 6.948 452.58 5.403 452.58 0 0-5.404-105.49-10.038-105.49-10.038s22.97 1.932 14.46 6.949c-8.5 5.02-242.45 9.313-205.02-13.104ZM1759.36 44.913s-54.69 4.62-54.69 8.096c0 3.477 158.13 2.702 158.13 0s-36.85-5.02-36.85-5.02 8.02.968 5.05 3.476c-2.97 2.513-84.72 4.656-71.64-6.552ZM-23.56 52.253S97.12 74.13 131.674 71.815c34.551-2.314 3.757-9.696 3.757-9.696s240.36-2.314 246.369 9.867C387.806 84.17 90.861 92.922-23.56 52.253Z" clip-rule="evenodd" opacity=".15"/><path fill="url(#a)" fill-opacity=".3" fill-rule="evenodd" d="M449.118 82.44c-2.252 18.331 165.247 35.395 198.298 20.922 33.049-14.472 42.065-7.745 42.065-7.745s-54.083 40.812 205.809 37.571c259.89-3.241 270.4-29.821 270.4-29.821l187.79-6.911-268.16-3.242s41.32 2.38 4.51 14.694c-36.8 12.315-319.979 40.407-311.716 7.995 8.264-32.412 137.457-27.009 137.457-27.009L560.288 82.45s66.779-1.453 66.85 11.849c.073 13.301-153.793-1.89-166.937-6.21-13.149-4.334-11.083-5.648-11.083-5.648Z" clip-rule="evenodd" style="mix-blend-mode:multiply"/><path fill="#7AE7F8" fill-rule="evenodd" d="M926.712 138.189c0 3.596-17.712 6.51-39.56 6.51-21.849 0-39.561-2.914-39.561-6.51 0-3.596 17.712-6.515 39.561-6.515 21.848 0 39.56 2.919 39.56 6.515Z" clip-rule="evenodd" opacity=".6"/><defs><linearGradient id="a" x1="894.188" x2="923.478" y1="-66.549" y2="197.25" gradientUnits="userSpaceOnUse"><stop stop-color="#00554B" stop-opacity="0"/><stop offset=".994" stop-color="#70BBB1"/></linearGradient></defs></svg>