<svg xmlns="http://www.w3.org/2000/svg" width="1920" height="1080" fill="none"><mask id="a" width="2052" height="1084" x="-66" y="0" maskUnits="userSpaceOnUse" style="mask-type:luminance"><path fill="#fff" d="M1985.11 0H-66v1083.52h2051.11V0Z"/></mask><g mask="url(#a)"><path fill="#4685E4" fill-rule="evenodd" d="M1183.48 918.407s-54.24 5.431-54.24 9.513 156.83 3.175 156.83 0-36.55-5.897-36.55-5.897 7.96 1.135 5.01 4.082c-2.95 2.95-84.02 5.469-71.05-7.698ZM899.524 900.759s-78.302 1.901-78.302 3.332c0 1.43 226.398 1.113 226.398 0 0-1.114-52.771-2.067-52.771-2.067s11.491.398 7.231 1.43c-4.252 1.032-121.281 1.918-102.556-2.695ZM1729.35 912.282s-122.87 5.431-122.87 9.513c0 4.083 355.25 3.175 355.25 0 0-3.174-82.8-5.897-82.8-5.897s18.03 1.135 11.35 4.083c-6.68 2.95-190.31 5.471-160.93-7.699ZM1587.35 928.901s-42.93 2.714-42.93 4.756c0 2.043 124.12 1.588 124.12 0 0-1.587-28.93-2.95-28.93-2.95s6.3.569 3.97 2.043c-2.33 1.476-66.5 2.736-56.23-3.849ZM187.878 933.213s94.725 12.853 121.848 11.493c27.12-1.359 2.949-5.696 2.949-5.696s188.666-1.36 193.382 5.797c4.714 7.159-228.366 12.3-318.179-11.594ZM-315.626 902.902s130.856 17.756 168.321 15.876c37.465-1.88 4.073-7.869 4.073-7.869s260.625-1.88 267.141 8.01c6.514 9.887-315.465 16.992-439.535-16.017Z" clip-rule="evenodd" opacity=".15"/><path fill="url(#b)" fill-rule="evenodd" d="M568.154 935.837c-1.768 10.771 129.707 20.796 155.65 12.293 25.941-8.503 33.018-4.551 33.018-4.551s-42.451 23.978 161.546 22.074c203.992-1.904 212.252-17.52 212.252-17.52l147.39-4.061-210.48-1.904s32.43 1.397 3.54 8.633c-28.89 7.235-251.163 23.74-244.677 4.697 6.486-19.043 107.894-15.868 107.894-15.868l-278.873-3.787s52.417-.854 52.473 6.961c.057 7.815-120.717-1.11-131.034-3.648-10.321-2.547-8.699-3.319-8.699-3.319Z" clip-rule="evenodd" style="mix-blend-mode:multiply"/><path fill="url(#c)" fill-rule="evenodd" d="M-120.081 1053.78s553.486-41.24 557.974-28.36c4.486 12.89-69.929 20.63 0 28.36 69.931 7.74 451.979-12.81 466.129-15.42 14.149-2.62 277.328 33.47 400.438 15.42 123.11-18.04 85.96-30.85 85.96-30.85s305.46 25.7 369.41 17.96c63.94-7.73-97.71-17.96-97.71-17.96l435.8-16.06-10.29 144.87-2221.861-15.46 14.15-82.5Z" clip-rule="evenodd" style="mix-blend-mode:multiply"/><path fill="#7AE7F8" fill-rule="evenodd" d="M482.469 1021.99c4.114-1.78 178.642-12.89 179.232-8.59.589 4.29-244.678 36.94-179.232 8.59Z" clip-rule="evenodd" opacity=".6"/><path fill="url(#d)" fill-rule="evenodd" d="M-98.561 986.178s336.946 6.593 338.125 14.322c1.179 7.74-352.374 18.62-352.374 18.62l14.249-32.942Z" clip-rule="evenodd" style="mix-blend-mode:multiply"/><path fill="#7AE7F8" fill-rule="evenodd" d="M256.659 998.787c-.295 5.153 140.615 13.753 143.564 5.153 2.946-8.59-85.784-6.873-85.784-6.873s51.589-1.72 51.293-4.296c-.295-2.579-109.073 6.016-109.073 6.016Z" clip-rule="evenodd" opacity=".6"/><path fill="#fff" fill-rule="evenodd" d="M846.097 994.752c5.503 9.288 159.153 20.738 199.253 18.918 40.09-1.82 56.46-11.93 56.46-11.93s57.38 13.34 76.25 6.04c18.86-7.3 7.96-12.072 7.96-12.072s39.34 6.152-14.9 6.152h-51.49l-273.533-7.108ZM1297.57 1014.6c-9.05.17 79.39 3.64 82.93-3.63 3.54-7.27 9.04-11.353 9.04-11.353s-41.27 14.083-91.97 14.983Z" clip-rule="evenodd"/><path fill="#7AE7F8" fill-rule="evenodd" d="M659.932 1019.53s-19.456 5.28-17.393 11c2.062 5.73 104.356 3.13 104.061 0-.293-3.13-111.429 8.39-86.668-11Z" clip-rule="evenodd" opacity=".6"/><path fill="#fff" d="M722.428 1019.53c9.768 0 17.687-.85 17.687-1.91s-7.919-1.92-17.687-1.92-17.687.86-17.687 1.92 7.919 1.91 17.687 1.91Z"/><path fill="#7AE7F8" fill-rule="evenodd" d="M515.681 1006.44c0 1.16-7.744 2.1-17.295 2.1-9.551 0-17.295-.94-17.295-2.1 0-1.15 7.744-2.09 17.295-2.09 9.553 0 17.295.94 17.295 2.09Z" clip-rule="evenodd" opacity=".6"/><path fill="#fff" fill-rule="evenodd" d="M784.925 1005.39c0 .58-2.64 1.05-5.896 1.05s-5.895-.47-5.895-1.05c0-.57 2.639-1.04 5.895-1.04s5.896.47 5.896 1.04Z" clip-rule="evenodd"/><path fill="#7AE7F8" fill-rule="evenodd" d="M933.775 983.703c0 2.112-13.902 3.824-31.052 3.824-17.149 0-31.052-1.712-31.052-3.824 0-2.113 13.903-3.828 31.052-3.828 17.15 0 31.052 1.715 31.052 3.828ZM1460.14 1001.52c0 1.06-7.92 1.92-17.68 1.92-9.77 0-17.69-.86-17.69-1.92s7.92-1.912 17.69-1.912c9.76 0 17.68.862 17.68 1.912Z" clip-rule="evenodd" opacity=".6"/><path fill="#fff" fill-rule="evenodd" d="M1235.71 990.347c0 1.157-7.74 2.094-17.3 2.094-9.55 0-17.29-.937-17.29-2.094 0-1.156 7.74-2.094 17.29-2.094 9.56 0 17.3.938 17.3 2.094ZM1192.01 1017.65c0 .73-4.84 1.32-10.82 1.32-5.99 0-10.83-.59-10.83-1.32 0-.72 4.84-1.31 10.83-1.31 5.98 0 10.82.59 10.82 1.31ZM1164.67 1029.13c0 .42-1.03.75-2.29.75s-2.28-.33-2.28-.75c0-.41 1.02-.75 2.28-.75 1.26 0 2.29.34 2.29.75ZM1212.53 1015.82c0-.29-1.79-.52-4-.52-2.2 0-3.99.23-3.99.52 0 .29 1.79.52 3.99.52 2.21 0 4-.23 4-.52ZM1212.53 1013.08c0 .42-1.03.75-2.29.75s-2.28-.33-2.28-.75c0-.41 1.02-.75 2.28-.75 1.26 0 2.29.34 2.29.75ZM1504.95 989.299c0 .58-2.64 1.048-5.9 1.048-3.25 0-5.89-.468-5.89-1.048 0-.58 2.64-1.048 5.89-1.048 3.26.002 5.9.471 5.9 1.048Z" clip-rule="evenodd"/><path fill="#7AE7F8" fill-rule="evenodd" d="M1650.38 987.674c0 2.113-13.9 3.827-31.05 3.827s-31.05-1.712-31.05-3.827c0-2.113 13.9-3.825 31.05-3.825 17.15-.003 31.05 1.712 31.05 3.825ZM1661.34 1007.49c0 1.06-7.92 1.91-17.69 1.91-9.77 0-17.69-.86-17.69-1.91 0-1.06 7.92-1.92 17.69-1.92 9.77 0 17.69.86 17.69 1.92Z" clip-rule="evenodd" opacity=".6"/><path fill="#fff" d="M1416.17 996.312c9.55 0 17.29-.937 17.29-2.094 0-1.156-7.74-2.094-17.29-2.094-9.55 0-17.29.938-17.29 2.094 0 1.157 7.74 2.094 17.29 2.094Z"/><path fill="#fff" fill-rule="evenodd" d="M1281.06 1018.43c0 1-2.75 1.8-6.14 1.8-3.4 0-6.14-.81-6.14-1.8s2.75-1.8 6.14-1.8c3.39 0 6.14.8 6.14 1.8ZM1289.67 1021.18c0 .35-.97.63-2.15.63-1.19 0-2.16-.28-2.16-.63s.97-.64 2.16-.64c1.19 0 2.15.29 2.15.64Z" clip-rule="evenodd"/><path fill="#7AE7F8" fill-rule="evenodd" d="M1706.15 995.266c0 .577-2.64 1.048-5.9 1.048-3.26 0-5.9-.468-5.9-1.048 0-.579 2.64-1.048 5.9-1.048 3.26 0 5.9.469 5.9 1.048ZM1851.58 993.638c0 2.113-13.91 3.825-31.06 3.825-17.14 0-31.05-1.712-31.05-3.825 0-2.113 13.91-3.827 31.05-3.827 17.15 0 31.06 1.714 31.06 3.827ZM1378.59 1075.57c0 2.11-13.91 3.82-31.06 3.82s-31.05-1.71-31.05-3.82c0-2.12 13.9-3.83 31.05-3.83s31.06 1.71 31.06 3.83Z" clip-rule="evenodd" opacity=".6"/><path fill="#7AE7F8" d="M1548.73 1085.36c17.15 0 31.05-1.72 31.05-3.83 0-2.11-13.9-3.83-31.05-3.83s-31.05 1.72-31.05 3.83c0 2.11 13.9 3.83 31.05 3.83Z" opacity=".6"/><path fill="#7AE7F8" fill-rule="evenodd" d="M808.545 1062.82c0 3.06-20.147 5.54-44.998 5.54-24.852 0-44.999-2.48-44.999-5.54s20.147-5.55 44.999-5.55c24.851 0 44.998 2.48 44.998 5.55ZM1100.11 1071.46c0 3.06-20.15 5.55-45 5.55s-45-2.49-45-5.55c0-3.06 20.15-5.54 45-5.54s45 2.48 45 5.54Z" clip-rule="evenodd" opacity=".6"/><path fill="url(#e)" fill-rule="evenodd" d="m2012.43 950.785-294 6.325s169.8-3.594 177.66 8.649c7.86 12.244-51.1 13.152-51.1 13.152l191.81 4.935-24.37-33.061Z" clip-rule="evenodd" style="mix-blend-mode:multiply"/></g><defs><linearGradient id="b" x1="917.502" x2="930.453" y1="848.303" y2="1004.13" gradientUnits="userSpaceOnUse"><stop stop-color="#00554B" stop-opacity="0"/><stop offset=".994" stop-color="#70BBB1"/></linearGradient><linearGradient id="c" x1="977.147" x2="986.786" y1="856.491" y2="1176.71" gradientUnits="userSpaceOnUse"><stop stop-color="#00C6BA" stop-opacity="0"/><stop offset=".994" stop-color="#70BBB1"/></linearGradient><linearGradient id="d" x1="-112.809" x2="239.567" y1="1002.65" y2="1002.65" gradientUnits="userSpaceOnUse"><stop stop-color="#D289FF" stop-opacity="0"/><stop offset=".994" stop-color="#70BBB1"/></linearGradient><linearGradient id="e" x1="1873.24" x2="1883.49" y1="897.948" y2="1021.26" gradientUnits="userSpaceOnUse"><stop stop-color="#FCF4FF" stop-opacity="0"/><stop offset=".994" stop-color="#70BBB1"/></linearGradient></defs></svg>