<svg xmlns="http://www.w3.org/2000/svg" width="1920" height="1080" fill="none"><mask id="a" width="2052" height="1084" x="-66" y="0" maskUnits="userSpaceOnUse" style="mask-type:luminance"><path fill="#fff" d="M1985.11 0H-66v1083.52h2051.11V0Z"/></mask><g mask="url(#a)"><path fill="url(#b)" d="M2152.9-16.052H-184.209V1091.04H2152.9V-16.052Z"/><path fill="#FCFCFC" fill-rule="evenodd" d="M1233.53 146.075c0 1.555-1.07 2.814-2.4 2.814-1.32 0-2.39-1.259-2.39-2.814 0-1.555 1.07-2.815 2.39-2.815 1.33.003 2.4 1.263 2.4 2.815ZM1324.92 256.719c0 1.555-1.08 2.814-2.4 2.814-1.32 0-2.4-1.259-2.4-2.814 0-1.555 1.08-2.815 2.4-2.815 1.32 0 2.4 1.26 2.4 2.815ZM1082.6 30.856c0 1.555-1.07 2.815-2.39 2.815-1.33 0-2.4-1.26-2.4-2.815s1.07-2.814 2.4-2.814c1.32 0 2.39 1.26 2.39 2.814ZM1149.56 33.259c0 1.555-1.07 2.814-2.39 2.814-1.33 0-2.4-1.26-2.4-2.814 0-1.555 1.07-2.815 2.4-2.815 1.32.003 2.39 1.263 2.39 2.815ZM1119.23 28.041c0 1.555-1.08 2.815-2.4 2.815-1.33 0-2.4-1.26-2.4-2.815 0-1.554 1.07-2.814 2.4-2.814 1.32 0 2.4 1.26 2.4 2.814ZM1487.89 284.024c0 1.554-1.07 2.814-2.39 2.814-1.33 0-2.4-1.26-2.4-2.814 0-1.555 1.07-2.815 2.4-2.815 1.32 0 2.39 1.262 2.39 2.815ZM1256.87 166.004c0 1.555-1.08 2.814-2.4 2.814-1.33 0-2.4-1.259-2.4-2.814 0-1.555 1.07-2.815 2.4-2.815 1.32 0 2.4 1.263 2.4 2.815ZM1525.38 137.819c0 1.554-1.07 2.814-2.4 2.814-1.32 0-2.4-1.26-2.4-2.814 0-1.555 1.08-2.815 2.4-2.815 1.33 0 2.4 1.26 2.4 2.815ZM885.901 92.476c0 1.555-1.073 2.814-2.398 2.814-1.324 0-2.397-1.26-2.397-2.814 0-1.555 1.073-2.815 2.397-2.815 1.325 0 2.398 1.26 2.398 2.815ZM1598.99 140.793c0 1.555-1.07 2.814-2.39 2.814-1.33 0-2.4-1.259-2.4-2.814 0-1.555 1.07-2.815 2.4-2.815 1.32 0 2.39 1.263 2.39 2.815ZM1012.5 239.716c0 1.555-1.08 2.814-2.4 2.814-1.33 0-2.4-1.259-2.4-2.814 0-1.555 1.07-2.815 2.4-2.815 1.32 0 2.4 1.26 2.4 2.815ZM1770.56 318.929c0 1.555-1.08 2.815-2.4 2.815-1.32 0-2.4-1.26-2.4-2.815s1.08-2.814 2.4-2.814c1.32 0 2.4 1.259 2.4 2.814ZM1764.81 104.519c0 1.555-1.07 2.815-2.4 2.815-1.32 0-2.4-1.26-2.4-2.815s1.08-2.814 2.4-2.814c1.33 0 2.4 1.259 2.4 2.814ZM746.812 221.941c0 1.554-1.073 2.814-2.397 2.814-1.325 0-2.398-1.26-2.398-2.814 0-1.555 1.073-2.815 2.398-2.815 1.324 0 2.397 1.26 2.397 2.815ZM1560.29 203.745c0 1.555-1.07 2.815-2.4 2.815-1.32 0-2.39-1.26-2.39-2.815 0-1.554 1.07-2.814 2.39-2.814 1.33 0 2.4 1.262 2.4 2.814ZM939.156 139.057c0 1.554-1.073 2.814-2.398 2.814-1.324 0-2.397-1.26-2.397-2.814 0-1.555 1.073-2.815 2.397-2.815 1.325 0 2.398 1.26 2.398 2.815ZM1732.41 86.175c0 1.555-1.08 2.815-2.4 2.815-1.32 0-2.4-1.26-2.4-2.815 0-1.554 1.08-2.814 2.4-2.814 1.32 0 2.4 1.26 2.4 2.814ZM734.451 31.409c0 1.555-1.073 2.814-2.398 2.814-1.324 0-2.397-1.26-2.397-2.814 0-1.555 1.073-2.815 2.397-2.815 1.325 0 2.398 1.262 2.398 2.815ZM945.598 232.919c0 1.555-1.073 2.815-2.397 2.815-1.322 0-2.398-1.26-2.398-2.815 0-1.554 1.073-2.814 2.398-2.814 1.324.003 2.397 1.262 2.397 2.814ZM1910.09 24.076c0 1.555-1.08 2.814-2.4 2.814-1.32 0-2.4-1.26-2.4-2.814 0-1.555 1.08-2.815 2.4-2.815 1.32 0 2.4 1.26 2.4 2.815ZM1397.44 88.101c0 1.555-1.08 2.815-2.4 2.815-1.33 0-2.4-1.26-2.4-2.815s1.07-2.814 2.4-2.814c1.32 0 2.4 1.26 2.4 2.814ZM1442.71 49.48c0 1.554-1.08 2.814-2.4 2.814-1.32 0-2.4-1.26-2.4-2.815s1.08-2.814 2.4-2.814c1.32 0 2.4 1.26 2.4 2.814ZM1202.76 70.215c0 1.555-1.07 2.814-2.4 2.814-1.32 0-2.39-1.26-2.39-2.814 0-1.555 1.07-2.815 2.39-2.815 1.33 0 2.4 1.26 2.4 2.815ZM58.954 202.941c0 1.555-1.073 2.814-2.398 2.814-1.324 0-2.397-1.259-2.397-2.814 0-1.555 1.073-2.814 2.397-2.814 1.325 0 2.398 1.259 2.398 2.814ZM1392.4 13.243c0 1.555-1.07 2.815-2.4 2.815-1.32 0-2.4-1.26-2.4-2.815s1.08-2.814 2.4-2.814c1.33.003 2.4 1.262 2.4 2.814ZM1300.97 193.363c0 1.554-1.08 2.814-2.4 2.814-1.33 0-2.4-1.26-2.4-2.814 0-1.555 1.07-2.815 2.4-2.815 1.32 0 2.4 1.262 2.4 2.815ZM1427.56 340.605c0 1.555-1.07 2.815-2.4 2.815-1.32 0-2.4-1.26-2.4-2.815s1.08-2.814 2.4-2.814c1.33 0 2.4 1.259 2.4 2.814ZM1161.88 322.827c0 1.555-1.08 2.815-2.4 2.815-1.33 0-2.4-1.26-2.4-2.815s1.07-2.814 2.4-2.814c1.32 0 2.4 1.259 2.4 2.814ZM1354.22 239.943c0 1.555-1.07 2.815-2.4 2.815-1.32 0-2.4-1.26-2.4-2.815s1.08-2.814 2.4-2.814c1.33 0 2.4 1.259 2.4 2.814ZM1020.18 114.566c0 1.555-1.08 2.815-2.4 2.815-1.32 0-2.4-1.26-2.4-2.815s1.08-2.814 2.4-2.814c1.32 0 2.4 1.259 2.4 2.814ZM1146.77 261.806c0 1.555-1.07 2.814-2.4 2.814-1.32 0-2.39-1.259-2.39-2.814 0-1.555 1.07-2.815 2.39-2.815 1.33 0 2.4 1.26 2.4 2.815ZM881.088 244.031c0 1.555-1.073 2.814-2.398 2.814-1.324 0-2.397-1.259-2.397-2.814 0-1.555 1.073-2.815 2.397-2.815 1.325 0 2.398 1.26 2.398 2.815ZM1073.43 161.147c0 1.555-1.07 2.814-2.4 2.814-1.32 0-2.39-1.259-2.39-2.814 0-1.555 1.07-2.815 2.39-2.815 1.33 0 2.4 1.26 2.4 2.815ZM211.315 90.577c0 1.555-1.073 2.815-2.397 2.815-1.325 0-2.398-1.26-2.398-2.815s1.073-2.814 2.398-2.814c1.324.002 2.397 1.262 2.397 2.814ZM1712.87 15.944c0 1.555-1.08 2.815-2.4 2.815-1.33 0-2.4-1.26-2.4-2.815s1.07-2.814 2.4-2.814c1.32 0 2.4 1.262 2.4 2.814ZM1691.43 205.303c0 1.555-1.07 2.814-2.4 2.814-1.32 0-2.4-1.259-2.4-2.814 0-1.555 1.08-2.815 2.4-2.815 1.33.003 2.4 1.263 2.4 2.815ZM1808.97 228.688c0 1.555-1.07 2.815-2.39 2.815-1.33 0-2.4-1.26-2.4-2.815s1.07-2.814 2.4-2.814c1.32 0 2.39 1.259 2.39 2.814ZM682.636 112.773c0 1.555-1.073 2.814-2.398 2.814-1.324 0-2.397-1.259-2.397-2.814 0-1.555 1.073-2.814 2.397-2.814 1.325 0 2.398 1.262 2.398 2.814ZM37.828 304.448c0 1.555-1.073 2.815-2.397 2.815-1.325 0-2.398-1.26-2.398-2.815s1.073-2.814 2.398-2.814c1.324 0 2.397 1.259 2.397 2.814ZM75.316 158.243c0 1.555-1.073 2.814-2.398 2.814-1.324 0-2.397-1.259-2.397-2.814 0-1.555 1.073-2.814 2.397-2.814 1.325 0 2.398 1.259 2.398 2.814ZM148.93 161.217c0 1.555-1.073 2.815-2.398 2.815-1.324 0-2.397-1.26-2.397-2.815s1.073-2.814 2.397-2.814c1.325 0 2.398 1.259 2.398 2.814ZM320.495 339.351c0 1.555-1.073 2.814-2.398 2.814-1.324 0-2.397-1.259-2.397-2.814 0-1.555 1.073-2.814 2.397-2.814 1.322.002 2.398 1.262 2.398 2.814ZM314.744 124.941c0 1.555-1.073 2.814-2.398 2.814-1.324 0-2.397-1.259-2.397-2.814 0-1.555 1.073-2.815 2.397-2.815 1.325 0 2.398 1.263 2.398 2.815ZM110.226 224.17c0 1.555-1.073 2.814-2.398 2.814-1.324 0-2.397-1.259-2.397-2.814 0-1.555 1.073-2.815 2.397-2.815 1.325 0 2.398 1.26 2.398 2.815ZM772.582 28.58c0 1.555-1.073 2.815-2.397 2.815-1.325 0-2.398-1.26-2.398-2.814 0-1.555 1.073-2.815 2.398-2.815 1.324 0 2.397 1.26 2.397 2.815ZM1017.77 124.166c0 1.555-1.08 2.815-2.4 2.815-1.33 0-2.4-1.26-2.4-2.815s1.07-2.814 2.4-2.814c1.32 0 2.4 1.259 2.4 2.814ZM282.344 106.6c0 1.554-1.073 2.814-2.397 2.814-1.325 0-2.398-1.26-2.398-2.814 0-1.555 1.073-2.815 2.398-2.815 1.322-.003 2.397 1.26 2.397 2.815ZM460.022 44.5c0 1.555-1.073 2.815-2.398 2.815-1.324 0-2.397-1.26-2.397-2.815 0-1.554 1.073-2.814 2.397-2.814 1.325 0 2.398 1.26 2.398 2.814ZM950.638 152.709c0 1.555-1.073 2.814-2.397 2.814-1.325 0-2.398-1.259-2.398-2.814 0-1.555 1.073-2.815 2.398-2.815 1.324 0 2.397 1.26 2.397 2.815ZM752.865 28.467c0 1.555-1.073 2.814-2.398 2.814-1.324 0-2.397-1.26-2.397-2.814 0-1.555 1.073-2.815 2.397-2.815 1.325 0 2.398 1.26 2.398 2.815ZM262.8 36.368c0 1.555-1.073 2.815-2.397 2.815-1.325 0-2.398-1.26-2.398-2.815s1.073-2.814 2.398-2.814c1.324 0 2.397 1.26 2.397 2.814ZM507.983 131.954c0 1.555-1.072 2.814-2.397 2.814-1.325 0-2.397-1.259-2.397-2.814 0-1.555 1.072-2.815 2.397-2.815 1.325 0 2.397 1.26 2.397 2.815ZM937.181 117.159c0 1.554-1.073 2.814-2.398 2.814-1.324 0-2.397-1.26-2.397-2.814 0-1.555 1.073-2.815 2.397-2.815 1.325 0 2.398 1.262 2.398 2.815ZM555.67 23.239c0 1.555-1.073 2.814-2.397 2.814-1.325 0-2.398-1.26-2.398-2.814 0-1.555 1.073-2.815 2.398-2.815 1.324 0 2.397 1.26 2.397 2.815ZM241.366 225.727c0 1.555-1.073 2.815-2.398 2.815-1.324 0-2.397-1.26-2.397-2.815 0-1.554 1.073-2.814 2.397-2.814 1.325 0 2.398 1.26 2.398 2.814ZM358.908 249.113c0 1.554-1.073 2.814-2.398 2.814-1.324 0-2.397-1.26-2.397-2.814 0-1.555 1.073-2.815 2.397-2.815 1.325 0 2.398 1.26 2.398 2.815ZM1187.85 101.664c0 1.555-1.08 2.814-2.4 2.814-1.33 0-2.4-1.259-2.4-2.814 0-1.555 1.07-2.814 2.4-2.814 1.32 0 2.4 1.259 2.4 2.814ZM1235.81 189.118c0 1.555-1.07 2.814-2.4 2.814-1.32 0-2.4-1.259-2.4-2.814 0-1.555 1.08-2.815 2.4-2.815 1.33 0 2.4 1.26 2.4 2.815ZM674.389 142.136c0 1.555-1.073 2.815-2.397 2.815-1.325 0-2.398-1.26-2.398-2.815s1.073-2.814 2.398-2.814c1.324 0 2.397 1.259 2.397 2.814ZM765.776 252.777c0 1.555-1.073 2.815-2.398 2.815-1.324 0-2.397-1.26-2.397-2.815 0-1.554 1.073-2.814 2.397-2.814 1.325 0 2.398 1.26 2.398 2.814ZM928.754 280.085c0 1.555-1.073 2.814-2.397 2.814-1.325 0-2.398-1.259-2.398-2.814 0-1.555 1.073-2.814 2.398-2.814 1.322 0 2.397 1.259 2.397 2.814ZM697.725 162.065c0 1.555-1.073 2.815-2.398 2.815-1.324 0-2.397-1.26-2.397-2.815s1.073-2.814 2.397-2.814c1.325 0 2.398 1.259 2.398 2.814ZM966.24 133.88c0 1.555-1.073 2.814-2.398 2.814-1.324 0-2.397-1.259-2.397-2.814 0-1.555 1.073-2.814 2.397-2.814 1.322-.003 2.398 1.259 2.398 2.814ZM1039.85 136.854c0 1.555-1.07 2.815-2.39 2.815-1.33 0-2.4-1.26-2.4-2.815s1.07-2.814 2.4-2.814c1.32 0 2.39 1.259 2.39 2.814ZM1211.42 314.988c0 1.555-1.07 2.814-2.4 2.814-1.32 0-2.4-1.259-2.4-2.814 0-1.555 1.08-2.814 2.4-2.814 1.33 0 2.4 1.259 2.4 2.814ZM1205.67 100.578c0 1.555-1.08 2.814-2.4 2.814-1.32 0-2.4-1.259-2.4-2.814 0-1.555 1.08-2.815 2.4-2.815 1.32 0 2.4 1.26 2.4 2.815ZM1001.15 199.807c0 1.555-1.07 2.814-2.398 2.814-1.324 0-2.397-1.259-2.397-2.814 0-1.555 1.073-2.815 2.397-2.815 1.328 0 2.398 1.26 2.398 2.815ZM1173.27 82.234c0 1.555-1.08 2.814-2.4 2.814-1.32 0-2.4-1.26-2.4-2.814 0-1.555 1.08-2.815 2.4-2.815 1.32 0 2.4 1.26 2.4 2.815ZM1350.95 20.135c0 1.555-1.08 2.814-2.4 2.814-1.33 0-2.4-1.26-2.4-2.814 0-1.555 1.07-2.815 2.4-2.815 1.32 0 2.4 1.26 2.4 2.815ZM838.297 84.16c0 1.555-1.073 2.814-2.397 2.814-1.325 0-2.398-1.26-2.398-2.814 0-1.555 1.073-2.814 2.398-2.814 1.324 0 2.397 1.26 2.397 2.814ZM883.569 45.538c0 1.555-1.073 2.814-2.398 2.814-1.324 0-2.397-1.26-2.397-2.814 0-1.555 1.073-2.815 2.397-2.815 1.325.003 2.398 1.263 2.398 2.815ZM1153.73 12.005c0 1.555-1.08 2.815-2.4 2.815-1.33 0-2.4-1.26-2.4-2.815s1.07-2.814 2.4-2.814c1.32 0 2.4 1.26 2.4 2.814ZM1398.91 107.588c0 1.555-1.08 2.815-2.4 2.815-1.32 0-2.4-1.26-2.4-2.815s1.08-2.814 2.4-2.814c1.32.002 2.4 1.262 2.4 2.814ZM1132.29 201.364c0 1.555-1.07 2.815-2.4 2.815-1.32 0-2.4-1.26-2.4-2.815s1.08-2.814 2.4-2.814c1.33 0 2.4 1.259 2.4 2.814ZM1249.83 224.75c0 1.554-1.07 2.814-2.4 2.814-1.32 0-2.39-1.26-2.39-2.814 0-1.555 1.07-2.815 2.39-2.815 1.33 0 2.4 1.26 2.4 2.815Z" clip-rule="evenodd"/><path fill="url(#c)" fill-rule="evenodd" d="M-179.094 644.519s618.281 36.994 855.199 54.233c167.243 12.168 413.985 38.492 413.985 38.492s87.43-18.008 123.73-13.871c210.01 23.935 559.51-.94 559.51-.94l-182.46 11.265s-719.65 3.676-1150.931 11.483c0 0 381.933 20.118 556.068 17.017l198.953 3.789-1374.054 6.266V644.519Z" clip-rule="evenodd" style="mix-blend-mode:overlay"/><path fill="url(#d)" fill-rule="evenodd" d="m439.94 745.181-295.711-6.011s718.627-15.589 936.201-1.842l-640.49 7.853Z" clip-rule="evenodd" opacity=".5" style="mix-blend-mode:overlay"/><path fill="url(#e)" fill-rule="evenodd" d="M288.959 770.118s645.812-15.573 906.001-4.131l-906.001 4.131Z" clip-rule="evenodd" opacity=".5" style="mix-blend-mode:overlay"/><path fill="url(#f)" fill-rule="evenodd" d="m2139 583.484-2318.094 30.938 871.008 3.678L545 623.588l-196.419 6.873 1793.649-1.528-3.23-45.449Z" clip-rule="evenodd" style="mix-blend-mode:overlay"/></g><defs><linearGradient id="b" x1="984.346" x2="984.346" y1="608.593" y2="11.83" gradientUnits="userSpaceOnUse"><stop stop-color="#FFE5E2"/><stop offset=".343" stop-color="#FFF5F2"/><stop offset=".583" stop-color="#fff"/><stop offset="1" stop-color="#F3F7FF"/></linearGradient><linearGradient id="d" x1="144.228" x2="1080.43" y1="738.422" y2="738.422" gradientUnits="userSpaceOnUse"><stop stop-color="#FD3D2A"/><stop offset=".076" stop-color="#E4392A"/><stop offset=".229" stop-color="#B83129"/><stop offset=".383" stop-color="#942B28"/><stop offset=".537" stop-color="#782628"/><stop offset=".692" stop-color="#642327"/><stop offset=".846" stop-color="#582127"/><stop offset="1" stop-color="#542027"/></linearGradient><linearGradient id="e" x1="288.959" x2="1194.96" y1="765.954" y2="765.954" gradientUnits="userSpaceOnUse"><stop stop-color="#FD3D2A"/><stop offset=".076" stop-color="#E4392A"/><stop offset=".229" stop-color="#B83129"/><stop offset=".383" stop-color="#942B28"/><stop offset=".537" stop-color="#782628"/><stop offset=".692" stop-color="#642327"/><stop offset=".846" stop-color="#582127"/><stop offset="1" stop-color="#542027"/></linearGradient><radialGradient id="c" cx="0" cy="0" r="1" gradientTransform="matrix(691.358 0 0 811.595 797.12 708.387)" gradientUnits="userSpaceOnUse"><stop stop-color="#D83D31"/><stop offset=".254" stop-color="#D53A32"/><stop offset=".47" stop-color="#CA3235"/><stop offset=".673" stop-color="#B9243B"/><stop offset=".866" stop-color="#A01142"/><stop offset="1" stop-color="#8A0049"/></radialGradient><radialGradient id="f" cx="0" cy="0" r="1" gradientTransform="matrix(820.834 0 0 963.588 981.568 606.973)" gradientUnits="userSpaceOnUse"><stop stop-color="#D83D31"/><stop offset=".254" stop-color="#D53A32"/><stop offset=".47" stop-color="#CA3235"/><stop offset=".673" stop-color="#B9243B"/><stop offset=".866" stop-color="#A01142"/><stop offset="1" stop-color="#8A0049"/></radialGradient></defs></svg>