<svg width="1920" height="1080" viewBox="0 0 1920 1080" fill="none" xmlns="http://www.w3.org/2000/svg">
<mask id="mask0_17_1521" style="mask-type:luminance" maskUnits="userSpaceOnUse" x="-66" y="0" width="2052" height="1084">
<path d="M1985.11 0H-66V1083.52H1985.11V0Z" fill="white"/>
</mask>
<g mask="url(#mask0_17_1521)">
<path fill-rule="evenodd" clip-rule="evenodd" d="M1811.97 1080.87H107.144C107.144 1080.87 319.145 957.448 552.454 879.635C587.171 868.052 622.372 857.477 657.406 848.487C719.067 832.637 780.26 821.648 837.518 818.549C854.465 817.625 872.045 817.23 890.228 817.341C930.767 817.539 974.078 820.109 1019.11 824.771C1112.73 834.42 1212.32 851.434 1310.8 875.745C1349.54 885.307 1389.26 897.307 1426.62 908.451L1426.73 908.473C1591.77 957.757 1737.44 1020.71 1811.97 1080.87Z" fill="url(#paint0_linear_17_1521)"/>
<path fill-rule="evenodd" clip-rule="evenodd" d="M1811.97 1080.87H107.144C107.144 1080.87 319.145 957.449 552.454 879.635L552.717 879.57C552.717 879.57 1070.1 905.047 1426.62 908.454L1426.73 908.476C1591.77 957.757 1737.44 1020.71 1811.97 1080.87Z" fill="url(#paint1_linear_17_1521)"/>
<g opacity="0.6">
<path fill-rule="evenodd" clip-rule="evenodd" d="M978.626 925.533L980.848 924.358L999.86 899.637L1000.67 899.824C1000.74 900.767 1000.89 902.202 1001.17 903.982L1001.17 903.998L991.433 983.095L997.82 947.458L1001.41 905.318L1001.25 904.418L1001.42 905.315V905.331C1002.99 913.785 1007.56 927.53 1020.67 929.412C1029.37 931.671 1042.01 924.878 1052.89 917.106C1048.25 923.843 1055.6 933.137 1058.04 940.795C1057.14 944.021 1056.19 947.42 1055.21 950.993C1049.23 951.744 1052.19 951.429 1055.19 951.083C1054.46 953.748 1053.71 956.503 1052.94 959.339C1052.88 959.569 1052.82 959.808 1052.76 960.038C1052.43 961.238 1052.11 962.443 1051.79 963.671C1051.78 963.706 1051.77 963.744 1051.76 963.779C1051.38 965.201 1051 966.642 1050.61 968.102C1050.57 968.251 1050.53 968.403 1050.49 968.552C1048.95 974.408 1047.38 980.53 1045.79 986.866C1045.79 986.866 1045.79 986.863 1045.79 986.861L1043.55 995.897L1043.56 995.905C1041.45 1004.58 1039.33 1013.57 1037.29 1022.72V1022.73L1037.23 1023.01L1037.12 1023.51C1034.95 1033.3 1032.88 1043.25 1030.97 1053.2L1030.83 1053.87C1030.83 1053.87 1030.83 1053.88 1030.83 1053.88C1030.12 1057.61 1029.43 1061.33 1028.75 1065.04C1028.75 1065.06 1028.75 1065.08 1028.74 1065.1L1024.59 1086.33C1024.76 1086.75 1024.94 1087.12 1025.11 1087.52C1025.11 1087.53 1025.11 1087.54 1025.1 1087.55C1024.82 1089.48 1024.56 1091.38 1024.3 1093.3V1093.31L1024.29 1093.31L1023.23 1101.81L1023.06 1103.16C1023.05 1103.24 1023.05 1103.33 1023.03 1103.41L1022.87 1104.75L1022.88 1104.75C1022.83 1105.19 1022.78 1105.63 1022.73 1106.08C1022.41 1108.96 1022.13 1111.81 1021.88 1114.61C1021.42 1119.71 1021.07 1124.67 1020.86 1129.44C1020.8 1130.57 1020.76 1131.69 1020.72 1132.8C1020.63 1135.6 1020.58 1138.34 1020.59 1141C1020.59 1142.37 1020.61 1143.71 1020.64 1145.03C1020.69 1147.5 1020.8 1149.88 1020.95 1152.2C1021.02 1153.26 1021.1 1154.31 1021.19 1155.34C1021.33 1156.94 1021.49 1158.5 1021.69 1160.02C1021.87 1161.42 1022.07 1162.78 1022.3 1164.1C1022.48 1165.18 1022.67 1166.24 1022.89 1167.27C1023.21 1168.77 1023.56 1170.21 1023.95 1171.6C1023.99 1171.74 1024.03 1171.9 1024.07 1172.04C1024.13 1172.23 1024.19 1172.42 1024.25 1172.61C1025.98 1178.39 1028.37 1183.08 1031.53 1186.41C1031.96 1186.86 1032.39 1187.28 1032.85 1187.68C1033.72 1188.45 1034.65 1189.12 1035.63 1189.7C1044.82 1196.67 1058.71 1192.94 1075.44 1181.95C1094.09 1170.34 1115.86 1150.03 1138.45 1125.49C1143.15 1120.37 1147.9 1115.06 1152.66 1109.62C1155.35 1106.54 1158.05 1103.41 1160.74 1100.23L1160.75 1100.23L1161.25 1099.63C1162.65 1097.99 1164.05 1096.29 1165.45 1094.63C1167.5 1092.2 1169.55 1089.78 1171.6 1087.31C1175.08 1083.1 1178.55 1078.84 1182 1074.56L1182.52 1073.92C1184.9 1070.98 1187.26 1068.02 1189.62 1065.04C1189.65 1064.97 1189.71 1064.9 1189.77 1064.83C1196.01 1056.95 1202.17 1049 1208.22 1041.07C1209.19 1039.8 1210.17 1038.53 1211.13 1037.27C1213.17 1034.58 1215.2 1031.9 1217.21 1029.22L1217.22 1029.22L1217.24 1029.2C1248.51 987.578 1275.58 948.13 1291.07 925.075L1291.52 924.398L1291.07 925.075L1287.15 943.119L1297.85 984.753L1291.66 944.365L1304.83 904.299L1304.54 904.749L1304.58 904.659L1304.83 904.299C1304.83 904.299 1303.46 904.145 1300.93 903.871H1300.91C1297.71 903.53 1292.67 902.999 1286.14 902.381C1286.14 902.365 1286.14 902.365 1286.14 902.346C1286.1 902.346 1286.05 902.362 1285.99 902.362C1285.95 902.362 1285.92 902.346 1285.86 902.346H1285.84C1285.78 902.346 1285.71 902.346 1285.63 902.33C1284.98 902.278 1284.31 902.21 1283.61 902.159L1283.54 902.346C1281.48 902.346 1279.4 902.346 1277.3 902.33C1270.34 902.313 1263.21 902.278 1255.96 902.243C1253.62 902.227 1251.26 902.208 1248.88 902.191C1234.54 902.089 1219.71 901.95 1204.48 901.78C1204.28 901.78 1204.07 901.764 1203.85 901.764H1203.83C1191.19 901.628 1178.29 901.438 1165.16 901.249H1165.14C1155.74 901.111 1146.21 900.959 1136.59 900.786H1136.57C1133.85 900.734 1131.14 900.683 1128.39 900.631H1128.37C1120.34 900.493 1112.23 900.358 1104.06 900.187H1104.01C1094.05 900 1084.01 899.81 1073.92 899.588C1073.99 899.502 1074.05 899.434 1074.11 899.382C1074.03 899.434 1073.94 899.518 1073.86 899.588C1073.38 899.588 1072.87 899.572 1072.38 899.553C1071.86 899.553 1071.34 899.537 1070.81 899.537C1069.48 899.502 1068.13 899.469 1066.8 899.45C1066.48 899.434 1066.15 899.434 1065.83 899.434C1050.62 899.109 1035.33 898.768 1019.99 898.424C1014.73 898.285 1009.45 898.166 1004.17 898.031C1004.15 898.031 1004.15 898.031 1004.13 898.031C1000.1 897.947 996.08 897.841 992.053 897.741L998.325 899.247L998.334 899.25L977.636 915.838V915.83L976.457 916.773V916.784L940.169 945.868L976.944 926.411L978.626 925.533ZM1304.51 904.787C1304.51 904.787 1304.52 904.781 1304.53 904.773L1304.06 905.48L1304.12 905.385L1304.51 904.787ZM1302.11 908.4L1303.91 905.697C1303.94 905.675 1303.94 905.653 1303.96 905.634L1301.75 908.966L1302.11 908.4Z" fill="url(#paint2_linear_17_1521)"/>
<path fill-rule="evenodd" clip-rule="evenodd" d="M631.154 902.511L638.549 887.263C638.099 887.247 637.651 887.228 637.22 887.212L631.154 902.511Z" fill="url(#paint3_linear_17_1521)"/>
<path fill-rule="evenodd" clip-rule="evenodd" d="M654.39 887.811L654.84 891.679L654.764 887.811H654.39Z" fill="url(#paint4_linear_17_1521)"/>
<path fill-rule="evenodd" clip-rule="evenodd" d="M880.34 894.826L880.098 894.997L887.888 907.712L905.171 922.911L881.221 894.843C880.921 894.845 880.64 894.826 880.34 894.826Z" fill="url(#paint5_linear_17_1521)"/>
<path fill-rule="evenodd" clip-rule="evenodd" d="M904.459 900.219L884.405 894.929L882.607 894.878L893.748 900.219H904.459Z" fill="url(#paint6_linear_17_1521)"/>
<path fill-rule="evenodd" clip-rule="evenodd" d="M849.314 893.919C849.259 893.935 849.201 893.919 849.146 893.919C848.791 893.919 848.435 893.903 848.098 893.884C838.474 893.626 828.962 893.336 819.561 893.063C818.345 893.011 817.127 892.976 815.911 892.944C809.6 892.757 803.365 892.567 797.186 892.396C795.912 892.345 794.657 892.31 793.404 892.277C793.272 892.261 793.141 892.261 793.03 892.261C792.075 892.226 791.119 892.21 790.185 892.174C780.579 891.885 771.162 891.592 761.929 891.302C761.574 891.286 761.237 891.286 760.882 891.267C756.855 891.148 752.849 891.01 748.899 890.89C746.333 890.804 743.806 890.736 741.296 890.652C739.948 890.601 738.619 890.565 737.308 890.514C719.97 889.967 703.434 889.436 687.932 888.921H687.764C693.212 892.892 698.868 896.503 704.505 899.377C704.786 899.531 705.066 899.686 705.347 899.805C713.98 904.272 722.199 906.84 728.715 905.762C732.797 905.488 736.598 904.291 739.987 901.91C741.093 906.566 742.346 911.802 743.751 917.485L744.351 919.934C744.351 919.934 744.351 919.934 744.369 919.934C747.796 933.798 751.97 950.04 756.56 966.572V966.577L756.548 966.569L756.763 967.341L756.768 967.344C757.61 970.372 758.47 973.417 759.331 976.462L763.376 990.306C763.976 992.292 764.574 994.277 765.192 996.244C765.188 996.241 765.183 996.241 765.178 996.239L765.508 997.309C765.598 997.596 765.686 997.883 765.771 998.178L765.995 998.915C765.995 998.915 765.995 998.915 766.014 998.931C770.04 1011.92 774.196 1024.21 778.315 1034.7C778.315 1034.7 778.315 1034.7 778.317 1034.7L778.31 1034.7L778.645 1035.54C779.065 1036.61 779.482 1037.65 779.905 1038.67L780.152 1039.28C780.502 1040.14 780.853 1040.98 781.204 1041.8C781.656 1042.87 782.108 1043.9 782.561 1044.91C786.287 1053.29 789.924 1059.83 793.325 1063.65C794.278 1064.72 795.213 1065.58 796.126 1066.2C796.611 1066.54 797.086 1066.8 797.55 1067C798.48 1067.4 799.371 1067.54 800.227 1067.42C800.361 1067.4 800.485 1067.34 800.617 1067.31C800.908 1067.25 801.201 1067.2 801.485 1067.07C802.163 1066.78 802.811 1066.29 803.441 1065.68C803.571 1065.56 803.702 1065.46 803.829 1065.33C803.903 1065.25 803.972 1065.14 804.046 1065.06C804.344 1064.72 804.639 1064.37 804.925 1063.96C807.05 1060.92 808.873 1056.03 810.435 1049.8C810.445 1049.76 810.456 1049.72 810.465 1049.68C811.25 1046.54 811.968 1043.05 812.623 1039.29L812.63 1039.28L812.775 1038.39C813.057 1036.76 813.327 1035.08 813.597 1033.34L813.634 1033.09C813.894 1031.3 814.141 1029.44 814.383 1027.56C814.82 1024.18 815.226 1020.67 815.6 1017.03L815.613 1016.92L815.618 1016.88C815.673 1016.31 815.731 1015.77 815.786 1015.2V1015.19C816.049 1012.53 816.292 1009.83 816.516 1007.07C816.721 1004.56 816.917 1002.01 817.099 999.438C817.256 997.227 817.397 994.992 817.529 992.75C817.549 992.387 817.577 992.029 817.598 991.663C817.609 991.596 817.619 991.555 817.619 991.555V991.536L817.805 988.47C817.974 985.319 818.142 982.172 818.292 979.005C818.311 978.834 818.311 978.748 818.311 978.748V978.713C819.229 959.014 819.566 939.364 819.658 923.74C819.665 923.74 819.698 923.74 819.698 923.74L819.658 922.949C819.665 922.104 819.668 921.297 819.672 920.476C819.723 910.559 819.672 902.492 819.621 897.454C819.64 897.505 819.658 897.573 819.677 897.643C820.014 898.979 821.156 901.631 822.859 904.781C822.896 904.868 822.935 904.952 822.99 905.038C826.491 911.935 832.52 921.367 840.124 923.488C840.461 923.575 840.797 923.643 841.153 923.678C841.453 923.729 841.771 923.745 842.126 923.745C842.505 923.74 842.909 923.689 843.324 923.621C848.493 923.003 855.178 918.596 861.45 913.357C861.505 913.306 861.563 913.271 861.6 913.219C865.513 910.207 868.321 907.709 868.321 907.709C868.321 907.709 868.284 907.571 868.19 907.333C874.988 900.88 880.099 894.992 880.099 894.992L873.319 894.615C865.25 894.398 857.255 894.16 849.314 893.919Z" fill="url(#paint7_linear_17_1521)"/>
<path fill-rule="evenodd" clip-rule="evenodd" d="M1170.74 896.657L1170.22 896.674C1170.39 896.674 1170.54 896.674 1170.71 896.69C1170.72 896.676 1170.72 896.676 1170.74 896.657Z" fill="url(#paint8_linear_17_1521)"/>
<path fill-rule="evenodd" clip-rule="evenodd" d="M1210.5 897.034C1210.35 897.121 1210.2 897.256 1209.99 897.394H1210.08C1210.25 897.256 1210.38 897.156 1210.5 897.034Z" fill="url(#paint9_linear_17_1521)"/>
</g>
<path fill-rule="evenodd" clip-rule="evenodd" d="M1389.48 897.69L1451.73 906.669C1451.73 906.669 807.668 897.665 495.203 882.951L572.356 873.129L552.452 879.635C552.452 879.635 1172.43 909.627 1400.44 900.742L1389.48 897.69Z" fill="white"/>
<path opacity="0.5" fill-rule="evenodd" clip-rule="evenodd" d="M890.228 817.341C852.798 818.351 790.837 832.266 790.837 832.266C790.837 832.266 747.696 851.675 696.933 858.753C646.171 865.853 650.366 858.753 650.366 858.753L657.406 848.487C719.067 832.637 780.26 821.648 837.518 818.549C854.464 817.625 872.045 817.23 890.228 817.341Z" fill="#91001D"/>
<path opacity="0.5" fill-rule="evenodd" clip-rule="evenodd" d="M1302.86 875.003L1286.85 878.752L1292.58 894.759C1292.58 894.759 1277.11 897.833 1258.84 896.996C1240.58 896.183 1215.12 886.031 1215.12 886.031C1215.12 886.031 1163.91 887.702 1131.63 886.031C1099.35 884.359 1047.08 889.241 987.466 881.523L1012.31 875.743L1056.97 867.587C1056.97 867.587 1034.89 834.306 1019.11 824.768C1112.73 834.42 1204.38 850.692 1302.86 875.003Z" fill="#91001D"/>
<path fill-rule="evenodd" clip-rule="evenodd" d="M1067.91 871.33C1067.91 871.33 988.256 624.426 1035.63 597.354C1096.82 562.386 1304.84 874.11 1304.84 874.11C1304.84 874.11 1142.81 892.505 1067.91 871.33Z" fill="url(#paint10_linear_17_1521)"/>
<path fill-rule="evenodd" clip-rule="evenodd" d="M1035.63 597.354C996.804 625.904 1105.3 857.385 1129.89 874.421C1154.49 891.459 1301.9 878.722 1304.84 874.109C1304.84 874.109 1089.42 557.794 1035.63 597.354Z" fill="#FDCD9B"/>
<path opacity="0.69" fill-rule="evenodd" clip-rule="evenodd" d="M1040.65 689.066C1040.65 689.066 1122.15 846.22 1170.75 881.521L1129.89 880.332C1129.89 880.332 1059.08 755.467 1040.65 689.066Z" fill="#CCB689"/>
<path opacity="0.15" fill-rule="evenodd" clip-rule="evenodd" d="M1030.83 729.077C1030.83 729.077 1039.4 712.237 1045.97 705.906C1052.54 699.576 1160.75 684.117 1160.75 684.117L1182.52 709.626C1182.52 709.626 1103.05 703.512 1080.84 710.403C1058.62 717.291 1037.29 759.283 1037.29 759.283L1030.83 729.077Z" fill="#B69A7E"/>
<path opacity="0.15" fill-rule="evenodd" clip-rule="evenodd" d="M1028.75 718.245C1028.75 718.245 1037.67 700.02 1044.69 696.721C1051.7 693.421 1125.13 688.093 1152.65 675.01L1149.22 672.778C1149.22 672.778 1127.61 682.594 1090.7 686.53C1053.79 690.466 1035.42 671.274 1024.59 697.604L1028.75 718.245Z" fill="#B69A7E"/>
<path opacity="0.46" fill-rule="evenodd" clip-rule="evenodd" d="M1043.55 785.293C1043.55 785.293 1060.73 770.259 1071.72 770.592C1082.72 770.926 1187.8 765.029 1217.21 752.969L1219.7 757.718C1219.7 757.718 1137.24 781.577 1076.34 780.927C1076.34 780.927 1052.25 781.999 1045.79 794.056L1043.55 785.293Z" fill="#B88776"/>
<path opacity="0.69" fill-rule="evenodd" clip-rule="evenodd" d="M1126.6 790.15L1197.52 771.779L1229.44 833.139L1182.52 843.541L1126.6 790.15Z" fill="#C17A5F"/>
<path opacity="0.69" fill-rule="evenodd" clip-rule="evenodd" d="M1134.07 755.353L1129.89 748.461L1138.89 732.883L1149.22 755.353H1134.07Z" fill="#C17A5F"/>
<path opacity="0.69" fill-rule="evenodd" clip-rule="evenodd" d="M1059.21 659.632L1055.03 652.741L1064.03 637.16L1074.36 659.632H1059.21Z" fill="#C17A5F"/>
<path opacity="0.69" fill-rule="evenodd" clip-rule="evenodd" d="M1057.74 672.78L1040.64 655.942L1035.63 626.251L1046.69 607.114L1070.98 665.467L1057.74 672.78Z" fill="#C17A5F"/>
<path opacity="0.69" fill-rule="evenodd" clip-rule="evenodd" d="M1075.8 670.54L1064.69 639.947L1070.98 633.132L1088.62 665.467L1075.8 670.54Z" fill="#C17A5F"/>
<path fill-rule="evenodd" clip-rule="evenodd" d="M1116.8 678.336L1105.7 647.743L1111.99 640.927L1129.63 673.262L1116.8 678.336Z" fill="#C17A5F"/>
<path fill-rule="evenodd" clip-rule="evenodd" d="M1098.76 732.883L1056.96 617.694L1063.25 610.879L1121.56 717.766L1098.76 732.883Z" fill="#C17A5F"/>
<path fill-rule="evenodd" clip-rule="evenodd" d="M1086.16 736.015L1044.36 620.828L1050.65 614.01L1108.96 720.897L1086.16 736.015Z" fill="#C17A5F"/>
<path opacity="0.69" fill-rule="evenodd" clip-rule="evenodd" d="M1120.7 674.647L1109.6 644.053L1115.89 637.235L1133.53 669.573L1120.7 674.647Z" fill="#C17A5F"/>
<path opacity="0.69" fill-rule="evenodd" clip-rule="evenodd" d="M1189.12 853.964L1178.02 823.371L1184.31 816.553L1201.95 848.891L1189.12 853.964Z" fill="#C17A5F"/>
<path opacity="0.69" fill-rule="evenodd" clip-rule="evenodd" d="M1056.88 647.077L1045.78 616.483L1052.07 609.665L1069.71 642.003L1056.88 647.077Z" fill="#C17A5F"/>
<path fill-rule="evenodd" clip-rule="evenodd" d="M1093.85 840.315L1057.74 748.462L1050.86 759.281L1072.35 843.725L1093.85 840.315Z" fill="#898E9F"/>
<path fill-rule="evenodd" clip-rule="evenodd" d="M1075.8 861.595L1053.31 796.093L1050.86 800.455L1070.98 872.162L1080.8 874.424L1075.8 861.595Z" fill="#898E9F"/>
<path fill-rule="evenodd" clip-rule="evenodd" d="M1024.59 639.592L1043.56 715.081L1050.86 748.44L1040.65 748.462L1024.59 684.114V639.592Z" fill="#898E9F"/>
<path opacity="0.69" fill-rule="evenodd" clip-rule="evenodd" d="M1121.57 765.73L1105.7 732.883H1093.85L1113.18 773.515L1121.57 771.779V765.73Z" fill="#FDAC5F"/>
<path opacity="0.69" fill-rule="evenodd" clip-rule="evenodd" d="M1150.97 857.515L1145.98 846.35L1149.41 843.248L1156.7 855.652L1150.97 857.515Z" fill="#FDAC5F"/>
<path opacity="0.69" fill-rule="evenodd" clip-rule="evenodd" d="M1189.61 718.245L1170.75 725.475L1224.6 822.106H1265.59C1265.59 822.106 1203.03 737.41 1189.61 718.245Z" fill="#FDAC5F"/>
<path fill-rule="evenodd" clip-rule="evenodd" d="M1060.35 846.62C1060.35 846.62 1065.22 804.726 1086.97 803.58C1098.32 802.982 1210.99 881.521 1210.99 881.521C1210.99 881.521 1097.44 794.194 1083.38 796.093C1069.31 797.995 1063.07 828.656 1062.18 833.139C1061.29 837.622 1060.35 843.725 1060.35 843.725V846.62Z" fill="#A5443B"/>
<path fill-rule="evenodd" clip-rule="evenodd" d="M1022.86 679.734C1022.86 679.734 1034.63 682.12 1045.78 683.51C1056.92 684.899 1122.61 706.586 1143.71 697.728C1152.79 693.914 1133.53 655.528 1133.53 655.528L1138.44 659.632C1138.44 659.632 1150.69 692.85 1145.42 698.917C1140.15 704.985 1046.36 685.958 1040.64 686.451C1034.93 686.944 1024.29 690.837 1024.29 690.837L1022.86 679.734Z" fill="#862B3B"/>
<path fill-rule="evenodd" clip-rule="evenodd" d="M1084.61 797.133L1086.16 801.906C1086.16 801.906 1103.89 807.711 1125.37 822.106C1125.37 822.106 1100.85 800.701 1084.61 797.133Z" fill="#CD703A"/>
<path fill-rule="evenodd" clip-rule="evenodd" d="M1255.95 845.461L1250.6 830.847L1253.27 822.721L1260.36 845.461H1255.95Z" fill="#FDCD9B"/>
<path fill-rule="evenodd" clip-rule="evenodd" d="M819.543 819.958C819.543 819.958 808.084 824.508 790.951 828.068C775.465 831.299 755.355 833.718 734.909 831.256C734.909 831.256 772.565 666.398 796.12 650.725C806.644 643.712 812.524 667.98 815.782 700.182V700.204C820.854 750.452 819.543 819.958 819.543 819.958Z" fill="url(#paint11_linear_17_1521)"/>
<path fill-rule="evenodd" clip-rule="evenodd" d="M815.78 700.182V700.204C815.219 729.419 791.419 826.177 790.951 828.068C775.465 831.299 755.355 833.718 734.909 831.256C734.909 831.256 772.565 666.398 796.12 650.725C806.642 643.712 812.521 667.98 815.78 700.182Z" fill="#FDCD9B"/>
<path opacity="0.69" fill-rule="evenodd" clip-rule="evenodd" d="M787.866 828.688C787.866 828.688 813.198 729.053 814.488 714.628C814.488 714.628 803.691 785.309 790.951 828.068L787.866 828.688Z" fill="#CCB689"/>
<path opacity="0.15" fill-rule="evenodd" clip-rule="evenodd" d="M763.376 724.326C763.376 724.326 808.488 720.401 813.133 723.115C817.778 725.829 818.297 735.538 818.297 735.538V737.756C818.297 737.756 816.347 728.178 812.801 726.095C809.254 724.012 785.72 727.205 778.031 727.205C770.343 727.205 759.322 737.756 759.322 737.756L763.376 724.326Z" fill="#B69A7E"/>
<path opacity="0.46" fill-rule="evenodd" clip-rule="evenodd" d="M765.996 715.991C765.996 715.991 806.682 695.846 815.595 698.408L816.509 708.073C816.509 708.073 790.155 708.005 765.172 718.578L765.996 715.991Z" fill="#B88776"/>
<path opacity="0.15" fill-rule="evenodd" clip-rule="evenodd" d="M778.306 681.281C778.306 681.281 806.993 674.557 813.622 682.835L812.621 676.835C812.621 676.835 788.821 671.093 780.145 676.835L778.306 681.281Z" fill="#B69A7E"/>
<path opacity="0.46" fill-rule="evenodd" clip-rule="evenodd" d="M819.696 788.874C819.696 788.874 804.45 788.554 797.804 788.874C791.159 789.194 744.351 792.574 744.351 792.574L743.746 794.945C743.746 794.945 793.554 790.025 799.23 789.922C804.907 789.819 819.541 791.838 819.541 791.838L819.696 788.874Z" fill="#B88776"/>
<path fill-rule="evenodd" clip-rule="evenodd" d="M801.176 800.232L812.566 743.312L816.509 746.506L811.026 791.838H812.801L815.78 770.522L818.297 771.657L815.78 821.323L795.564 827.055L801.176 800.232Z" fill="#898E9F"/>
<path opacity="0.69" fill-rule="evenodd" clip-rule="evenodd" d="M748.943 797.708L762.541 740.888L784.573 734.154L778.306 764.969L781.721 764.414L783.828 743.312H790.84L777.302 801.898L748.943 797.708Z" fill="#FDAC5F"/>
<path opacity="0.69" fill-rule="evenodd" clip-rule="evenodd" d="M778.306 807.727L787.866 771.657H790.84L781.721 806.243L778.306 807.727Z" fill="#FDAC5F"/>
<path fill-rule="evenodd" clip-rule="evenodd" d="M785.837 686.116L780.691 718.578H795.563L799.135 678.707L785.837 686.116Z" fill="#C17A5F"/>
<path fill-rule="evenodd" clip-rule="evenodd" d="M789.914 708.379L794.469 671.529L806.93 669.871L801.92 703.606L789.914 708.379Z" fill="#C17A5F"/>
<path fill-rule="evenodd" clip-rule="evenodd" d="M784.247 794.227L788.804 757.373L801.265 755.718L796.255 789.454L784.247 794.227Z" fill="#C17A5F"/>
<path fill-rule="evenodd" clip-rule="evenodd" d="M780.691 701.764H785.955L787.865 680.839L784.279 682.835L780.691 701.764Z" fill="#C17A5F"/>
<path fill-rule="evenodd" clip-rule="evenodd" d="M786.784 674.281L786.378 697.149L795.564 695.832L799.136 666.818L786.784 674.281Z" fill="#C17A5F"/>
<path opacity="0.69" fill-rule="evenodd" clip-rule="evenodd" d="M801.265 714.628L805.114 693.958L806.06 701.764L803.662 714.628H801.265Z" fill="#FDAC5F"/>
<path opacity="0.69" fill-rule="evenodd" clip-rule="evenodd" d="M801.265 758.167L803.662 752.335L806.93 750.956L804.096 755.954L801.265 758.167Z" fill="#FDAC5F"/>
<path fill-rule="evenodd" clip-rule="evenodd" d="M756.756 746.6C756.756 746.6 812.745 715.406 814.487 715.544C816.229 715.682 817.614 723.112 817.614 723.112L817.796 726.111C817.796 726.111 814.416 719.783 811.381 719.64C804.097 719.293 756.541 747.348 756.541 747.348L756.756 746.6Z" fill="#862B3B"/>
<path fill-rule="evenodd" clip-rule="evenodd" d="M582.29 869.981C582.29 869.981 585.622 858.853 591.769 854.671C597.919 850.488 604.897 862.326 604.897 862.326L582.29 869.981Z" fill="url(#paint12_linear_17_1521)"/>
<path fill-rule="evenodd" clip-rule="evenodd" d="M1343.44 884.779C1343.44 884.779 1345.33 869.09 1354.32 865.203C1363.3 861.316 1379.01 894.767 1379.01 894.767L1343.44 884.779Z" fill="url(#paint13_linear_17_1521)"/>
<path fill-rule="evenodd" clip-rule="evenodd" d="M1074.86 879.562C1074.86 879.562 1039.8 847.097 1020.67 849.765C1001.54 852.431 1000.59 879.562 1000.59 879.562C1000.59 879.562 1065.87 891.302 1074.86 879.562Z" fill="url(#paint14_linear_17_1521)"/>
<path fill-rule="evenodd" clip-rule="evenodd" d="M1245.17 889.899C1245.17 889.899 1251.32 855.348 1267.04 855.762C1282.76 856.177 1292.35 893.233 1292.58 894.767C1292.82 896.3 1245.77 896.825 1245.17 889.899Z" fill="url(#paint15_linear_17_1521)"/>
<path fill-rule="evenodd" clip-rule="evenodd" d="M754.581 840.804C743.854 764.107 668.168 836.362 651.612 854.668C635.053 872.977 755.687 848.714 754.581 840.804Z" fill="url(#paint16_linear_17_1521)"/>
<path fill-rule="evenodd" clip-rule="evenodd" d="M819.616 814.372C819.616 814.372 827.819 792.458 840.118 789.126C852.417 785.794 880.091 816.759 880.091 816.759L819.542 819.966L819.616 814.372Z" fill="url(#paint17_linear_17_1521)"/>
<path fill-rule="evenodd" clip-rule="evenodd" d="M1020.67 849.765C1008.68 852.775 1018.81 878.682 1020.93 881.521C1023.06 884.362 1059.78 886.632 1074.86 879.562C1074.86 879.562 1039.03 845.155 1020.67 849.765Z" fill="#FDCD9B"/>
<path fill-rule="evenodd" clip-rule="evenodd" d="M1267.04 855.763C1250.33 860.641 1256.89 887.532 1258.94 891.235C1260.98 894.935 1291.97 892.304 1291.66 891.235C1291.35 890.165 1278.69 852.36 1267.04 855.763Z" fill="#FDCD9B"/>
<path opacity="0.69" fill-rule="evenodd" clip-rule="evenodd" d="M1354.32 865.203C1348.66 868.204 1354.1 886.982 1356.75 888.518C1359.4 890.053 1379.01 894.767 1379.01 894.767C1379.01 894.767 1362.95 860.622 1354.32 865.203Z" fill="#FDAC5F"/>
<path fill-rule="evenodd" clip-rule="evenodd" d="M728.718 806.319C746.668 809.177 741.963 840.989 741.016 843.725C740.07 846.461 688.745 856.735 674.318 858.26C659.889 859.788 651.257 857.602 651.612 854.669C651.965 851.738 703.291 802.272 728.718 806.319Z" fill="#FDCD9B"/>
<path opacity="0.69" fill-rule="evenodd" clip-rule="evenodd" d="M819.617 814.372C819.617 814.372 837.103 818.66 850.939 817.726C864.774 816.788 868.323 804.423 868.323 804.423C868.323 804.423 848.986 787.739 841.146 788.936C831.009 790.483 820.581 810.396 819.617 814.372Z" fill="#FDAC5F"/>
<path opacity="0.69" fill-rule="evenodd" clip-rule="evenodd" d="M582.29 869.981C582.29 869.981 592.037 866.454 595.584 863.745C599.132 861.039 594.785 853.774 594.785 853.774C594.785 853.774 588.153 852.163 582.29 869.981Z" fill="#FDAC5F"/>
<path opacity="0.69" fill-rule="evenodd" clip-rule="evenodd" d="M1273.8 867.194L1280.76 884.779H1287.15L1280.48 868.535L1273.8 867.194Z" fill="#FDAC5F"/>
<path opacity="0.69" fill-rule="evenodd" clip-rule="evenodd" d="M1274.82 889.899L1273.8 886.028L1271.71 886.86V889.899H1274.82Z" fill="#FDAC5F"/>
<path opacity="0.69" fill-rule="evenodd" clip-rule="evenodd" d="M1366.97 883.027L1365.43 876.761V873.129L1371.32 884.779L1366.97 883.027Z" fill="#FDAC5F"/>
<path opacity="0.69" fill-rule="evenodd" clip-rule="evenodd" d="M1030.83 867.194L1029.04 864.577L1033.65 861.662L1048.1 874.424L1030.83 877.282V867.194Z" fill="#FDAC5F"/>
<path opacity="0.69" fill-rule="evenodd" clip-rule="evenodd" d="M1024.59 871.658L1019.11 864.786V868.223L1023.36 873.129L1024.59 871.658Z" fill="#FDAC5F"/>
<path opacity="0.69" fill-rule="evenodd" clip-rule="evenodd" d="M857.266 810.504L847.687 794.947L848.751 793.52L863.888 808.424L857.266 810.504Z" fill="#FDAC5F"/>
<path opacity="0.69" fill-rule="evenodd" clip-rule="evenodd" d="M823.562 812.449L827.347 806.479H829.356L827.582 812.449H823.562Z" fill="#FDAC5F"/>
<path opacity="0.69" fill-rule="evenodd" clip-rule="evenodd" d="M659.178 849.765L691.425 827.055L702.319 828.688L683.658 849.765H659.178Z" fill="#FDAC5F"/>
<path opacity="0.69" fill-rule="evenodd" clip-rule="evenodd" d="M700.51 835.842L706.542 827.055H712.04L709.202 836.257L700.51 835.842Z" fill="#FDAC5F"/>
<path fill-rule="evenodd" clip-rule="evenodd" d="M1304.83 874.109L1291.66 835.257L1297.85 796.093L1287.15 836.465L1291.07 853.964L1304.83 874.109Z" fill="#BDAA11"/>
<path fill-rule="evenodd" clip-rule="evenodd" d="M1343.44 884.78L1332.2 850.38L1341.78 884.78H1343.44Z" fill="#867A0F"/>
<path fill-rule="evenodd" clip-rule="evenodd" d="M1379.01 894.767L1384.66 875.746L1408.13 832.716L1384.66 881.521L1379.01 894.767Z" fill="#867A0F"/>
<path fill-rule="evenodd" clip-rule="evenodd" d="M1000.59 879.562L980.848 854.671L940.167 833.8L999.061 879.571L1000.59 879.562Z" fill="#867A0F"/>
<path fill-rule="evenodd" clip-rule="evenodd" d="M1001.17 874.424L991.432 797.707L997.819 832.264L1001.4 873.129L1001.17 874.424Z" fill="#867A0F"/>
<path fill-rule="evenodd" clip-rule="evenodd" d="M1062.2 884.259L1074.63 865.62L1076.39 836.064L1077.54 866.081L1062.2 884.259Z" fill="#BDAA11"/>
<path fill-rule="evenodd" clip-rule="evenodd" d="M1066.53 883.566L1076.67 872.075L1086.25 865.62L1067.44 883.374L1066.53 883.566Z" fill="#BDAA11"/>
<path fill-rule="evenodd" clip-rule="evenodd" d="M1188.86 864.78L1192.42 838.792L1182.52 746.59L1187.47 842.444L1186.3 862.868L1188.86 864.78Z" fill="#867A0F"/>
<path fill-rule="evenodd" clip-rule="evenodd" d="M1135.67 830.847L1111.66 783.752L1131.63 828.252L1135.67 830.847Z" fill="#867A0F"/>
<path fill-rule="evenodd" clip-rule="evenodd" d="M754.582 840.805L765.171 806.479L758.518 834.937L754.582 840.805Z" fill="#867A0F"/>
<path fill-rule="evenodd" clip-rule="evenodd" d="M753.333 833.8L756.982 822.027L753.834 836.257L753.333 833.8Z" fill="#867A0F"/>
<path fill-rule="evenodd" clip-rule="evenodd" d="M651.609 854.671L644.987 843.337L631.151 809.464L653.058 853.333L651.609 854.671Z" fill="#BDAA11"/>
<path fill-rule="evenodd" clip-rule="evenodd" d="M653.944 852.084L652.35 840.805L654.833 819.966L654.122 851.84L653.944 852.084Z" fill="#BDAA11"/>
<path fill-rule="evenodd" clip-rule="evenodd" d="M880.09 816.759L887.894 804.42L905.161 789.692L880.859 817.311L880.09 816.759Z" fill="#867A0F"/>
<path fill-rule="evenodd" clip-rule="evenodd" d="M881.627 817.317L893.749 811.685H904.451L882.513 817.311L881.627 817.317Z" fill="#867A0F"/>
<path fill-rule="evenodd" clip-rule="evenodd" d="M766.775 845.927L770.606 846.688L772.436 845.927L768.245 844.93L766.775 845.927Z" fill="#FDA774"/>
<path fill-rule="evenodd" clip-rule="evenodd" d="M775.118 844.93L779.62 845.401L780.684 844.131L776.591 843.982L775.118 844.93Z" fill="#FDA774"/>
<path fill-rule="evenodd" clip-rule="evenodd" d="M903.202 845.461L925.416 847.211L918.378 851.087L903.202 848.273V845.461Z" fill="#FDA774"/>
<path fill-rule="evenodd" clip-rule="evenodd" d="M742.225 870.317L764.442 872.064L757.404 875.941L742.225 873.129V870.317Z" fill="#FD985E"/>
<path fill-rule="evenodd" clip-rule="evenodd" d="M927.25 850.751L928.798 849.356L933.515 848.273L935.848 849.513L927.25 850.751Z" fill="#FDA774"/>
<path fill-rule="evenodd" clip-rule="evenodd" d="M954.335 867.413L958.05 868.534L959.555 866.687L954.335 867.413Z" fill="#FDA774"/>
<path fill-rule="evenodd" clip-rule="evenodd" d="M870.123 836.01H873.617L874.722 837.53L868.323 836.768L870.123 836.01Z" fill="#FDA774"/>
<path fill-rule="evenodd" clip-rule="evenodd" d="M875.58 833.9L876.226 833.507L879.741 833.236L881.148 833.9H875.58Z" fill="#FDA774"/>
<path fill-rule="evenodd" clip-rule="evenodd" d="M883.28 833.9L884.072 833.507L885.17 833.705L883.28 833.9Z" fill="#FDA774"/>
<path fill-rule="evenodd" clip-rule="evenodd" d="M852.492 884.701L848.05 883.891L843.832 886.386H846.278L854.546 885.671L852.492 884.701Z" fill="#FD985E"/>
<path fill-rule="evenodd" clip-rule="evenodd" d="M852.492 886.797L855.895 886.385L858.932 886.797L857.245 887.718H851.237L852.492 886.797Z" fill="#FD985E"/>
<path fill-rule="evenodd" clip-rule="evenodd" d="M818.991 853.731H827.746L829.973 850.461L819.464 851.315L818.991 853.731Z" fill="#FDA774"/>
<path fill-rule="evenodd" clip-rule="evenodd" d="M980.834 832.9L973.467 835.614L974.48 833.77L977.992 832.188L980.834 832.9Z" fill="#FDA774"/>
<path fill-rule="evenodd" clip-rule="evenodd" d="M806.06 874.367C806.06 874.367 809.727 869.369 813.156 874.367H806.06Z" fill="#8F4D5E"/>
<path fill-rule="evenodd" clip-rule="evenodd" d="M815.779 874.367C815.779 874.367 820.062 866.175 829.972 865.206C839.883 864.233 846.979 874.367 846.979 874.367C846.979 874.367 828.454 876.864 815.779 874.367Z" fill="#8F4D5E"/>
<path fill-rule="evenodd" clip-rule="evenodd" d="M893.041 889.899C893.041 889.899 897.121 887.467 901.143 887.719C905.162 887.971 907.292 893.158 907.292 893.158C907.292 893.158 898.657 894.881 893.041 889.899Z" fill="#8F4D5E"/>
<path fill-rule="evenodd" clip-rule="evenodd" d="M1318.6 890.574C1318.6 890.574 1328.12 885.682 1333.62 893.144C1333.62 893.144 1325.05 895.328 1318.6 890.574Z" fill="#8F4D5E"/>
<path fill-rule="evenodd" clip-rule="evenodd" d="M921.246 888.626C921.246 888.626 918.881 877.897 929.998 888.626C929.998 888.626 926.687 889.558 921.246 888.626Z" fill="#8F4D5E"/>
<path fill-rule="evenodd" clip-rule="evenodd" d="M907.855 817.571C907.855 817.571 914.623 809.811 929.998 809.464C945.373 809.117 952.457 819.354 952.457 819.354L907.855 817.571Z" fill="#8F4D5E"/>
<path fill-rule="evenodd" clip-rule="evenodd" d="M956.308 819.579C956.308 819.579 962.52 816.157 963.996 817.322C965.476 818.487 965.478 820.166 965.478 820.166L956.308 819.579Z" fill="#8F4D5E"/>
<path fill-rule="evenodd" clip-rule="evenodd" d="M833.644 867.703C833.644 867.703 834.355 872.725 838.965 873.129C838.965 873.129 839.764 867.077 833.644 867.703Z" fill="#FDCD9B"/>
<path fill-rule="evenodd" clip-rule="evenodd" d="M900.476 889.04C900.476 889.04 899.64 891.242 901.096 892.326C901.096 892.326 901.895 890.698 900.476 889.04Z" fill="#FDCD9B"/>
<path fill-rule="evenodd" clip-rule="evenodd" d="M923.181 885.402C923.181 885.402 923.581 887.082 925.087 887.699C926.594 888.317 927.171 887.699 927.171 887.699C927.171 887.699 925.754 884.622 923.181 885.402Z" fill="#FDCD9B"/>
<path fill-rule="evenodd" clip-rule="evenodd" d="M1035.63 597.354C1035.63 597.354 1061.51 577.728 1139.56 662.262C1217.61 746.796 1288.16 849.766 1288.16 849.766C1288.16 849.766 1202.02 715.85 1139.56 655.942C1083.59 602.262 1057.77 587.727 1035.63 597.354Z" fill="#FDCD9B"/>
<path fill-rule="evenodd" clip-rule="evenodd" d="M746.127 785.673C746.127 785.673 782.803 655.086 798.422 651.337C814.042 647.588 817.796 726.114 817.796 726.114C817.796 726.114 813.622 644.167 799.137 647.938C783.384 652.036 757.623 737.239 746.127 785.673Z" fill="#FDCD9B"/>
<path fill-rule="evenodd" clip-rule="evenodd" d="M651.61 854.671C651.61 854.671 696.56 808.518 723.041 807.242C743.748 806.246 748.943 820.824 748.943 820.824C748.943 820.824 743.086 802.835 720.203 805.438C694.432 808.369 651.61 854.671 651.61 854.671Z" fill="#FDCD9B"/>
<path fill-rule="evenodd" clip-rule="evenodd" d="M1262.5 856.684C1262.5 856.684 1270.94 856.822 1279.34 867.194C1287.74 877.566 1292.59 894.767 1292.59 894.767C1292.59 894.767 1280.31 846.778 1262.5 856.684Z" fill="#FDCD9B"/>
<path fill-rule="evenodd" clip-rule="evenodd" d="M1354.32 865.203C1354.32 865.203 1366.34 869.911 1379.01 894.767C1379.01 894.767 1363.54 859.929 1354.32 865.203Z" fill="#FDCD9B"/>
<path fill-rule="evenodd" clip-rule="evenodd" d="M1017.57 850.462C1017.57 850.462 1044.96 854.362 1065.83 871.861C1065.83 871.861 1032.53 842.135 1017.57 850.462Z" fill="#FDCD9B"/>
<path fill-rule="evenodd" clip-rule="evenodd" d="M828.9 797.708C828.9 797.708 834.154 788.582 844.612 789.692C855.069 790.803 878.363 814.884 878.363 814.884C878.363 814.884 854.324 787.477 843.075 787.458C835.506 787.447 828.9 797.708 828.9 797.708Z" fill="#FDCD9B"/>
</g>
<defs>
<linearGradient id="paint0_linear_17_1521" x1="959.556" y1="1080.87" x2="959.556" y2="817.323" gradientUnits="userSpaceOnUse">
<stop stop-color="#2F869A"/>
<stop offset="0.1364" stop-color="#32869A"/>
<stop offset="0.2349" stop-color="#3B8899"/>
<stop offset="0.3214" stop-color="#4B8A97"/>
<stop offset="0.4011" stop-color="#618E94"/>
<stop offset="0.476" stop-color="#7E9290"/>
<stop offset="0.5474" stop-color="#A2978C"/>
<stop offset="0.6148" stop-color="#CB9D87"/>
<stop offset="0.6508" stop-color="#E4A184"/>
<stop offset="1" stop-color="#FDE386"/>
</linearGradient>
<linearGradient id="paint1_linear_17_1521" x1="959.556" y1="1080.87" x2="959.556" y2="879.569" gradientUnits="userSpaceOnUse">
<stop offset="0.2067" stop-color="#FFDAD4"/>
<stop offset="0.6006" stop-color="#EBDCE1"/>
<stop offset="0.9749" stop-color="#DF8B72"/>
</linearGradient>
<linearGradient id="paint2_linear_17_1521" x1="1122.5" y1="1193.24" x2="1122.5" y2="897.754" gradientUnits="userSpaceOnUse">
<stop stop-color="#F2FFFF"/>
<stop offset="1" stop-color="#A7AAF4"/>
</linearGradient>
<linearGradient id="paint3_linear_17_1521" x1="634.851" y1="902.512" x2="634.851" y2="887.211" gradientUnits="userSpaceOnUse">
<stop stop-color="#F2FFFF"/>
<stop offset="1" stop-color="#A7AAF4"/>
</linearGradient>
<linearGradient id="paint4_linear_17_1521" x1="654.615" y1="891.678" x2="654.615" y2="887.81" gradientUnits="userSpaceOnUse">
<stop stop-color="#F2FFFF"/>
<stop offset="1" stop-color="#A7AAF4"/>
</linearGradient>
<linearGradient id="paint5_linear_17_1521" x1="892.633" y1="922.912" x2="892.633" y2="894.827" gradientUnits="userSpaceOnUse">
<stop stop-color="#F2FFFF"/>
<stop offset="1" stop-color="#A7AAF4"/>
</linearGradient>
<linearGradient id="paint6_linear_17_1521" x1="893.533" y1="900.218" x2="893.533" y2="894.878" gradientUnits="userSpaceOnUse">
<stop stop-color="#F2FFFF"/>
<stop offset="1" stop-color="#A7AAF4"/>
</linearGradient>
<linearGradient id="paint7_linear_17_1521" x1="783.928" y1="1067.47" x2="783.928" y2="888.922" gradientUnits="userSpaceOnUse">
<stop stop-color="#F2FFFF"/>
<stop offset="1" stop-color="#A7AAF4"/>
</linearGradient>
<linearGradient id="paint8_linear_17_1521" x1="1170.48" y1="896.693" x2="1170.48" y2="896.658" gradientUnits="userSpaceOnUse">
<stop stop-color="#F2FFFF"/>
<stop offset="1" stop-color="#A7AAF4"/>
</linearGradient>
<linearGradient id="paint9_linear_17_1521" x1="1210.24" y1="897.394" x2="1210.24" y2="897.035" gradientUnits="userSpaceOnUse">
<stop stop-color="#F2FFFF"/>
<stop offset="1" stop-color="#A7AAF4"/>
</linearGradient>
<linearGradient id="paint10_linear_17_1521" x1="1162.71" y1="881.521" x2="1162.71" y2="594.618" gradientUnits="userSpaceOnUse">
<stop offset="0.0531" stop-color="#DF6D70"/>
<stop offset="0.5279" stop-color="#A33D6B"/>
<stop offset="1" stop-color="#7E3360"/>
</linearGradient>
<linearGradient id="paint11_linear_17_1521" x1="777.301" y1="832.265" x2="777.301" y2="649.51" gradientUnits="userSpaceOnUse">
<stop offset="0.0531" stop-color="#DF6D70"/>
<stop offset="0.5279" stop-color="#A33D6B"/>
<stop offset="1" stop-color="#7E3360"/>
</linearGradient>
<linearGradient id="paint12_linear_17_1521" x1="593.594" y1="869.981" x2="593.594" y2="853.775" gradientUnits="userSpaceOnUse">
<stop offset="0.0531" stop-color="#DF6D70"/>
<stop offset="0.5279" stop-color="#A33D6B"/>
<stop offset="1" stop-color="#7E3360"/>
</linearGradient>
<linearGradient id="paint13_linear_17_1521" x1="1361.23" y1="894.767" x2="1361.23" y2="864.889" gradientUnits="userSpaceOnUse">
<stop offset="0.0531" stop-color="#DF6D70"/>
<stop offset="0.5279" stop-color="#A33D6B"/>
<stop offset="1" stop-color="#7E3360"/>
</linearGradient>
<linearGradient id="paint14_linear_17_1521" x1="1037.73" y1="884.78" x2="1037.73" y2="849.609" gradientUnits="userSpaceOnUse">
<stop offset="0.0531" stop-color="#DF6D70"/>
<stop offset="0.5279" stop-color="#A33D6B"/>
<stop offset="1" stop-color="#7E3360"/>
</linearGradient>
<linearGradient id="paint15_linear_17_1521" x1="1268.88" y1="895.731" x2="1268.88" y2="855.759" gradientUnits="userSpaceOnUse">
<stop offset="0.0531" stop-color="#DF6D70"/>
<stop offset="0.5279" stop-color="#A33D6B"/>
<stop offset="1" stop-color="#7E3360"/>
</linearGradient>
<linearGradient id="paint16_linear_17_1521" x1="702.318" y1="861.353" x2="702.318" y2="806.244" gradientUnits="userSpaceOnUse">
<stop offset="0.0531" stop-color="#DF6D70"/>
<stop offset="0.5279" stop-color="#A33D6B"/>
<stop offset="1" stop-color="#7E3360"/>
</linearGradient>
<linearGradient id="paint17_linear_17_1521" x1="849.816" y1="819.967" x2="849.816" y2="788.874" gradientUnits="userSpaceOnUse">
<stop offset="0.0531" stop-color="#DF6D70"/>
<stop offset="0.5279" stop-color="#A33D6B"/>
<stop offset="1" stop-color="#7E3360"/>
</linearGradient>
</defs>
</svg>
