<svg xmlns="http://www.w3.org/2000/svg"  viewBox="0 0 24 24" width="96px" height="96px"><path d="M21,3H3v18h18V3z M16.957,11.575c-0.306,1.244-1.153,2.257-2.324,2.778l-1.535,0.768l1.062,1.575l-1.658,1.117 l-2.335-3.463l3.613-1.806c0.643-0.287,1.078-0.808,1.235-1.447s0.013-1.304-0.396-1.82C13.997,8.496,12.9,8.254,12.01,8.703 l-2.847,1.433c-0.178,0.089-0.239,0.241-0.26,0.324s-0.038,0.246,0.076,0.408c0.14,0.199,0.403,0.268,0.62,0.164l3.078-1.447 l0.852,1.811l-3.079,1.447c-1.102,0.515-2.407,0.168-3.105-0.822c-0.419-0.595-0.559-1.341-0.381-2.047 c0.177-0.706,0.651-1.299,1.301-1.625l2.847-1.433c1.731-0.871,3.868-0.401,5.073,1.119C16.981,9.039,17.264,10.33,16.957,11.575z"/></svg>