<svg xmlns="http://www.w3.org/2000/svg" width="1920" height="1080" fill="none" xmlns:v="https://vecta.io/nano"><mask id="A" maskUnits="userSpaceOnUse" x="-66" y="0" width="2052" height="1084"><path d="M1985.11 0H-66V1083.52H1985.11V0Z" fill="#fff"/></mask><g mask="url(#A)"><path fill-rule="evenodd" d="M542.46 556.681l17.581 22.976h6.279l12.435-15.606-12.804 9.105-23.491-16.475zm-136.027 13.021l8.466 11.475h3.925l15.382-16.099-20.316 11.67-7.457-7.046zm108.711-44.741l14.967 9.137 6.539-20.27-10.753 15.938-10.753-4.805z" fill="#9d859f"/><path fill-rule="evenodd" d="M566.319 579.657h11.951v-3.901l-14.291 1.951 2.34 1.95zm-164.51 65.526l-17.581 22.979h-6.277l-12.437-15.609 13.711 8.468 22.584-15.838z" fill="#9d859f"/><path fill-rule="evenodd" d="M377.951 668.162h-11.953v-3.904l14.291 1.953-2.338 1.951zm150.03-135.365l2.39 4.494 2.956-2.248-3.938-2.246h-1.408zm-174.577 47.711l-16.699 10.196-7.296-22.619 11.999 17.783 11.996-5.36z" fill="#9d859f"/><path fill-rule="evenodd" d="M339.081 589.252l-2.667 5.014-3.297-2.506 4.395-2.508h1.569zm76.19-9.595l2.399 4.12h2.649l-1.495-2.6-3.553-1.52zm35.944-19.875l26.1-3.792-4.795 3.792-13.049 14.384-2.665-11.569h-7.19l1.599-2.815z" fill="#9d859f"/></g></svg>