<svg xmlns="http://www.w3.org/2000/svg" xmlns:xlink="http://www.w3.org/1999/xlink" width="1920" height="1080" fill="none" xmlns:v="https://vecta.io/nano"><style><![CDATA[.B{fill-rule:evenodd}.C{opacity:.69}.D{fill:#c17a5f}.E{fill:#fdcd9b}.F{fill:#fdac5f}.G{fill:#b69a7e}.H{fill:#b88776}.I{fill:#bdaa11}.J{fill:#867a0f}.K{fill:#fda774}]]></style><mask id="A" maskUnits="userSpaceOnUse" x="-66" y="0" width="2052" height="1084"><path d="M1985.11 0H-66V1083.52H1985.11V0Z" fill="#fff"/></mask><g mask="url(#A)" class="B"><path d="M1811.97 1080.87H107.144s212.001-123.422 445.31-201.235c34.717-11.583 69.918-22.158 104.952-31.148 61.661-15.85 122.854-26.839 180.112-29.938 16.947-.924 34.527-1.319 52.71-1.208 40.539.198 83.85 2.768 128.882 7.43 93.62 9.649 193.21 26.663 291.69 50.974 38.74 9.562 78.46 21.562 115.82 32.706l.11.022c165.04 49.284 310.71 112.237 385.24 172.397z" fill="url(#B)"/><path d="M1811.97 1080.87H107.144s212.001-123.421 445.31-201.235l.263-.065s517.383 25.477 873.903 28.884l.11.022c165.04 49.281 310.71 112.234 385.24 172.394z" fill="url(#C)"/><g opacity=".6"><path d="M978.626 925.533l2.222-1.175 19.012-24.721.81.187.5 4.158v.016l-9.737 79.097 6.387-35.637 3.59-42.14-.16-.9.17.897v.016c1.57 8.454 6.14 22.199 19.25 24.081 8.7 2.259 21.34-4.534 32.22-12.306-4.64 6.737 2.71 16.031 5.15 23.689l-2.83 10.198c-5.98.751-3.02.436-.02.09l-2.25 8.256-.18.699-.97 3.633-.03.108-1.15 4.323-.12.45-4.7 18.314-2.24 9.031.01.008-6.27 26.815v.01l-.06.28-.11.5-6.15 29.69-.14.67-2.08 11.17c0 .02 0 .04-.01.06l-4.15 21.23c.17.42.35.79.52 1.19 0 .01 0 .02-.01.03l-.8 5.75v.01h-.01l-1.06 8.5-.17 1.35c-.01.08-.01.17-.03.25l-.16 1.34h.01l-.15 1.33-.85 8.53c-.46 5.1-.81 10.06-1.02 14.83l-.14 3.36c-.09 2.8-.14 5.54-.13 8.2l.05 4.03a161.36 161.36 0 0 0 .31 7.17l.24 3.14c.14 1.6.3 3.16.5 4.68a92.57 92.57 0 0 0 .61 4.08c.18 1.08.37 2.14.59 3.17a70.36 70.36 0 0 0 1.06 4.33l.12.44.18.57c1.73 5.78 4.12 10.47 7.28 13.8a19.69 19.69 0 0 0 1.32 1.27c.87.77 1.8 1.44 2.78 2.02 9.19 6.97 23.08 3.24 39.81-7.75 18.65-11.61 40.42-31.92 63.01-56.46l14.21-15.87 8.08-9.39h.01l.5-.6 4.2-5 6.15-7.32 10.4-12.75.52-.64 7.1-8.88c.03-.07.09-.14.15-.21l18.45-23.76 2.91-3.8 6.08-8.05h.01l.02-.02c31.27-41.622 58.34-81.07 73.83-104.125l.45-.677-.45.677-3.92 18.044 10.7 41.634-6.19-40.388 13.17-40.066-.29.45.04-.09.25-.36-3.9-.428h-.02l-14.77-1.49v-.035c-.04 0-.09.016-.15.016-.04 0-.07-.016-.13-.016h-.02c-.06 0-.13 0-.21-.016l-2.02-.171-.07.187c-2.06 0-4.14 0-6.24-.016l-21.34-.087-7.08-.052-44.4-.411c-.2 0-.41-.016-.63-.016h-.02l-38.67-.515h-.02l-28.55-.463h-.02l-8.18-.155h-.02l-24.31-.444h-.05l-30.09-.599a1.66 1.66 0 0 1 .19-.206c-.08.052-.17.136-.25.206-.48 0-.99-.016-1.48-.035-.52 0-1.04-.016-1.57-.016l-4.01-.087c-.32-.016-.65-.016-.97-.016l-45.84-1.01-15.82-.393h-.04l-12.077-.29 6.272 1.506.009.003-20.698 16.588v-.008l-1.179.943v.011l-36.288 29.084 36.775-19.457 1.682-.878zm325.884-20.746s.01-.006.02-.014l-.47.707.06-.095.39-.598zm-2.4 3.613l1.8-2.703c.03-.022.03-.044.05-.063l-2.21 3.332.36-.566z" fill="url(#D)"/><path d="M631.154 902.511l7.395-15.248-1.329-.051-6.066 15.299z" fill="url(#E)"/><path d="M654.39 887.811l.45 3.868-.076-3.868h-.374z" fill="url(#F)"/><path d="M880.34 894.826l-.242.171 7.79 12.715 17.283 15.199-23.95-28.068c-.3.002-.581-.017-.881-.017z" fill="url(#G)"/><path d="M904.459 900.219l-20.054-5.29-1.798-.051 11.141 5.341h10.711z" fill="url(#H)"/><path d="M849.314 893.919c-.055.016-.113 0-.168 0a18.71 18.71 0 0 1-1.048-.035l-28.537-.821-3.65-.119-18.725-.548-3.782-.119c-.132-.016-.263-.016-.374-.016l-2.845-.087-28.256-.872-1.047-.035-11.983-.377-7.603-.238-3.988-.138-49.376-1.593h-.168c5.448 3.971 11.104 7.582 16.741 10.456.281.154.561.309.842.428 8.633 4.467 16.852 7.035 23.368 5.957 4.082-.274 7.883-1.471 11.272-3.852l3.764 15.575.6 2.449 12.209 46.638v.005l-.012-.008.215.772.005.003 2.563 9.118 4.045 13.844 1.816 5.938.316 1.065.263.869.224.737.019.016c4.026 12.989 8.182 25.279 12.301 35.769h-.005l.335.84 1.26 3.13.247.61 1.052 2.52 1.357 3.11c3.726 8.38 7.363 14.92 10.764 18.74.953 1.07 1.888 1.93 2.801 2.55.485.34.96.6 1.424.8.93.4 1.821.54 2.677.42.134-.02.258-.08.39-.11.291-.06.584-.11.868-.24.678-.29 1.326-.78 1.956-1.39.13-.12.261-.22.388-.35.074-.08.143-.19.217-.27.298-.34.593-.69.879-1.1 2.125-3.04 3.948-7.93 5.51-14.16l.03-.12c.785-3.14 1.503-6.63 2.158-10.39l.007-.01.145-.89.822-5.05.037-.25.749-5.53 1.217-10.53.013-.11.005-.04.168-1.68v-.01l.73-8.12.583-7.632.43-6.688.069-1.087c.011-.067.021-.108.021-.108v-.019l.186-3.066.487-9.465c.019-.171.019-.257.019-.257v-.035c.918-19.699 1.255-39.349 1.347-54.973h.04l-.04-.791.014-2.473-.051-23.022c.019.051.037.119.056.189.337 1.336 1.479 3.988 3.182 7.138.037.087.076.171.131.257 3.501 6.897 9.53 16.329 17.134 18.45.337.087.673.155 1.029.19.3.051.618.067.973.067.379-.005.783-.056 1.198-.124 5.169-.618 11.854-5.025 18.126-10.264.055-.051.113-.086.15-.138 3.913-3.012 6.721-5.51 6.721-5.51s-.037-.138-.131-.376c6.798-6.453 11.909-12.341 11.909-12.341l-6.78-.377-24.005-.696z" fill="url(#I)"/><path d="M1170.74 896.657l-.52.017.49.016c.01-.014.01-.014.03-.033z" fill="url(#J)"/><path d="M1210.5 897.034c-.15.087-.3.222-.51.36h.09l.42-.36z" fill="url(#K)"/></g><path d="M1389.48 897.69l62.25 8.979-956.527-23.718 77.153-9.822-19.904 6.506s619.978 29.992 847.988 21.107l-10.96-3.052z" fill="#fff"/><path opacity=".5" d="M890.228 817.341c-37.43 1.01-99.391 14.925-99.391 14.925s-43.141 19.409-93.904 26.487c-50.762 7.1-46.567 0-46.567 0l7.04-10.266c61.661-15.85 122.854-26.839 180.112-29.938 16.946-.924 34.527-1.319 52.71-1.208zm412.632 57.662l-16.01 3.749 5.73 16.007s-15.47 3.074-33.74 2.237c-18.26-.813-43.72-10.965-43.72-10.965s-51.21 1.671-83.49 0-84.55 3.21-144.164-4.508l24.844-5.78 44.66-8.156s-22.08-33.281-37.86-42.819c93.62 9.652 185.27 25.924 283.75 50.235z" fill="#91001d"/><path d="M1067.91 871.33s-79.654-246.904-32.28-273.976c61.19-34.968 269.21 276.756 269.21 276.756s-162.03 18.395-236.93-2.78z" fill="url(#L)"/><path d="M1035.63 597.354c-38.826 28.55 69.67 260.031 94.26 277.067 24.6 17.038 172.01 4.301 174.95-.312 0 0-215.42-316.315-269.21-276.755z" class="E"/><path d="M1040.65 689.066s81.5 157.154 130.1 192.455l-40.86-1.189s-70.81-124.865-89.24-191.266z" fill="#ccb689" class="C"/><path opacity=".15" d="M1030.83 729.077s8.57-16.84 15.14-23.171 114.78-21.789 114.78-21.789l21.77 25.509s-79.47-6.114-101.68.777c-22.22 6.888-43.55 48.88-43.55 48.88l-6.46-30.206zm-2.08-10.832s8.92-18.225 15.94-21.524c7.01-3.3 80.44-8.628 107.96-21.711l-3.43-2.232s-21.61 9.816-58.52 13.752-55.28-15.256-66.11 11.074l4.16 20.641z" class="G"/><path opacity=".46" d="M1043.55 785.293s17.18-15.034 28.17-14.701c11 .334 116.08-5.563 145.49-17.623l2.49 4.749s-82.46 23.859-143.36 23.209c0 0-24.09 1.072-30.55 13.129l-2.24-8.763z" class="H"/><path d="M1126.6 790.15l70.92-18.371 31.92 61.36-46.92 10.402-55.92-53.391zm7.47-34.797l-4.18-6.892 9-15.578 10.33 22.47h-15.15zm-74.86-95.721l-4.18-6.891 9-15.581 10.33 22.472h-15.15z" class="C D"/><path d="M1057.74 672.78l-17.1-16.838-5.01-29.691 11.06-19.137 24.29 58.353-13.24 7.313zm18.06-2.24l-11.11-30.593 6.29-6.815 17.64 32.335-12.82 5.073z" class="C D"/><path d="M1116.8 678.336l-11.1-30.593 6.29-6.816 17.64 32.335-12.83 5.074zm-18.04 54.547l-41.8-115.189 6.29-6.815 58.31 106.887-22.8 15.117z" class="D"/><path d="M1086.16 736.015l-41.8-115.187 6.29-6.818 58.31 106.887-22.8 15.118z" class="D"/><path d="M1120.7 674.647l-11.1-30.594 6.29-6.818 17.64 32.338-12.83 5.074zm68.42 179.317l-11.1-30.593 6.29-6.818 17.64 32.338-12.83 5.073zm-132.24-206.887l-11.1-30.594 6.29-6.818 17.64 32.338-12.83 5.074z" class="C D"/><path d="M1093.85 840.315l-36.11-91.853-6.88 10.819 21.49 84.444 21.5-3.41zm-18.05 21.28l-22.49-65.502-2.45 4.362 20.12 71.707 9.82 2.262-5-12.829zm-51.21-222.003l18.97 75.489 7.3 33.359-10.21.022-16.06-64.348v-44.522z" fill="#898e9f"/><path d="M1121.57 765.73l-15.87-32.847h-11.85l19.33 40.632 8.39-1.736v-6.049zm29.4 91.785l-4.99-11.165 3.43-3.102 7.29 12.404-5.73 1.863zm38.64-139.27l-18.86 7.23 53.85 96.631h40.99l-75.98-103.861z" class="C F"/><path d="M1060.35 846.62s4.87-41.894 26.62-43.04c11.35-.598 124.02 77.941 124.02 77.941s-113.55-87.327-127.61-85.428c-14.07 1.902-20.31 32.563-21.2 37.046s-1.83 10.586-1.83 10.586v2.895z" fill="#a5443b"/><path d="M1022.86 679.734s11.77 2.386 22.92 3.776c11.14 1.389 76.83 23.076 97.93 14.218 9.08-3.814-10.18-42.2-10.18-42.2l4.91 4.104s12.25 33.218 6.98 39.285-99.06-12.959-104.78-12.466c-5.71.493-16.35 4.386-16.35 4.386l-1.43-11.103z" fill="#862b3b"/><path d="M1084.61 797.133l1.55 4.773s17.73 5.805 39.21 20.2c0 0-24.52-21.405-40.76-24.973z" fill="#cd703a"/><path d="M1255.95 845.461l-5.35-14.614 2.67-8.126 7.09 22.74h-4.41z" class="E"/><path d="M819.543 819.958s-11.459 4.55-28.592 8.11c-15.486 3.231-35.596 5.65-56.042 3.188 0 0 37.656-164.858 61.211-180.531 10.524-7.013 16.404 17.255 19.662 49.457v.022c5.072 50.248 3.761 119.754 3.761 119.754z" fill="url(#M)"/><path d="M815.78 700.182v.022c-.561 29.215-24.361 125.973-24.829 127.864-15.486 3.231-35.596 5.65-56.042 3.188 0 0 37.656-164.858 61.211-180.531 10.522-7.013 16.401 17.255 19.66 49.457z" class="E"/><path d="M787.866 828.688s25.332-99.635 26.622-114.06c0 0-10.797 70.681-23.537 113.44l-3.085.62z" fill="#ccb689" class="C"/><path opacity=".15" d="M763.376 724.326s45.112-3.925 49.757-1.211 5.164 12.423 5.164 12.423v2.218s-1.95-9.578-5.496-11.661-27.081 1.11-34.77 1.11-18.709 10.551-18.709 10.551l4.054-13.43z" class="G"/><path opacity=".46" d="M765.996 715.991s40.686-20.145 49.599-17.583l.914 9.665s-26.354-.068-51.337 10.505l.824-2.587z" class="H"/><path opacity=".15" d="M778.306 681.281s28.687-6.724 35.316 1.554l-1.001-6s-23.8-5.742-32.476 0l-1.839 4.446z" class="G"/><path opacity=".46" d="M819.696 788.874s-15.246-.32-21.892 0-53.453 3.7-53.453 3.7l-.605 2.371 55.484-5.023c5.677-.103 20.311 1.916 20.311 1.916l.155-2.964z" class="H"/><path d="M801.176 800.232l11.39-56.92 3.943 3.194-5.483 45.332h1.775l2.979-21.316 2.517 1.135-2.517 49.666-20.216 5.732 5.612-26.823z" fill="#898e9f"/><path d="M748.943 797.708l13.598-56.82 22.032-6.734-6.267 30.815 3.415-.555 2.107-21.102h7.012l-13.538 58.586-28.359-4.19zm29.363 10.019l9.56-36.07h2.974l-9.119 34.586-3.415 1.484z" class="C F"/><path d="M785.837 686.116l-5.146 32.462h14.872l3.572-39.871-13.298 7.409z" class="D"/><path d="M789.914 708.379l4.555-36.85 12.461-1.658-5.01 33.735-12.006 4.773zm-5.667 85.848l4.557-36.854 12.461-1.655-5.01 33.736-12.008 4.773zm-3.556-92.463h5.264l1.91-20.925-3.586 1.996-3.588 18.929z" class="D"/><path d="M786.784 674.281l-.406 22.868 9.186-1.317 3.572-29.014-12.352 7.463z" class="D"/><path d="M801.265 714.628l3.849-20.67.946 7.806-2.398 12.864h-2.397zm0 43.539l2.397-5.832 3.268-1.379-2.834 4.998-2.831 2.213z" class="C F"/><path d="M756.756 746.6l57.731-31.056c1.742.138 3.127 7.568 3.127 7.568l.182 2.999s-3.38-6.328-6.415-6.471c-7.284-.347-54.84 27.708-54.84 27.708l.215-.748z" fill="#862b3b"/><path d="M582.29 869.981s3.332-11.128 9.479-15.31 13.128 7.655 13.128 7.655l-22.607 7.655z" fill="url(#N)"/><path d="M1343.44 884.779s1.89-15.689 10.88-19.576c8.98-3.887 24.69 29.564 24.69 29.564l-35.57-9.988z" fill="url(#O)"/><path d="M1074.86 879.562s-35.06-32.465-54.19-29.797-20.08 29.797-20.08 29.797 65.28 11.74 74.27 0z" fill="url(#P)"/><path d="M1245.17 889.899s6.15-34.551 21.87-34.137 25.31 37.471 25.54 39.005c.24 1.533-46.81 2.058-47.41-4.868z" fill="url(#Q)"/><path d="M754.581 840.804c-10.727-76.697-86.413-4.442-102.969 13.864s104.075-5.954 102.969-13.864z" fill="url(#R)"/><path d="M819.616 814.372s8.203-21.914 20.502-25.246 39.973 27.633 39.973 27.633l-60.549 3.207.074-5.594z" fill="url(#S)"/><path d="M1020.67 849.765c-11.99 3.01-1.86 28.917.26 31.756 2.13 2.841 38.85 5.111 53.93-1.959 0 0-35.83-34.407-54.19-29.797zm246.37 5.998c-16.71 4.878-10.15 31.769-8.1 35.472 2.04 3.7 33.03 1.069 32.72 0s-12.97-38.875-24.62-35.472z" class="E"/><path d="M1354.32 865.203c-5.66 3.001-.22 21.779 2.43 23.315s22.26 6.249 22.26 6.249-16.06-34.145-24.69-29.564z" class="C F"/><path d="M728.718 806.319c17.95 2.858 13.245 34.67 12.298 37.406s-52.271 13.01-66.698 14.535-23.061-.658-22.706-3.591 51.679-52.397 77.106-48.35z" class="E"/><path d="M819.617 814.372s17.486 4.288 31.322 3.354 17.384-13.303 17.384-13.303-19.337-16.684-27.177-15.487c-10.137 1.547-20.565 21.46-21.529 25.436zM582.29 869.981s9.747-3.527 13.294-6.236-.799-9.971-.799-9.971-6.632-1.611-12.495 16.207zm691.51-2.787l6.96 17.585h6.39l-6.67-16.244-6.68-1.341zm1.02 22.705l-1.02-3.871-2.09.832v3.039h3.11zm92.15-6.872l-1.54-6.266v-3.632l5.89 11.65-4.35-1.752zm-336.14-15.833l-1.79-2.617 4.61-2.915 14.45 12.762-17.27 2.858v-10.088zm-6.24 4.464l-5.48-6.872v3.437l4.25 4.906 1.23-1.471z" class="C F"/><path d="M857.266 810.504l-9.579-15.557 1.064-1.427 15.137 14.904-6.622 2.08zm-33.704 1.945l3.785-5.97h2.009l-1.774 5.97h-4.02zm-164.384 37.316l32.247-22.71 10.894 1.633-18.661 21.077h-24.48zm41.332-13.923l6.032-8.787h5.498l-2.838 9.202-8.692-.415z" class="C F"/><path d="M1304.83 874.109l-13.17-38.852 6.19-39.164-10.7 40.372 3.92 17.499 13.76 20.145z" class="I"/><path d="M1343.44 884.78l-11.24-34.4 9.58 34.4h1.66zm35.57 9.987l5.65-19.021 23.47-43.03-23.47 48.805-5.65 13.246zm-378.42-15.205l-19.742-24.891-40.681-20.871 58.894 45.771 1.529-.009zm.58-5.138l-9.738-76.717 6.387 34.557 3.581 40.865-.23 1.295z" class="J"/><path d="M1062.2 884.259l12.43-18.639 1.76-29.556 1.15 30.017-15.34 18.178zm4.33-.693l10.14-11.491 9.58-6.455-18.81 17.754-.91.192z" class="I"/><path d="M1188.86 864.78l3.56-25.988-9.9-92.202 4.95 95.854-1.17 20.424 2.56 1.912zm-53.19-33.933l-24.01-47.095 19.97 44.5 4.04 2.595zm-381.088 9.958l10.589-34.326-6.653 28.458-3.936 5.868zm-1.249-7.005l3.649-11.773-3.148 14.23-.501-2.457z" class="J"/><path d="M651.609 854.671l-6.622-11.334-13.836-33.873 21.907 43.869-1.449 1.338zm2.335-2.587l-1.594-11.279 2.483-20.839-.711 31.874-.178.244z" class="I"/><path d="M880.09 816.759l7.804-12.339 17.267-14.728-24.302 27.619-.769-.552zm1.537.558l12.122-5.632h10.702l-21.938 5.626-.886.006z" class="J"/><path d="M766.775 845.927l3.831.761 1.83-.761-4.191-.997-1.47.997zm8.343-.997l4.502.471 1.064-1.27-4.093-.149-1.473.948zm128.084.531l22.214 1.75-7.038 3.876-15.176-2.814v-2.812z" class="K"/><path d="M742.225 870.317l22.217 1.747-7.038 3.877-15.179-2.812v-2.812z" fill="#fd985e"/><path d="M927.25 850.751l1.548-1.395 4.717-1.083 2.333 1.24-8.598 1.238zm27.085 16.662l3.715 1.121 1.505-1.847-5.22.726zm-84.212-31.403h3.494l1.105 1.52-6.399-.762 1.8-.758zm5.457-2.11l.646-.393 3.515-.271 1.407.664h-5.568zm7.7 0l.792-.393 1.098.198-1.89.195z" class="K"/><path d="M852.492 884.701l-4.442-.81-4.218 2.495h2.446l8.268-.715-2.054-.97zm0 2.096l3.403-.412 3.037.412-1.687.921h-6.008l1.255-.921z" fill="#fd985e"/><path d="M818.991 853.731h8.755l2.227-3.27-10.509.854-.473 2.416zM980.834 832.9l-7.367 2.714 1.013-1.844 3.512-1.582 2.842.712z" class="K"/><path d="M806.06 874.367s3.667-4.998 7.096 0h-7.096zm9.719 0s4.283-8.192 14.193-9.161 17.007 9.161 17.007 9.161-18.525 2.497-31.2 0zm77.262 15.532s4.08-2.432 8.102-2.18 6.149 5.439 6.149 5.439-8.635 1.723-14.251-3.259zm425.559.675s9.52-4.892 15.02 2.57c0 0-8.57 2.184-15.02-2.57zm-397.354-1.948s-2.365-10.729 8.752 0c0 0-3.311.932-8.752 0zm-13.391-71.055s6.768-7.76 22.143-8.107 22.459 9.89 22.459 9.89l-44.602-1.783zm48.453 2.008s6.212-3.422 7.688-2.257 1.482 2.844 1.482 2.844l-9.17-.587z" fill="#8f4d5e"/><path d="M833.644 867.703s.711 5.022 5.321 5.426c0 0 .799-6.052-5.321-5.426zm66.832 21.337s-.836 2.202.62 3.286c0 0 .799-1.628-.62-3.286zm22.705-3.638s.4 1.68 1.906 2.297 2.084 0 2.084 0-1.417-3.077-3.99-2.297zm112.449-288.048s25.88-19.626 103.93 64.908 148.6 187.504 148.6 187.504-86.14-133.916-148.6-193.824c-55.97-53.68-81.79-68.215-103.93-58.588zM746.127 785.673s36.676-130.587 52.295-134.336 19.374 74.777 19.374 74.777-4.174-81.947-18.659-78.176c-15.753 4.098-41.514 89.301-53.01 137.735zm-94.517 68.998s44.95-46.153 71.431-47.429c20.707-.996 25.902 13.582 25.902 13.582s-5.857-17.989-28.74-15.386c-25.771 2.931-68.593 49.233-68.593 49.233zm610.89 2.013s8.44.138 16.84 10.51 13.25 27.573 13.25 27.573-12.28-47.989-30.09-38.083zm91.82 8.519s12.02 4.708 24.69 29.564c0 0-15.47-34.838-24.69-29.564zm-336.75-14.741s27.39 3.9 48.26 21.399c0 0-33.3-29.726-48.26-21.399zM828.9 797.708s5.254-9.126 15.712-8.016 33.751 25.192 33.751 25.192-24.039-27.407-35.288-27.426c-7.569-.011-14.175 10.25-14.175 10.25z" class="E"/></g><defs><linearGradient id="B" x1="959.556" y1="1080.87" x2="959.556" y2="817.323" xlink:href="#T"><stop stop-color="#2f869a"/><stop offset=".136" stop-color="#32869a"/><stop offset=".235" stop-color="#3b8899"/><stop offset=".321" stop-color="#4b8a97"/><stop offset=".401" stop-color="#618e94"/><stop offset=".476" stop-color="#7e9290"/><stop offset=".547" stop-color="#a2978c"/><stop offset=".615" stop-color="#cb9d87"/><stop offset=".651" stop-color="#e4a184"/><stop offset="1" stop-color="#fde386"/></linearGradient><linearGradient id="C" x1="959.556" y1="1080.87" x2="959.556" y2="879.569" xlink:href="#T"><stop offset=".207" stop-color="#ffdad4"/><stop offset=".601" stop-color="#ebdce1"/><stop offset=".975" stop-color="#df8b72"/></linearGradient><linearGradient id="D" x1="1122.5" y1="1193.24" x2="1122.5" y2="897.754" xlink:href="#T"><stop stop-color="#f2ffff"/><stop offset="1" stop-color="#a7aaf4"/></linearGradient><linearGradient id="E" x1="634.851" y1="902.512" x2="634.851" y2="887.211" xlink:href="#T"><stop stop-color="#f2ffff"/><stop offset="1" stop-color="#a7aaf4"/></linearGradient><linearGradient id="F" x1="654.615" y1="891.678" x2="654.615" y2="887.81" xlink:href="#T"><stop stop-color="#f2ffff"/><stop offset="1" stop-color="#a7aaf4"/></linearGradient><linearGradient id="G" x1="892.633" y1="922.912" x2="892.633" y2="894.827" xlink:href="#T"><stop stop-color="#f2ffff"/><stop offset="1" stop-color="#a7aaf4"/></linearGradient><linearGradient id="H" x1="893.533" y1="900.218" x2="893.533" y2="894.878" xlink:href="#T"><stop stop-color="#f2ffff"/><stop offset="1" stop-color="#a7aaf4"/></linearGradient><linearGradient id="I" x1="783.928" y1="1067.47" x2="783.928" y2="888.922" xlink:href="#T"><stop stop-color="#f2ffff"/><stop offset="1" stop-color="#a7aaf4"/></linearGradient><linearGradient id="J" x1="1170.48" y1="896.693" x2="1170.48" y2="896.658" xlink:href="#T"><stop stop-color="#f2ffff"/><stop offset="1" stop-color="#a7aaf4"/></linearGradient><linearGradient id="K" x1="1210.24" y1="897.394" x2="1210.24" y2="897.035" xlink:href="#T"><stop stop-color="#f2ffff"/><stop offset="1" stop-color="#a7aaf4"/></linearGradient><linearGradient id="L" x1="1162.71" y1="881.521" x2="1162.71" y2="594.618" xlink:href="#T"><stop offset=".053" stop-color="#df6d70"/><stop offset=".528" stop-color="#a33d6b"/><stop offset="1" stop-color="#7e3360"/></linearGradient><linearGradient id="M" x1="777.301" y1="832.265" x2="777.301" y2="649.51" xlink:href="#T"><stop offset=".053" stop-color="#df6d70"/><stop offset=".528" stop-color="#a33d6b"/><stop offset="1" stop-color="#7e3360"/></linearGradient><linearGradient id="N" x1="593.594" y1="869.981" x2="593.594" y2="853.775" xlink:href="#T"><stop offset=".053" stop-color="#df6d70"/><stop offset=".528" stop-color="#a33d6b"/><stop offset="1" stop-color="#7e3360"/></linearGradient><linearGradient id="O" x1="1361.23" y1="894.767" x2="1361.23" y2="864.889" xlink:href="#T"><stop offset=".053" stop-color="#df6d70"/><stop offset=".528" stop-color="#a33d6b"/><stop offset="1" stop-color="#7e3360"/></linearGradient><linearGradient id="P" x1="1037.73" y1="884.78" x2="1037.73" y2="849.609" xlink:href="#T"><stop offset=".053" stop-color="#df6d70"/><stop offset=".528" stop-color="#a33d6b"/><stop offset="1" stop-color="#7e3360"/></linearGradient><linearGradient id="Q" x1="1268.88" y1="895.731" x2="1268.88" y2="855.759" xlink:href="#T"><stop offset=".053" stop-color="#df6d70"/><stop offset=".528" stop-color="#a33d6b"/><stop offset="1" stop-color="#7e3360"/></linearGradient><linearGradient id="R" x1="702.318" y1="861.353" x2="702.318" y2="806.244" xlink:href="#T"><stop offset=".053" stop-color="#df6d70"/><stop offset=".528" stop-color="#a33d6b"/><stop offset="1" stop-color="#7e3360"/></linearGradient><linearGradient id="S" x1="849.816" y1="819.967" x2="849.816" y2="788.874" xlink:href="#T"><stop offset=".053" stop-color="#df6d70"/><stop offset=".528" stop-color="#a33d6b"/><stop offset="1" stop-color="#7e3360"/></linearGradient><linearGradient id="T" gradientUnits="userSpaceOnUse"/></defs></svg>