<svg xmlns="http://www.w3.org/2000/svg" width="1920" height="1080" fill="none" xmlns:v="https://vecta.io/nano"><mask id="A" maskUnits="userSpaceOnUse" x="-347" y="-589" width="2614" height="1846"><path d="M2266.11-588.13H-347v1844.22h2613.11V-588.13z" fill="#fff"/></mask><g mask="url(#A)"><path opacity=".15" fill-rule="evenodd" d="M1940.27 964.627s-156.53 9.245-156.53 16.193 452.58 5.403 452.58 0-105.49-10.038-105.49-10.038 22.97 1.932 14.46 6.949c-8.5 5.021-242.45 9.313-205.02-13.104zm-180.91 28.286s-54.69 4.62-54.69 8.097 158.13 2.7 158.13 0-36.85-5.022-36.85-5.022 8.02.969 5.05 3.477c-2.97 2.515-84.72 4.655-71.64-6.552zm-1782.92 7.337s120.68 21.88 155.234 19.57c34.551-2.32 3.757-9.7 3.757-9.7s240.36-2.32 246.369 9.87c6.006 12.18-290.939 20.93-405.36-19.74z" fill="#4685e4"/><path fill-rule="evenodd" d="M449.118 1030.44c-2.252 18.33 165.247 35.39 198.298 20.92s42.065-7.74 42.065-7.74-54.083 40.81 205.809 37.57 270.4-29.82 270.4-29.82l187.79-6.91-268.16-3.25s41.32 2.38 4.51 14.7c-36.8 12.31-319.979 40.41-311.716 7.99 8.264-32.41 137.457-27.01 137.457-27.01l-355.283-6.44s66.779-1.45 66.85 11.85-153.793-1.89-166.937-6.21c-13.149-4.34-11.083-5.65-11.083-5.65z" fill="url(#B)" fill-opacity=".3" style="mix-blend-mode:multiply"/><path opacity=".6" fill-rule="evenodd" d="M926.712 1086.19c0 3.6-17.712 6.51-39.56 6.51s-39.561-2.91-39.561-6.51 17.712-6.52 39.561-6.52 39.56 2.92 39.56 6.52z" fill="#7ae7f8"/></g><defs><linearGradient id="B" x1="894.188" y1="881.451" x2="923.478" y2="1145.25" gradientUnits="userSpaceOnUse"><stop stop-color="#00554b" stop-opacity="0"/><stop offset=".994" stop-color="#70bbb1"/></linearGradient></defs></svg>