<svg xmlns="http://www.w3.org/2000/svg" width="1920" height="1080" fill="none" xmlns:v="https://vecta.io/nano"><mask id="A" maskUnits="userSpaceOnUse" x="-347" y="-589" width="2614" height="1846"><path d="M2266.11-588.13H-347v1844.22h2613.11V-588.13z" fill="#fff"/></mask><g mask="url(#A)"><path fill-rule="evenodd" d="M-234.514 1081.91c2.296-45.38 199.015-228.504 295.416-246.753s136.957 66.102 137.603 81.404-16.7 32.998-16.7 32.998 60.744-21.163 108.756-13.421 36.597 145.772 36.597 145.772h-561.672 0z" fill="url(#B)"/><path opacity=".6" fill-rule="evenodd" d="M174.176 872.092s16.718 18.821 15.254 44.469-36.338 46.018-126.509 75.442-224.782-4.048-224.782-4.048l-6.882 4.048 200.712 32.477c37.685 7.6 85.685 57.43 85.685 57.43h129.652s-107.221-10.51-116.64-40c-9.419-29.5 51.143-92.351 51.143-92.351s16.803-18.267 16.7-32.998-24.332-44.469-24.332-44.469z" fill="#6b8ec1"/><path opacity=".6" fill-rule="evenodd" d="M1.222 859.063s135.802 7.742 162.942 110.686l-5.745 7.257S131.95 883.467-2.729 859.063h3.951zM132.329 1021.1s108.691-32.707 194.826 60.81v-11.87s-73.929-83.92-192.783-54.25l-2.043 5.31z" fill="#6b8ec1"/></g><defs><linearGradient id="B" x1="46.914" y1="1081.92" x2="46.914" y2="832.587" gradientUnits="userSpaceOnUse"><stop stop-color="#bed3df"/><stop offset=".4" stop-color="#bcbec2"/><stop offset=".751" stop-color="#bbb1b0"/><stop offset="1" stop-color="#bbaca9"/></linearGradient></defs></svg>