<svg xmlns="http://www.w3.org/2000/svg" xmlns:xlink="http://www.w3.org/1999/xlink" width="1920" height="1080" fill="none" xmlns:v="https://vecta.io/nano"><mask id="A" width="2052" height="1084" x="-66" y="0" maskUnits="userSpaceOnUse"><path fill="#fff" d="M1985.11 0H-66v1083.52h2051.11V0Z"/></mask><g mask="url(#A)"><path fill="url(#B)" d="M2152.9-16.052H-184.208V1091.04H2152.9V-16.052Z"/><path fill="url(#E)" fill-rule="evenodd" d="M-439.094 644.519l855.199 54.233c167.243 12.168 413.982 38.492 413.982 38.492s87.433-18.008 123.732-13.871c210.011 23.935 559.511-.94 559.511-.94l-182.46 11.266-1150.931 11.482s381.933 20.118 556.068 17.017l198.951 3.79-1374.052 6.265V644.519z" style="mix-blend-mode:overlay"/><path fill="url(#C)" fill-rule="evenodd" d="m179.94 745.181-295.711-6.011s718.627-15.589 936.201-1.842l-640.49 7.853Z" opacity=".5" style="mix-blend-mode:overlay"/><path fill="url(#D)" fill-rule="evenodd" d="M28.959 770.118s645.812-15.573 905.998-4.131l-905.998 4.131Z" opacity=".5" style="mix-blend-mode:overlay"/><path fill="url(#F)" fill-rule="evenodd" d="M3099 583.485 780.906 614.422l871.004 3.678-146.91 5.488-196.42 6.873 1793.65-1.528-3.23-45.448Z" style="mix-blend-mode:overlay"/></g><defs><linearGradient id="B" x1="984.346" x2="984.346" y1="608.594" y2="11.83" xlink:href="#G"><stop stop-color="#ffe5e2"/><stop offset=".343" stop-color="#fff5f2"/><stop offset=".583" stop-color="#fff"/><stop offset="1" stop-color="#f3f7ff"/></linearGradient><linearGradient id="C" x1="-115.772" x2="820.429" y1="738.422" y2="738.422" xlink:href="#G"><stop stop-color="#fd3d2a"/><stop offset=".076" stop-color="#e4392a"/><stop offset=".229" stop-color="#b83129"/><stop offset=".383" stop-color="#942b28"/><stop offset=".537" stop-color="#782628"/><stop offset=".692" stop-color="#642327"/><stop offset=".846" stop-color="#582127"/><stop offset="1" stop-color="#542027"/></linearGradient><linearGradient id="D" x1="28.959" x2="934.957" y1="765.955" y2="765.955" xlink:href="#G"><stop stop-color="#fd3d2a"/><stop offset=".076" stop-color="#e4392a"/><stop offset=".229" stop-color="#b83129"/><stop offset=".383" stop-color="#942b28"/><stop offset=".537" stop-color="#782628"/><stop offset=".692" stop-color="#642327"/><stop offset=".846" stop-color="#582127"/><stop offset="1" stop-color="#542027"/></linearGradient><radialGradient id="E" cx="0" cy="0" r="1" gradientTransform="matrix(691.358 0 0 811.595 537.12 708.387)" xlink:href="#G"><stop stop-color="#d83d31"/><stop offset=".254" stop-color="#d53a32"/><stop offset=".47" stop-color="#ca3235"/><stop offset=".673" stop-color="#b9243b"/><stop offset=".866" stop-color="#a01142"/><stop offset="1" stop-color="#8a0049"/></radialGradient><radialGradient id="F" cx="0" cy="0" r="1" gradientTransform="matrix(820.834 0 0 963.588 1941.57 606.973)" xlink:href="#G"><stop stop-color="#d83d31"/><stop offset=".254" stop-color="#d53a32"/><stop offset=".47" stop-color="#ca3235"/><stop offset=".673" stop-color="#b9243b"/><stop offset=".866" stop-color="#a01142"/><stop offset="1" stop-color="#8a0049"/></radialGradient><linearGradient id="G" gradientUnits="userSpaceOnUse"/></defs></svg>