<svg xmlns="http://www.w3.org/2000/svg" xmlns:xlink="http://www.w3.org/1999/xlink" width="1920" height="1080" fill="none" xmlns:v="https://vecta.io/nano"><style><![CDATA[.B{fill-rule:evenodd}.C{fill:#fcfcfc}]]></style><g filter="url(#B)"><mask id="A" maskUnits="userSpaceOnUse" x="-66" y="0" width="2052" height="1084"><path d="M1985.11 0H-66V1083.52H1985.11V0Z" fill="#fff"/></mask><g mask="url(#A)"><path d="M2152.9-16.052H-184.209V1091.04H2152.9V-16.052z" fill="url(#C)"/><path d="M1233.53 146.075c0 1.555-1.07 2.814-2.4 2.814-1.32 0-2.39-1.259-2.39-2.814s1.07-2.815 2.39-2.815c1.33.003 2.4 1.263 2.4 2.815z" class="B C"/><use xlink:href="#H" class="B C"/><path d="M1082.6 30.856c0 1.555-1.07 2.814-2.39 2.814-1.33 0-2.4-1.26-2.4-2.814s1.07-2.815 2.4-2.815c1.32 0 2.39 1.26 2.39 2.815z" class="B C"/><path d="M1149.56 33.259c0 1.555-1.07 2.814-2.39 2.814-1.33 0-2.4-1.26-2.4-2.814s1.07-2.815 2.4-2.815c1.32.003 2.39 1.262 2.39 2.815z" class="B C"/><use xlink:href="#I" class="B C"/><path d="M1487.89 284.024c0 1.554-1.07 2.814-2.39 2.814-1.33 0-2.4-1.26-2.4-2.814s1.07-2.815 2.4-2.815c1.32 0 2.39 1.262 2.39 2.815z" class="B C"/><path d="M1256.87 166.004c0 1.555-1.08 2.814-2.4 2.814-1.33 0-2.4-1.259-2.4-2.814s1.07-2.815 2.4-2.815c1.32 0 2.4 1.263 2.4 2.815z" class="B C"/><path d="M1525.38 137.819c0 1.554-1.07 2.814-2.4 2.814-1.32 0-2.4-1.26-2.4-2.814s1.08-2.815 2.4-2.815c1.33 0 2.4 1.26 2.4 2.815z" class="B C"/><use xlink:href="#J" class="B C"/><path d="M1598.99 140.793c0 1.555-1.07 2.814-2.39 2.814-1.33 0-2.4-1.259-2.4-2.814s1.07-2.815 2.4-2.815c1.32 0 2.39 1.263 2.39 2.815z" class="B C"/><path d="M1012.5 239.716c0 1.555-1.08 2.814-2.4 2.814-1.33 0-2.4-1.259-2.4-2.814s1.07-2.815 2.4-2.815c1.32 0 2.4 1.26 2.4 2.815z" class="B C"/><use xlink:href="#K" class="B C"/><use xlink:href="#L" class="B C"/><use xlink:href="#M" class="B C"/><path d="M1560.29 203.745c0 1.555-1.07 2.815-2.4 2.815-1.32 0-2.39-1.26-2.39-2.815s1.07-2.814 2.39-2.814c1.33 0 2.4 1.262 2.4 2.814z" class="B C"/><use xlink:href="#N" class="B C"/><path d="M1732.41 86.175c0 1.555-1.08 2.815-2.4 2.815s-2.4-1.26-2.4-2.815 1.08-2.814 2.4-2.814 2.4 1.26 2.4 2.814z" class="B C"/><path d="M734.451 31.409c0 1.555-1.073 2.814-2.398 2.814s-2.397-1.26-2.397-2.814 1.073-2.814 2.397-2.814 2.398 1.262 2.398 2.814z" class="B C"/><path d="M945.598 232.919c0 1.555-1.073 2.815-2.397 2.815s-2.398-1.26-2.398-2.815 1.073-2.814 2.398-2.814 2.397 1.262 2.397 2.814z" class="B C"/><path d="M1910.09 24.076c0 1.555-1.08 2.814-2.4 2.814s-2.4-1.26-2.4-2.814 1.08-2.815 2.4-2.815 2.4 1.26 2.4 2.815z" class="B C"/><path d="M1397.44 88.101c0 1.555-1.08 2.814-2.4 2.814-1.33 0-2.4-1.26-2.4-2.814s1.07-2.814 2.4-2.814c1.32 0 2.4 1.26 2.4 2.814z" class="B C"/><use xlink:href="#O" class="B C"/><path d="M1202.76 70.215c0 1.555-1.07 2.815-2.4 2.815-1.32 0-2.39-1.26-2.39-2.815s1.07-2.814 2.39-2.814c1.33 0 2.4 1.26 2.4 2.814z" class="B C"/><use xlink:href="#P" class="B C"/><path d="M1392.4 13.243c0 1.555-1.07 2.815-2.4 2.815-1.32 0-2.4-1.26-2.4-2.815s1.08-2.814 2.4-2.814c1.33.003 2.4 1.262 2.4 2.814z" class="B C"/><path d="M1300.97 193.363c0 1.554-1.08 2.814-2.4 2.814-1.33 0-2.4-1.26-2.4-2.814s1.07-2.815 2.4-2.815c1.32 0 2.4 1.262 2.4 2.815z" class="B C"/><use xlink:href="#L" x="-337.25" y="236.086" class="B C"/><use xlink:href="#Q" class="B C"/><use xlink:href="#L" x="-410.59" y="135.424" class="B C"/><use xlink:href="#K" x="-750.38" y="-204.363" class="B C"/><use xlink:href="#R" class="B C"/><use xlink:href="#S" class="B C"/><use xlink:href="#R" x="-73.34" y="-100.659" class="B C"/><path d="M211.315 90.577c0 1.555-1.073 2.814-2.397 2.814s-2.398-1.26-2.398-2.814 1.073-2.814 2.398-2.814 2.397 1.262 2.397 2.814z" class="B C"/><path d="M1712.87 15.944c0 1.555-1.08 2.814-2.4 2.814-1.33 0-2.4-1.26-2.4-2.814s1.07-2.815 2.4-2.815c1.32 0 2.4 1.262 2.4 2.815z" class="B C"/><path d="M1691.43 205.303c0 1.555-1.07 2.814-2.4 2.814-1.32 0-2.4-1.259-2.4-2.814s1.08-2.815 2.4-2.815c1.33.003 2.4 1.263 2.4 2.815z" class="B C"/><use xlink:href="#T" class="B C"/><use xlink:href="#U" class="B C"/><path d="M37.828 304.448c0 1.555-1.073 2.815-2.398 2.815s-2.398-1.26-2.398-2.815 1.073-2.814 2.398-2.814 2.398 1.259 2.398 2.814z" class="B C"/><use xlink:href="#P" x="16.362" y="-44.698" class="B C"/><use xlink:href="#V" class="B C"/><use xlink:href="#U" x="-362.141" y="226.578" class="B C"/><path d="M314.744 124.941c0 1.555-1.073 2.814-2.398 2.814s-2.397-1.259-2.397-2.814 1.073-2.815 2.397-2.815 2.398 1.263 2.398 2.815z" class="B C"/><use xlink:href="#S" x="-770.862" y="-19.861" class="B C"/><use xlink:href="#W" class="B C"/><use xlink:href="#Q" x="-144.11" y="-198.661" class="B C"/><use xlink:href="#M" x="-464.468" y="-115.341" class="B C"/><path d="M460.022 44.5c0 1.555-1.073 2.814-2.398 2.814s-2.397-1.26-2.397-2.814 1.073-2.815 2.397-2.815 2.398 1.26 2.398 2.815z" class="B C"/><path d="M950.638 152.709c0 1.555-1.073 2.814-2.397 2.814s-2.398-1.259-2.398-2.814 1.073-2.815 2.398-2.815 2.397 1.26 2.397 2.815z" class="B C"/><use xlink:href="#J" x="-133.036" y="-64.009" class="B C"/><path d="M262.8 36.368c0 1.555-1.073 2.815-2.397 2.815s-2.398-1.26-2.398-2.815 1.073-2.814 2.398-2.814 2.397 1.26 2.397 2.814z" class="B C"/><path d="M507.983 131.954c0 1.555-1.072 2.814-2.397 2.814s-2.397-1.259-2.397-2.814 1.072-2.815 2.397-2.815 2.397 1.26 2.397 2.815z" class="B C"/><path d="M937.181 117.159c0 1.554-1.073 2.814-2.398 2.814s-2.397-1.26-2.397-2.814 1.073-2.815 2.397-2.815 2.398 1.262 2.398 2.815z" class="B C"/><path d="M555.67 23.239c0 1.555-1.073 2.814-2.397 2.814s-2.398-1.26-2.398-2.814 1.073-2.815 2.398-2.815 2.397 1.26 2.397 2.815z" class="B C"/><use xlink:href="#X" class="B C"/><use xlink:href="#N" x="-580.248" y="110.056" class="B C"/><path d="M1187.85 101.664c0 1.555-1.08 2.814-2.4 2.814-1.33 0-2.4-1.259-2.4-2.814s1.07-2.814 2.4-2.814c1.32 0 2.4 1.259 2.4 2.814z" class="B C"/><path d="M1235.81 189.118c0 1.555-1.07 2.814-2.4 2.814-1.32 0-2.4-1.259-2.4-2.814s1.08-2.815 2.4-2.815c1.33 0 2.4 1.26 2.4 2.815z" class="B C"/><path d="M674.389 142.136c0 1.555-1.073 2.815-2.397 2.815s-2.398-1.26-2.398-2.815 1.073-2.814 2.398-2.814 2.397 1.259 2.397 2.814z" class="B C"/><use xlink:href="#X" x="524.41" y="27.05" class="B C"/><path d="M928.754 280.085c0 1.555-1.073 2.814-2.397 2.814s-2.398-1.259-2.398-2.814 1.073-2.814 2.398-2.814 2.397 1.259 2.397 2.814z" class="B C"/><use xlink:href="#V" x="548.795" y="0.848" class="B C"/><use xlink:href="#P" x="907.286" y="-69.061" class="B C"/><use xlink:href="#T" x="-769.12" y="-91.834" class="B C"/><path d="M1211.42 314.988c0 1.555-1.07 2.814-2.4 2.814-1.32 0-2.4-1.259-2.4-2.814s1.08-2.814 2.4-2.814c1.33 0 2.4 1.259 2.4 2.814z" class="B C"/><use xlink:href="#H" x="-119.25" y="-156.141" class="B C"/><path d="M1001.15 199.807c0 1.555-1.07 2.814-2.398 2.814s-2.397-1.259-2.397-2.814 1.073-2.815 2.397-2.815 2.398 1.26 2.398 2.815z" class="B C"/><use xlink:href="#O" x="-269.44" y="32.755" class="B C"/><path d="M1350.95 20.135c0 1.555-1.08 2.814-2.4 2.814-1.33 0-2.4-1.26-2.4-2.814s1.07-2.814 2.4-2.814c1.32 0 2.4 1.259 2.4 2.814z" class="B C"/><use xlink:href="#W" x="65.715" y="55.579" class="B C"/><path d="M883.569 45.538c0 1.555-1.073 2.814-2.398 2.814s-2.397-1.26-2.397-2.814 1.073-2.815 2.397-2.815 2.398 1.262 2.398 2.815z" class="B C"/><use xlink:href="#I" x="34.5" y="-16.037" class="B C"/><path d="M1398.91 107.588c0 1.555-1.08 2.815-2.4 2.815s-2.4-1.26-2.4-2.815 1.08-2.814 2.4-2.814 2.4 1.262 2.4 2.814z" class="B C"/><use xlink:href="#L" x="-632.52" y="96.845" class="B C"/><path d="M1249.83 224.75c0 1.554-1.07 2.814-2.4 2.814-1.32 0-2.39-1.26-2.39-2.814s1.07-2.815 2.39-2.815c1.33 0 2.4 1.26 2.4 2.815z" class="B C"/><path d="M-179.094 644.519l855.199 54.233c167.243 12.168 413.985 38.492 413.985 38.492s87.43-18.008 123.73-13.871c210.01 23.935 559.51-.94 559.51-.94l-182.46 11.265-1150.931 11.483s381.933 20.118 556.068 17.017l198.953 3.789-1374.054 6.266V644.519z" fill="url(#D)" style="mix-blend-mode:overlay" class="B"/><g opacity=".5" class="B"><path d="M439.94 745.181l-295.711-6.011s718.627-15.589 936.201-1.842l-640.49 7.853z" fill="url(#E)" style="mix-blend-mode:overlay"/></g><g opacity=".5" class="B"><path d="M288.959 770.118s645.812-15.573 906.001-4.131l-906.001 4.131z" fill="url(#F)" style="mix-blend-mode:overlay"/></g><path d="M2139 583.484l-2318.094 30.938 871.008 3.678L545 623.588l-196.419 6.873 1793.649-1.528-3.23-45.449z" fill="url(#G)" style="mix-blend-mode:overlay" class="B"/></g></g><defs><filter id="B" x="-70" y="0" width="2059.11" height="1091.52" filterUnits="userSpaceOnUse" color-interpolation-filters="sRGB"><feFlood flood-opacity="0" result="A"/><feColorMatrix in="SourceAlpha" values="0 0 0 0 0 0 0 0 0 0 0 0 0 0 0 0 0 0 127 0" result="B"/><feOffset dy="4"/><feGaussianBlur stdDeviation="2"/><feComposite in2="B" operator="out"/><feColorMatrix values="0 0 0 0 0 0 0 0 0 0 0 0 0 0 0 0 0 0 0.25 0"/><feBlend in2="A"/><feBlend in="SourceGraphic"/></filter><linearGradient id="C" x1="984.346" y1="608.593" x2="984.346" y2="11.83" xlink:href="#Y"><stop stop-color="#ffe5e2"/><stop offset=".343" stop-color="#fff5f2"/><stop offset=".583" stop-color="#fff"/><stop offset="1" stop-color="#f3f7ff"/></linearGradient><radialGradient id="D" cx="0" cy="0" r="1" gradientTransform="translate(797.12 708.387) scale(691.358 811.595)" xlink:href="#Y"><stop stop-color="#d83d31"/><stop offset=".254" stop-color="#d53a32"/><stop offset=".47" stop-color="#ca3235"/><stop offset=".673" stop-color="#b9243b"/><stop offset=".866" stop-color="#a01142"/><stop offset="1" stop-color="#8a0049"/></radialGradient><linearGradient id="E" x1="144.228" y1="738.422" x2="1080.43" y2="738.422" xlink:href="#Y"><stop stop-color="#fd3d2a"/><stop offset=".077" stop-color="#e4392a"/><stop offset=".229" stop-color="#b83129"/><stop offset=".383" stop-color="#942b28"/><stop offset=".538" stop-color="#782628"/><stop offset=".692" stop-color="#642327"/><stop offset=".846" stop-color="#582127"/><stop offset="1" stop-color="#542027"/></linearGradient><linearGradient id="F" x1="288.959" y1="765.954" x2="1194.96" y2="765.954" xlink:href="#Y"><stop stop-color="#fd3d2a"/><stop offset=".077" stop-color="#e4392a"/><stop offset=".229" stop-color="#b83129"/><stop offset=".383" stop-color="#942b28"/><stop offset=".538" stop-color="#782628"/><stop offset=".692" stop-color="#642327"/><stop offset=".846" stop-color="#582127"/><stop offset="1" stop-color="#542027"/></linearGradient><radialGradient id="G" cx="0" cy="0" r="1" gradientTransform="translate(981.568 606.973) scale(820.834 963.588)" xlink:href="#Y"><stop stop-color="#d83d31"/><stop offset=".254" stop-color="#d53a32"/><stop offset=".47" stop-color="#ca3235"/><stop offset=".673" stop-color="#b9243b"/><stop offset=".866" stop-color="#a01142"/><stop offset="1" stop-color="#8a0049"/></radialGradient><path id="H" d="M1324.92 256.719c0 1.555-1.08 2.814-2.4 2.814s-2.4-1.259-2.4-2.814 1.08-2.815 2.4-2.815 2.4 1.26 2.4 2.815z"/><path id="I" d="M1119.23 28.042c0 1.555-1.08 2.815-2.4 2.815-1.33 0-2.4-1.26-2.4-2.815s1.07-2.814 2.4-2.814c1.32 0 2.4 1.26 2.4 2.814z"/><path id="J" d="M885.901 92.476c0 1.555-1.073 2.814-2.398 2.814s-2.397-1.26-2.397-2.814 1.073-2.814 2.397-2.814 2.398 1.26 2.398 2.814z"/><path id="K" d="M1770.56 318.929c0 1.555-1.08 2.815-2.4 2.815s-2.4-1.26-2.4-2.815 1.08-2.814 2.4-2.814 2.4 1.259 2.4 2.814z"/><path id="L" d="M1764.81 104.519c0 1.555-1.07 2.815-2.4 2.815-1.32 0-2.4-1.26-2.4-2.815s1.08-2.814 2.4-2.814c1.33 0 2.4 1.259 2.4 2.814z"/><path id="M" d="M746.812 221.941c0 1.554-1.073 2.814-2.397 2.814s-2.398-1.26-2.398-2.814 1.073-2.815 2.398-2.815 2.397 1.26 2.397 2.815z"/><path id="N" d="M939.156 139.057c0 1.554-1.073 2.814-2.398 2.814s-2.397-1.26-2.397-2.814 1.073-2.815 2.397-2.815 2.398 1.26 2.398 2.815z"/><path id="O" d="M1442.71 49.479c0 1.555-1.08 2.814-2.4 2.814s-2.4-1.26-2.4-2.814 1.08-2.814 2.4-2.814 2.4 1.26 2.4 2.814z"/><path id="P" d="M58.954 202.941c0 1.555-1.073 2.814-2.398 2.814s-2.397-1.259-2.397-2.814 1.073-2.814 2.397-2.814 2.398 1.259 2.398 2.814z"/><path id="Q" d="M1161.88 322.827c0 1.555-1.08 2.815-2.4 2.815-1.33 0-2.4-1.26-2.4-2.815s1.07-2.814 2.4-2.814c1.32 0 2.4 1.259 2.4 2.814z"/><path id="R" d="M1146.77 261.806c0 1.555-1.07 2.814-2.4 2.814-1.32 0-2.39-1.259-2.39-2.814s1.07-2.815 2.39-2.815c1.33 0 2.4 1.26 2.4 2.815z"/><path id="S" d="M881.088 244.031c0 1.555-1.073 2.814-2.398 2.814s-2.397-1.259-2.397-2.814 1.073-2.815 2.397-2.815 2.398 1.26 2.398 2.815z"/><path id="T" d="M1808.97 228.688c0 1.555-1.07 2.815-2.39 2.815-1.33 0-2.4-1.26-2.4-2.815s1.07-2.814 2.4-2.814c1.32 0 2.39 1.259 2.39 2.814z"/><path id="U" d="M682.636 112.773c0 1.555-1.073 2.814-2.398 2.814s-2.397-1.259-2.397-2.814 1.073-2.814 2.397-2.814 2.398 1.262 2.398 2.814z"/><path id="V" d="M148.93 161.217c0 1.555-1.073 2.815-2.398 2.815s-2.397-1.26-2.397-2.815 1.073-2.814 2.397-2.814 2.398 1.259 2.398 2.814z"/><path id="W" d="M772.582 28.581c0 1.555-1.073 2.814-2.397 2.814s-2.398-1.26-2.398-2.814 1.073-2.814 2.398-2.814 2.397 1.26 2.397 2.814z"/><path id="X" d="M241.366 225.727c0 1.555-1.073 2.815-2.398 2.815s-2.397-1.26-2.397-2.815 1.073-2.814 2.397-2.814 2.398 1.26 2.398 2.814z"/><linearGradient id="Y" gradientUnits="userSpaceOnUse"/></defs></svg>