<svg xmlns="http://www.w3.org/2000/svg" width="493" height="28" fill="none" xmlns:v="https://vecta.io/nano"><path d="M1.5 5.33299C8.5 5.33299 15.2082 5.32502 16.5 5.33299C25.8727 5.39085 25.095 5.07894 34.4665 5.33299C64.5169 6.14761 94.5241 8.48606 124.588 8.88691C160.474 9.3654 196.351 8.90235 232.213 8.03821C283.86 6.79371 335.4 4.78745 386.994 2.46864C417.161 1.11283 447.593 2.25646 477.805 2.25646C481.723 2.25646 487.077 1.27538 490.747 2.7869C492.495 3.50651 487.265 4.40241 485.39 4.64342C475.537 5.91022 465.554 6.47843 455.633 6.81821C409.337 8.40367 363.066 10.0226 316.764 11.5921C261.695 13.4589 206.736 10.4386 151.746 14.6687C124.094 16.7957 96.4983 19.2158 68.8387 21.14C55.3627 22.0774 14.8048 21.3521 28.3134 21.3521C59.1336 21.3521 89.8765 24.2165 120.715 24.2165C165.377 24.2165 209.985 22.7531 254.597 22.3069C269.122 22.1617 283.332 20.9554 297.828 19.92C320.875 18.2738 344.32 19.4426 367.421 19.4426C391.308 19.4426 415.196 19.4426 439.083 19.4426C475.241 19.4426 366.761 20.1355 330.609 19.4956C280.677 18.6119 230.915 21.684 181.079 22.3069M217.361 22.36C272.384 22.7631 327.293 26.1261 382.326 26.1261C389.994 26.1261 407.354 26.1261 415 26.1261C429.817 26.1261 375.605 25.219 360.791 24.9591C295.078 23.8063 229.196 21.2825 163.468 22.36M155.3 22.3069C207.037 22.2127 258.685 23.2485 310.399 24.6409" stroke="url(#A)" stroke-width="3" stroke-linecap="round"/><defs><linearGradient id="A" x1="245.491" y1="1.806" x2="245.491" y2="26.126" gradientUnits="userSpaceOnUse"><stop stop-color="#cdaec6"/><stop offset="1" stop-color="#673ebf"/></linearGradient></defs></svg>